<svg id="Calque_1" data-name="Calque 1" xmlns="http://www.w3.org/2000/svg" viewBox="0 0 38.99 37.5"><defs><style>.cls-1{fill:#111b43}</style></defs><title>easy-to-use-interface</title><path class="cls-1" d="M29.53 37.5a8.88 8.88 0 0 1-3.8-.87l-13.2-6.19A3.26 3.26 0 0 1 11 26.12a.78.78 0 0 1 .3-.33 7 7 0 0 1 5.59-.49H17l-6.1-9.86A3.26 3.26 0 0 1 11.92 11a3.25 3.25 0 0 1 4.47 1l2.73 4.42a3.25 3.25 0 0 1 3.93-.79 3.24 3.24 0 0 1 4.35-1.41A3.24 3.24 0 0 1 28.58 13a3.32 3.32 0 0 1 2.58-.38A3 3 0 0 1 33.07 14l4.79 8.75a10 10 0 0 1-1.72 11.61 9.17 9.17 0 0 1-6.61 3.14zM12.35 27a1.69 1.69 0 0 0 .89 2l13.12 6.19A7.38 7.38 0 0 0 35 33.36a8.44 8.44 0 0 0 1.49-9.76l-4.8-8.75a1.48 1.48 0 0 0-.94-.71 1.75 1.75 0 0 0-1.36.2 1.69 1.69 0 0 0-.79 1.32.78.78 0 0 1-1.38.45 1.68 1.68 0 0 0-3 1 .78.78 0 0 1-1.38.45 1.69 1.69 0 0 0-2.17-.35 1.67 1.67 0 0 0-.67 1.08.78.78 0 0 1-1.43.25l-3.46-5.6a1.69 1.69 0 0 0-2.32-.55 1.69 1.69 0 0 0-.55 2.32l7.53 12a.78.78 0 0 1-1 1.12l-2.48-1.12a5.69 5.69 0 0 0-3.94.29zm0-15.32z"/><path class="cls-1" d="M10.94 20.89a.79.79 0 0 1-.26 0 7.94 7.94 0 1 1 10.5-8.7.78.78 0 1 1-1.55.24 6.38 6.38 0 1 0-8.43 7 .78.78 0 0 1-.26 1.46z"/><path class="cls-1" d="M8.06 25.47a.78.78 0 0 1-.33-.07A13.31 13.31 0 1 1 26.18 9.91a.78.78 0 0 1-1.51.4A11.75 11.75 0 1 0 8.38 24a.78.78 0 0 1-.32 1.5z"/></svg>