<svg id="Calque_1" data-name="Calque 1" xmlns="http://www.w3.org/2000/svg" viewBox="0 0 40.15 37.5"><defs><style>.cls-1{fill:#111b43}</style></defs><title>cloud-based-workforce</title><path class="cls-1" d="M20.09 37.5a.81.81 0 0 1-.81-.81v-23l-6.21 6.26a.81.81 0 0 1-1.14-1.13l7.59-7.65a.83.83 0 0 1 1.14 0l7.59 7.65a.81.81 0 1 1-1.14 1.13l-6.21-6.29v23a.81.81 0 0 1-.78.84zm10.66-11.79h-4.4a.81.81 0 0 1 0-1.61h4.4a7.82 7.82 0 1 0-1.59-15.48.8.8 0 0 1-.91-.5A10.22 10.22 0 0 0 8.5 11.83V12a.81.81 0 0 1-.81.81h-.42a5.66 5.66 0 0 0 0 11.32h5.91a.81.81 0 1 1 .18 1.61H7.27a7.27 7.27 0 0 1-.36-14.53 11.83 11.83 0 0 1 22.58-4.28 9.55 9.55 0 0 1 1.25-.08 9.43 9.43 0 0 1 0 18.86z" transform="translate(-.02)"/></svg>