<svg id="Calque_1" data-name="Calque 1" xmlns="http://www.w3.org/2000/svg" viewBox="0 0 37.31 37.59"><defs><style>.cls-1{fill:#111b43}</style></defs><title>integrated-platform</title><path class="cls-1" d="M21.62 26.91h-18a.75.75 0 0 1-.75-.75V14.72a.75.75 0 0 1 .75-.72h18a.75.75 0 0 1 .75.75v11.41a.75.75 0 0 1-.75.75zM4.33 25.42h16.55v-10H4.33z" transform="translate(.1)"/><path class="cls-1" d="M36.21 18.15h-14a.75.75 0 0 1 0-1.49h13.28V1.49H10.93V14a.75.75 0 0 1-1.49 0V.72a.75.75 0 0 1 .77-.72h26a.75.75 0 0 1 .79.75V17.4a.75.75 0 0 1-.79.75z" transform="translate(.1)"/><path class="cls-1" d="M23.53 22.11a.75.75 0 0 1-.75-.75v-3.69a.75.75 0 1 1 1.49 0v3.69a.75.75 0 0 1-.74.75z" transform="translate(.1)"/><path class="cls-1" d="M29.65 22.72h-7.56a.75.75 0 1 1-.17-1.49h7.73a.75.75 0 0 1 .8.74.8.8 0 0 1-.8.8zM35.67 37.59h-5.9a1.54 1.54 0 0 1-1.56-1.52V25.72a1.54 1.54 0 0 1 1.54-1.54h5.9a1.54 1.54 0 0 1 1.56 1.52V36a1.54 1.54 0 0 1-1.51 1.57zm-5.9-11.87V36h5.9V25.72h-5.9z" transform="translate(.1)"/><path class="cls-1" d="M25.21 22.12a.75.75 0 0 1-.75-.75v-3.65a.75.75 0 0 1 1.49 0v3.69a.75.75 0 0 1-.74.71zM24.46 30.52H.74A.75.75 0 1 1 .57 29h23.89a.75.75 0 0 1 .17 1.49z" transform="translate(.1)"/></svg>