<svg id="Layer_1" data-name="Layer 1" xmlns="http://www.w3.org/2000/svg" viewBox="0 0 123.16 133"><defs><style>.cls-1{fill:#121b42}</style></defs><title>icon-mobile-operations</title><path class="cls-1" d="M108.27 107.25V83.7L92.42 90l6.87 17.23zm-42.77-6.5l2.59 6.5H93l-6-15.06zM23.85 122h97.3a2.26 2.26 0 0 0 2.26-2.26V57a2.26 2.26 0 0 0-2.26-2.26H97.34c-.7 1.52-1.46 3-2.26 4.51h23.82v58.25H26.1V59.29h23.73c-.8-1.48-1.55-3-2.25-4.51H23.85A2.26 2.26 0 0 0 21.59 57v62.72a2.26 2.26 0 0 0 2.24 2.28m66.86-36.32l5.11-2h-5.92zm-58.48 26.08h80.57V79.13H81.4c-.68.82-1.32 1.57-1.91 2.26h31v28.11h-76V81.38h31c-.59-.68-1.24-1.44-1.92-2.26H32.21zm31.56-15.35l21.48-8.56-1.68-4.21H77.5c-1 1.07-1.6 1.74-1.75 1.89l-3.22 3.35-3.25-3.32c-.15-.16-.81-.83-1.8-1.92h-8.8zm-31.56-22h27.57c-2.14-2.79-4.42-6-6.58-9.4h-21zm99.61 53h-41.1a2.27 2.27 0 0 0-.76.13l-7.36 2.65H63.21l-6.38-2.61a2.26 2.26 0 0 0-.86-.17H13.18a2.26 2.26 0 0 0-2.26 2.26v4.13a11.2 11.2 0 0 0 11.2 11.2h100.77a11.18 11.18 0 0 0 11.19-11.16v-4.13a2.26 2.26 0 0 0-2.26-2.26m-2.26 6.38a6.67 6.67 0 0 1-6.67 6.65H22.13a6.68 6.68 0 0 1-6.7-6.65V132h40.1l6.38 2.61a2.24 2.24 0 0 0 .85.17H83a2.24 2.24 0 0 0 .76-.13l7.35-2.65h38.45zm-92.84-26.64l15.85-6.32L48 89.29l-11.28 1.35zM112.79 65H91.7c-2.16 3.43-4.44 6.61-6.57 9.4h27.65zM36.72 83.64v2.14l9.39-1.13-.4-1zm17.59 21.57l-5.12 2h5.93z" transform="translate(-10.92 -12)"/><path class="cls-1" d="M72.5 12a24.94 24.94 0 0 0-24.94 24.94c0 20 24.94 45.46 24.94 45.46s24.94-25.87 24.94-45.46A24.94 24.94 0 0 0 72.5 12m0 45.66a20.71 20.71 0 1 1 20.71-20.72A20.71 20.71 0 0 1 72.5 57.66" transform="translate(-10.92 -12)"/><path class="cls-1" d="M81.17 35.2h-.85v-4.5a7.83 7.83 0 0 0-7.7-7.84h-.11a7.84 7.84 0 0 0-7.84 7.84v4.5h-.84A2.79 2.79 0 0 0 61 37.95V46.31a2.79 2.79 0 0 0 2.79 2.79h17.38A2.79 2.79 0 0 0 84 46.35V38a2.79 2.79 0 0 0-2.79-2.79M67 30.7a5.55 5.55 0 0 1 5.44-5.55h.09A5.54 5.54 0 0 1 78 30.7v4.5H67zm7.44 10.51a1.88 1.88 0 0 1-.76 1.49v2a1.15 1.15 0 1 1-2.29 0v-2a1.87 1.87 0 0 1-.76-1.49v-.86a1.91 1.91 0 1 1 3.81 0z" transform="translate(-10.92 -12)"/></svg>