<svg id="Layer_1" data-name="Layer 1" xmlns="http://www.w3.org/2000/svg" viewBox="0 0 143 120.08"><defs><style>.cls-1{fill:#121b42}</style></defs><title>icon-guarding-operations</title><path class="cls-1" d="M72.43 75.77a25.64 25.64 0 1 0 44.2-17.69 2.51 2.51 0 0 0-.67-.7 25.64 25.64 0 0 0-43.53 18.39m25.64-20.59A20.47 20.47 0 0 1 112.44 61l.16.17a20.6 20.6 0 1 1-14.49-6m-2 61.07a2 2 0 1 0 2-2 2 2 0 0 0-2 2M63.66 56.1a2 2 0 1 0-2 2 2 2 0 0 0 2-2m72.68 0a2 2 0 1 0-2 2 2 2 0 0 0 2-2M100 38.15a2 2 0 1 0-2 2 2 2 0 0 0 2-2m-8.51 31.68c.18.73.68 1.24 1.12 1.15a14.07 14.07 0 0 0 1.18 2.87A6.76 6.76 0 0 0 98 76.16a7.07 7.07 0 0 0 4.32-2.31 14.88 14.88 0 0 0 1.24-2.85c.44.08 1-.43 1.11-1.15s0-1.38-.45-1.53a8.09 8.09 0 0 0 .08-.93 7.36 7.36 0 0 0-.91-4.81c-1.39-2-4.15-2.28-5.45-2.21a3.24 3.24 0 0 1 1.28-.21 5 5 0 0 0-4.54 1.18 2.83 2.83 0 0 0-2.23 1.15 2.63 2.63 0 0 1 .85-.53 3.65 3.65 0 0 0-1.68 2.32 11.53 11.53 0 0 0 .27 4c-.4.16-.6.82-.43 1.52m6.62 18.53l1.8-2.61-1.18-4.4.83-1.28-1.46-1.39-1.48 1.4.83 1.28-1.18 4.4zm0 5.2a19 19 0 0 0 14.86-7.17c-.46-2.4-1-3.94-1.7-4.53s-2.81-2.08-8.83-5.17l-1.36 9.24-3 4.26-3-4.26-1.35-9.19c-5.92 3-8 4.46-8.8 5.15s-1.25 2-1.73 4.5a19 19 0 0 0 14.9 7.22m45.77-42.4l.16-2.11-2.07-.44C118 43.52 100 25.47 99.78 25.25L98 23.49l-1.73 1.76c-.18.18-18.16 18.21-42.13 23.34l-2 .47.07 2.1v.64c0 2.27.06 5 .3 8.06l4.88.09c-.22-2.6-.3-4.93-.32-7C77.46 48 93 35 98.07 30.35 103.13 35 118.68 48 139 52.94c-.11 16-4.62 52.1-40.93 68.91C75.22 111.27 65 93.06 60.48 77l-5.07-.1c4.59 17.69 15.71 38.25 41.67 49.84l1 .44 1-.44c40.7-18.16 44.89-58.45 44.8-74.94v-.62" transform="translate(-1.01 -23.49)"/><path class="cls-1" d="M64.7 63.12l-14.45-.27-11.46-4.93a5.46 5.46 0 0 0-1.18-.35l-6.76-1.21L28.79 69 24 75.72 19.3 69l-2-12.57-6.76 1.2a5.46 5.46 0 0 0-4.31 3.94L1.5 78.25a5.5 5.5 0 0 0-.21 1.37L1 95.14a5.47 5.47 0 0 0 5.37 5.57h.1a5.47 5.47 0 0 0 5.46-5.36l.27-14.79L13.83 75a8.41 8.41 0 0 1 1.49 4.93L15 95.41a8.48 8.48 0 0 1-4.88 7.51v34.94a5.47 5.47 0 0 0 10.94.46V105a3 3 0 1 1 6 0v32.84a5.47 5.47 0 0 0 10.94 0V88.35l1.4-18.24 7.54 3.21a5.46 5.46 0 0 0 2 .43l15.55.25a5.47 5.47 0 0 0 .62-10.93h-.41m-40.63 10l2.57-3.88-1.26-10.26 1-2.18-.77-.75a11.89 11.89 0 0 1-1.53.16 11.83 11.83 0 0 1-1.5-.16l-.86.76 1 2.18-1.24 10.31zm0-19.22a9.71 9.71 0 1 0-9.71-9.71 9.71 9.71 0 0 0 9.71 9.71" transform="translate(-1.01 -23.49)"/></svg>