<svg id="Calque_1" data-name="Calque 1" xmlns="http://www.w3.org/2000/svg" viewBox="0 0 39.59 35.01"><defs><style>.cls-1{fill:#111b43}</style></defs><title>customer-sucess-team</title><path class="cls-1" d="M29.29 35H10.21a.79.79 0 0 1-.27 0l-3-.29a.79.79 0 0 1-.7-.61 12.11 12.11 0 0 1 0-5.45.79.79 0 0 1 .65-.65l2.72-.26a10.77 10.77 0 0 1 .43-1L8.3 24.59a.79.79 0 0 1-.06-.92 12.1 12.1 0 0 1 3.86-3.86.79.79 0 0 1 .92.06l2.11 1.74a10.82 10.82 0 0 1 1-.43l.26-2.72a.79.79 0 0 1 .61-.7 12.16 12.16 0 0 1 5.46 0 .79.79 0 0 1 .61.7l.26 2.72a10.85 10.85 0 0 1 1 .43l2.11-1.74a.79.79 0 0 1 .92-.06 12.09 12.09 0 0 1 3.86 3.86.79.79 0 0 1-.06.92l-1.7 2.11a10.73 10.73 0 0 1 .43 1l2.72.3a.79.79 0 0 1 .7.61 12.1 12.1 0 0 1 0 5.45.79.79 0 0 1-.7.61l-3.06.33a.74.74 0 0 1-.26 0zm-18.88-1.58h18.82l2.66-.25a10.51 10.51 0 0 0 0-3.63l-2.66-.25a.79.79 0 0 1-.68-.56 9.14 9.14 0 0 0-.73-1.73.79.79 0 0 1 .09-.88l1.7-2.12A10.52 10.52 0 0 0 27 21.43l-2 1.7a.79.79 0 0 1-.88.09 9.15 9.15 0 0 0-1.73-.72.79.79 0 0 1-.56-.68l-.24-2.62a10.53 10.53 0 0 0-3.63 0l-.25 2.66a.79.79 0 0 1-.56.68 9.13 9.13 0 0 0-1.73.72.79.79 0 0 1-.88-.09l-2.06-1.7A10.51 10.51 0 0 0 9.89 24l1.7 2.06a.79.79 0 0 1 .09.88 9.16 9.16 0 0 0-.68 1.73.79.79 0 0 1-.68.56l-2.65.25a10.52 10.52 0 0 0 0 3.63l2.66.25zm6.49-11.64z" transform="translate(.05)"/><path class="cls-1" d="M24.15 35h-8.8a.79.79 0 0 1-.66-.36 6 6 0 1 1 10.12 0 .79.79 0 0 1-.66.36zm-8.35-1.58h7.89a4.47 4.47 0 1 0-7.89 0z" transform="translate(.05)"/><path class="cls-1" d="M38.75 35h-38a.79.79 0 0 1-.75-.79V.79A.79.79 0 0 1 .75 0h38a.79.79 0 0 1 .79.79v33.42a.79.79 0 0 1-.79.79zM1.58 33.42h36.34V1.58H1.58z" transform="translate(.05)"/><path class="cls-1" d="M38.75 9.49h-38a.8.8 0 0 1 0-1.59h38a.8.8 0 1 1 0 1.59zM33.93 6.54a1.64 1.64 0 1 1 1.64-1.64 1.64 1.64 0 0 1-1.64 1.64zm0-1.69v.05c0 .06.11.06.11 0a.05.05 0 0 0 0-.06zM28.52 6.54a1.64 1.64 0 1 1 1.64-1.64 1.64 1.64 0 0 1-1.64 1.64zm0-1.69v.05c0 .06.11.06.11 0a.06.06 0 0 0-.06-.06z" transform="translate(.05)"/></svg>