<?xml version="1.0" encoding="utf-8"?>
<!-- Generator: Adobe Illustrator 18.0.0, SVG Export Plug-In . SVG Version: 6.00 Build 0)  -->
<!DOCTYPE svg PUBLIC "-//W3C//DTD SVG 1.1//EN" "http://www.w3.org/Graphics/SVG/1.1/DTD/svg11.dtd">
<svg version="1.1" id="Calque_1" xmlns="http://www.w3.org/2000/svg" xmlns:xlink="http://www.w3.org/1999/xlink" x="0px" y="0px"
	 width="40px" height="40px" viewBox="0 0 40 40" enable-background="new 0 0 40 40" xml:space="preserve">
<g>
	<path fill="#C22126" d="M23.1,28.6H3.9c-0.4,0-0.8-0.4-0.8-0.8V15.6c0-0.4,0.4-0.8,0.8-0.8h19.2c0.4,0,0.8,0.4,0.8,0.8v12.2
		C23.9,28.3,23.6,28.6,23.1,28.6z M4.7,27h17.6V16.4H4.7V27z"/>
	<path fill="#C22126" d="M38.7,19.3H23.8c-0.4,0-0.8-0.4-0.8-0.8c0-0.4,0.4-0.8,0.8-0.8h14.1V1.6H11.7v13.3c0,0.4-0.4,0.8-0.8,0.8
		c-0.4,0-0.8-0.4-0.8-0.8V0.8c0-0.4,0.4-0.8,0.8-0.8h27.7c0.4,0,0.8,0.4,0.8,0.8v17.7C39.5,19,39.1,19.3,38.7,19.3z"/>
	<path fill="#C22126" d="M25.1,23.5c-0.4,0-0.8-0.4-0.8-0.8v-3.9c0-0.4,0.4-0.8,0.8-0.8s0.8,0.4,0.8,0.8v3.9
		C25.9,23.2,25.6,23.5,25.1,23.5z"/>
	<path fill="#C22126" d="M31.7,24.2h-8c-0.4,0-0.8-0.4-0.8-0.8c0-0.4,0.4-0.8,0.8-0.8h8c0.4,0,0.8,0.4,0.8,0.8
		C32.5,23.8,32.1,24.2,31.7,24.2z"/>
	<path fill="#C22126" d="M38.1,40h-6.3c-0.9,0-1.6-0.7-1.6-1.6v-11c0-0.9,0.7-1.6,1.6-1.6h6.3c0.9,0,1.6,0.7,1.6,1.6v11
		C39.7,39.3,39,40,38.1,40z M31.8,27.3C31.8,27.3,31.7,27.4,31.8,27.3l-0.1,11c0,0,0,0.1,0.1,0.1h6.3c0,0,0.1,0,0.1-0.1v-11
		c0,0,0-0.1-0.1-0.1H31.8z"/>
	<path fill="#C22126" d="M27,23.5c-0.4,0-0.8-0.4-0.8-0.8v-3.9c0-0.4,0.4-0.8,0.8-0.8c0.4,0,0.8,0.4,0.8,0.8v3.9
		C27.7,23.2,27.4,23.5,27,23.5z"/>
	<path fill="#C22126" d="M26.1,32.5H0.9c-0.4,0-0.8-0.4-0.8-0.8c0-0.4,0.4-0.8,0.8-0.8h25.2c0.4,0,0.8,0.4,0.8,0.8
		C26.9,32.1,26.6,32.5,26.1,32.5z"/>
</g>
</svg>
