<?xml version="1.0" encoding="utf-8"?>
<!-- Generator: Adobe Illustrator 18.0.0, SVG Export Plug-In . SVG Version: 6.00 Build 0)  -->
<!DOCTYPE svg PUBLIC "-//W3C//DTD SVG 1.1//EN" "http://www.w3.org/Graphics/SVG/1.1/DTD/svg11.dtd">
<svg version="1.1" id="Calque_1" xmlns="http://www.w3.org/2000/svg" xmlns:xlink="http://www.w3.org/1999/xlink" x="0px" y="0px"
	 width="40px" height="40px" viewBox="0 0 40 40" enable-background="new 0 0 40 40" xml:space="preserve">
<g>
	<path fill="#C22126" d="M10.1,18c-0.2,0-0.3,0.1-0.3,0.3v4.3c0,0.2,0.1,0.3,0.3,0.3h3.7c0.2,0,0.3-0.1,0.3-0.3v-4.3
		c0-0.2-0.1-0.3-0.3-0.3H10.1z M13.5,22.4h-3.1v-3.7h3.1V22.4z M18.9,17.2L18.9,17.2l0-0.6H5.1c-0.2,0-0.3,0.1-0.3,0.3
		c0,0.2,0.1,0.3,0.3,0.3L18.9,17.2C18.9,17.2,18.9,17.2,18.9,17.2 M12,8.8H5.1v6.9H12V8.8z M8.6,9.5c0.6,0,1.1,0.5,1.1,1.1
		c0,0.6-0.5,1.1-1.1,1.1c-0.6,0-1.1-0.5-1.1-1.1C7.5,10,8,9.5,8.6,9.5 M11.1,15h-1v-0.4c0-0.4-0.2-0.8-0.4-1.1V15H7.5v-1.5
		C7.2,13.8,7,14.2,7,14.6V15h-1v-0.4c0-1.4,1.1-2.5,2.5-2.5c1.4,0,2.5,1.1,2.5,2.5V15z M5.1,18c-0.2,0-0.3,0.1-0.3,0.3v4.3
		C4.8,22.8,5,23,5.1,23h3.7c0.2,0,0.3-0.1,0.3-0.3v-4.3C9.2,18.2,9,18,8.9,18H5.1z M8.6,22.4H5.5v-3.7h3.1V22.4z M30.2,6.5H3.5
		c-0.3,0-0.6,0.3-0.6,0.6v17.2c0,0.3,0.3,0.6,0.6,0.6h16.7c-0.2-0.4-0.3-0.8-0.4-1.2H4.2V7.8h25.4v2l0.5-0.5l0.7,0.7V7.2
		C30.8,6.8,30.5,6.5,30.2,6.5 M23.2,30H3.1c-1,0-1.8-0.8-1.8-1.8v-0.5h11l1.7,0.7c0.1,0,0.2,0,0.2,0h5.5c0.1,0,0.1,0,0.2,0l1.7-0.6
		c-0.2-0.4-0.4-0.7-0.6-1.1l-1.4,0.5h-5.3l-1.7-0.7c-0.1,0-0.2,0-0.2,0H0.6C0.3,26.4,0,26.7,0,27v1.1c0,1.7,1.4,3.1,3.1,3.1h21.3
		C24,30.8,23.6,30.4,23.2,30 M15,23h3.7c0.2,0,0.3-0.1,0.3-0.3v-3c-0.1-0.6-0.1-1.1-0.1-1.6c-0.1,0-0.1-0.1-0.2-0.1H15
		c-0.2,0-0.3,0.1-0.3,0.3v4.3C14.7,22.8,14.8,23,15,23 M15.3,18.6h3.1v3.7h-3.1V18.6z M13.8,13.2c0,0.2,0.1,0.3,0.3,0.3h10.7
		c0.4-0.2,0.7-0.4,1-0.6H14.1C14,12.9,13.8,13,13.8,13.2 M20.4,15.2c0.6-0.1,1.2-0.3,1.8-0.5h-8c-0.2,0-0.3,0.1-0.3,0.3
		c0,0.2,0.1,0.3,0.3,0.3h5.8L20.4,15.2z M27.5,9.2H14.1c-0.2,0-0.3,0.1-0.3,0.3c0,0.2,0.1,0.3,0.3,0.3h13.4c0.2,0,0.3-0.1,0.3-0.3
		C27.8,9.3,27.7,9.2,27.5,9.2 M27.5,11H14.1c-0.2,0-0.3,0.1-0.3,0.3c0,0.2,0.1,0.3,0.3,0.3h13.4c0,0,0,0,0,0
		c0.1-0.1,0.2-0.2,0.3-0.2c0,0,0-0.1,0-0.1C27.8,11.2,27.7,11,27.5,11"/>
	<path fill="#C22126" d="M40,16.5l-0.5-0.1c-5.1-1.1-8.9-4.9-9-5L30.1,11l-0.4,0.4c0,0-3.9,3.9-9,5l-0.5,0.1l0,0.5l0,0.1
		c0,3.5,0.9,12.2,9.7,16.1l0.3,0.1l0.3-0.1c8.8-3.9,9.7-12.6,9.7-16.1l0-0.1L40,16.5z M30.1,32.1c-7.6-3.6-8.6-11.1-8.7-14.6
		c4.3-1.1,7.5-3.7,8.7-4.8c1.1,1,4.4,3.7,8.7,4.8C38.7,21,37.7,28.5,30.1,32.1 M30.1,30.6c-0.2,0-0.4,0.2-0.4,0.4
		c0,0.2,0.2,0.4,0.4,0.4s0.4-0.2,0.4-0.4C30.5,30.8,30.3,30.6,30.1,30.6 M37.8,18.5c0.2,0,0.4-0.2,0.4-0.4s-0.2-0.4-0.4-0.4
		c-0.2,0-0.4,0.2-0.4,0.4S37.6,18.5,37.8,18.5 M22.3,17.7c-0.2,0-0.4,0.2-0.4,0.4s0.2,0.4,0.4,0.4c0.2,0,0.4-0.2,0.4-0.4
		S22.5,17.7,22.3,17.7 M29.6,14.3c0,0.2,0.2,0.4,0.4,0.4s0.4-0.2,0.4-0.4c0-0.2-0.2-0.4-0.4-0.4S29.6,14,29.6,14.3 M26.2,18.5
		c-1,1-1.6,2.4-1.6,3.9c0,1.5,0.6,2.8,1.6,3.9c1,1,2.4,1.6,3.9,1.6c1.5,0,2.9-0.6,3.9-1.6c1-1,1.6-2.4,1.6-3.9
		c0-0.6-0.1-1.1-0.3-1.7l-0.9,0.9c0,0.3,0.1,0.5,0.1,0.8c0,1.2-0.5,2.3-1.3,3.1c-0.8,0.8-1.9,1.3-3.1,1.3c-1.2,0-2.3-0.5-3.1-1.3
		c-0.8-0.8-1.3-1.9-1.3-3.1c0-1.2,0.5-2.3,1.3-3.1c0.8-0.8,1.9-1.3,3.1-1.3c1.2,0,2.2,0.4,3.1,1.2c0,0,0,0,0,0c0,0,0,0,0,0l0.8-0.8
		c0,0,0-0.1-0.1-0.1c-1-1-2.4-1.5-3.8-1.5C28.6,16.8,27.2,17.4,26.2,18.5 M28.2,21.5c-0.2-0.2-0.6-0.2-0.9,0c-0.2,0.2-0.2,0.6,0,0.9
		L30,25l5.9-5.9c0.2-0.2,0.2-0.6,0-0.9c-0.2-0.2-0.6-0.2-0.9,0l-5,5L28.2,21.5z"/>
</g>
</svg>
