<?xml version="1.0" encoding="utf-8"?>
<!-- Generator: Adobe Illustrator 18.0.0, SVG Export Plug-In . SVG Version: 6.00 Build 0)  -->
<!DOCTYPE svg PUBLIC "-//W3C//DTD SVG 1.1//EN" "http://www.w3.org/Graphics/SVG/1.1/DTD/svg11.dtd">
<svg version="1.1" id="Calque_1" xmlns="http://www.w3.org/2000/svg" xmlns:xlink="http://www.w3.org/1999/xlink" x="0px" y="0px"
	 width="40px" height="40px" viewBox="0 0 40 40" enable-background="new 0 0 40 40" xml:space="preserve">
<g id="Layer_2">
	<g id="Layer_2-2">
		<path fill="#C22126" d="M22.6,16.6c0.9-0.7,1.4-1.7,1.6-2.8c0.4-0.3,0.5-0.8,0.2-1.2c-0.1-0.1-0.2-0.2-0.3-0.3
			c-0.1-0.5-0.3-1-0.6-1.4L23.8,9c0-0.3-0.2-0.6-0.5-0.6l-0.3,0c-0.7-0.1-1.4-0.5-1.9-1c-0.7-0.7-1.8-0.7-2.5,0c0,0,0,0,0,0
			c-0.5,0.5-1.2,0.9-1.9,1l-0.3,0c-0.3,0-0.5,0.3-0.5,0.6l0.4,1.9c-0.3,0.4-0.5,0.9-0.6,1.4c-0.4,0.2-0.6,0.8-0.3,1.2
			c0.1,0.1,0.2,0.2,0.3,0.3c0.1,1.1,0.7,2.1,1.6,2.8c-2.9,0.7-4.9,3.3-4.9,6.3v2.8c0,0.9,0.7,1.6,1.6,1.6h11.7
			c0.9,0,1.7-0.7,1.7-1.6c0,0,0,0,0-0.1v-2.8C27.5,19.9,25.5,17.3,22.6,16.6z M19.5,8.1c0.3-0.3,0.7-0.3,1,0c0,0,0,0,0,0
			c0.6,0.6,1.4,1.1,2.2,1.3l-0.2,1.1c-1.7-0.3-3.3-0.3-5,0l-0.2-1.1C18.2,9.2,18.9,8.8,19.5,8.1L19.5,8.1z M21.9,11.5
			c-1.1,0.8-2.6,0.8-3.7,0C19.4,11.4,20.6,11.4,21.9,11.5z M16.8,13.2c0-0.4,0.1-0.8,0.2-1.2c1.6,1.6,4.2,1.6,5.9,0
			c0.7,1.6-0.1,3.5-1.7,4.1c-1.6,0.7-3.5-0.1-4.1-1.7C16.9,14.1,16.9,13.7,16.8,13.2L16.8,13.2z M26.4,25.7c0,0.3-0.2,0.5-0.5,0.5
			H14.1c-0.3,0-0.5-0.2-0.5-0.5v-2.8c0-2.8,2.2-5.2,5-5.4c0,0.2,0.1,0.3,0.2,0.4l0.6,0.6c0,0,0,0.1,0,0.1c0,0,0,0.1,0,0.3
			s0,0.5,0,0.8c0,0.2,0,0.3,0,0.5c0,0.2,0,0.4,0,0.6c0,0.4,0,0.9,0,1.3c0,0.2,0,0.5,0,0.7l0,0.6l0,0.6c0,0.2,0,0.4,0.1,0.5
			c0,0.2,0.1,0.3,0.1,0.5c0,0.1,0.1,0.2,0.2,0.4l0.1,0.1l0.1,0.1l0.1,0.1l0.1-0.1l0.1-0.1l0.1-0.1c0.1-0.1,0.1-0.2,0.2-0.4
			c0-0.1,0.1-0.3,0.1-0.5c0-0.2,0.1-0.4,0.1-0.5l0-0.6l0-0.6c0-0.2,0-0.4,0-0.7c0-0.5,0-0.9,0-1.3c0-0.2,0-0.4,0-0.6
			c0-0.2,0-0.4,0-0.5c0-0.3,0-0.6,0-0.8c0-0.2,0-0.3,0-0.3c0,0,0-0.1,0-0.1l0.6-0.7c0.1-0.1,0.2-0.3,0.2-0.4c2.8,0.2,5,2.5,5,5.4
			L26.4,25.7L26.4,25.7z"/>
		<circle fill="#C22126" cx="20" cy="9.3" r="0.6"/>
		<path fill="#C22126" d="M20,40c-0.1,0-0.1,0-0.2,0C19.6,39.9,3,33.5,3,14.5V0.6C3,0.3,3.3,0,3.6,0h32.7C36.7,0,37,0.2,37,0.6
			c0,0,0,0,0,0v13.9c0,19-16.6,25.4-16.8,25.5C20.2,40,20.1,40,20,40z M4.2,1.2v13.3c0,17,13.9,23.4,15.8,24.2
			c1.9-0.8,15.8-7.3,15.8-24.3V1.2H4.2z"/>
	</g>
</g>
</svg>
