<?xml version="1.0" encoding="utf-8"?>
<!-- Generator: Adobe Illustrator 18.0.0, SVG Export Plug-In . SVG Version: 6.00 Build 0)  -->
<!DOCTYPE svg PUBLIC "-//W3C//DTD SVG 1.1//EN" "http://www.w3.org/Graphics/SVG/1.1/DTD/svg11.dtd">
<svg version="1.1" id="Layer_1" xmlns="http://www.w3.org/2000/svg" xmlns:xlink="http://www.w3.org/1999/xlink" x="0px" y="0px"
	 width="40px" height="40px" viewBox="0 0 40 40" enable-background="new 0 0 40 40" xml:space="preserve">
<g id="Layer_2">
	<g id="Layer_2-2">
		<path fill="#C22126" d="M40,7.3v20c0,1.8-1.5,3.3-3.3,3.3H21.3v2.7h7.3c0.4,0,0.7,0.3,0.7,0.6c0,0,0,0,0,0.1v1.3
			c0,0.4-0.3,0.7-0.6,0.7c0,0,0,0-0.1,0H11.4c-0.4,0-0.6-0.3-0.7-0.6c0,0,0,0,0,0V34c0-0.4,0.3-0.7,0.6-0.7c0,0,0,0,0.1,0h7.3v-2.7
			H3.3c-0.9,0-1.7-0.3-2.4-1c-0.6-0.6-1-1.5-0.9-2.4v-20C0,6.4,0.4,5.6,1,5c0.6-0.6,1.4-1,2.3-1h33.4c0.9,0,1.7,0.3,2.4,1
			C39.6,5.6,40,6.4,40,7.3z M37.3,27.3v-20c0-0.4-0.3-0.7-0.7-0.7H3.3c-0.4,0-0.6,0.3-0.6,0.7v20C2.7,27.7,3,28,3.3,28h33.3
			C37,28,37.3,27.7,37.3,27.3z"/>
	</g>
</g>
</svg>
