<?xml version="1.0" encoding="utf-8"?>
<!-- Generator: Adobe Illustrator 18.0.0, SVG Export Plug-In . SVG Version: 6.00 Build 0)  -->
<!DOCTYPE svg PUBLIC "-//W3C//DTD SVG 1.1//EN" "http://www.w3.org/Graphics/SVG/1.1/DTD/svg11.dtd">
<svg version="1.1" id="Calque_1" xmlns="http://www.w3.org/2000/svg" xmlns:xlink="http://www.w3.org/1999/xlink" x="0px" y="0px"
	 width="40px" height="40px" viewBox="0 0 40 40" enable-background="new 0 0 40 40" xml:space="preserve">
<g>
	<path fill="#FFFFFF" d="M31.7,35h-7.3c-0.6,0-1.1-0.5-1.1-1.1v-7.3c0-0.6,0.5-1.1,1.1-1.1h7.3c0.6,0,1.1,0.5,1.1,1.1v7.3
		C32.8,34.5,32.3,35,31.7,35 M24.4,25.8c-0.4,0-0.7,0.3-0.7,0.7v7.3c0,0.4,0.3,0.7,0.7,0.7h7.3c0.4,0,0.7-0.3,0.7-0.7v-7.3
		c0-0.4-0.3-0.7-0.7-0.7H24.4z"/>
	<path fill="#FFFFFF" d="M31.7,35.2h-7.3c-0.7,0-1.3-0.6-1.3-1.3v-7.3c0-0.7,0.6-1.3,1.3-1.3h7.3c0.7,0,1.3,0.6,1.3,1.3v7.3
		C33,34.6,32.4,35.2,31.7,35.2z M24.4,25.6c-0.5,0-1,0.4-1,1v7.3c0,0.5,0.4,1,1,1h7.3c0.5,0,1-0.4,1-1v-7.3c0-0.5-0.4-1-1-1H24.4z
		 M31.7,34.7h-7.3c-0.5,0-0.9-0.4-0.9-0.9v-7.3c0-0.5,0.4-0.9,0.9-0.9h7.3c0.5,0,0.9,0.4,0.9,0.9v7.3C32.5,34.3,32.1,34.7,31.7,34.7
		z M24.4,26c-0.3,0-0.5,0.2-0.5,0.5v7.3c0,0.3,0.2,0.5,0.5,0.5h7.3c0.3,0,0.5-0.2,0.5-0.5v-7.3c0-0.3-0.2-0.5-0.5-0.5H24.4z"/>
	<path fill="#FFFFFF" d="M28.2,32.7h-0.5c-0.4,0-0.7-0.3-0.7-0.7v-1.4c-0.7-0.5-0.9-1.5-0.4-2.2c0.5-0.7,1.5-0.9,2.2-0.4
		c0.7,0.5,0.9,1.5,0.4,2.2c-0.1,0.2-0.2,0.3-0.4,0.4V32C28.9,32.4,28.6,32.7,28.2,32.7 M28,28.1c-0.6,0-1.1,0.5-1.1,1.1
		c0,0.4,0.2,0.8,0.6,1l0.1,0.1V32c0,0.1,0.1,0.2,0.2,0.2h0.5c0.1,0,0.2-0.1,0.2-0.2v-1.7l0.1-0.1c0.6-0.3,0.7-1,0.4-1.6
		C28.8,28.3,28.4,28.1,28,28.1"/>
	<path fill="#FFFFFF" d="M28.2,32.9h-0.5c-0.5,0-0.9-0.4-0.9-0.9v-1.3c-0.3-0.3-0.6-0.7-0.7-1.1c-0.1-0.5,0-0.9,0.3-1.3
		c0.3-0.5,0.9-0.8,1.5-0.8c0.4,0,0.7,0.1,1,0.3c0.4,0.3,0.7,0.7,0.7,1.1c0.1,0.5,0,0.9-0.3,1.3c-0.1,0.1-0.2,0.3-0.4,0.4V32
		C29.1,32.5,28.7,32.9,28.2,32.9z M28,27.8c-0.5,0-0.9,0.2-1.2,0.6c-0.2,0.3-0.3,0.7-0.2,1.1c0.1,0.4,0.3,0.7,0.6,0.9l0.1,0.1V32
		c0,0.3,0.2,0.5,0.5,0.5h0.5c0.3,0,0.5-0.2,0.5-0.5v-1.5l0.1-0.1c0.1-0.1,0.3-0.2,0.4-0.4c0.2-0.3,0.3-0.7,0.2-1.1s-0.3-0.7-0.6-0.9
		C28.6,27.9,28.3,27.8,28,27.8z M28.2,32.4h-0.5c-0.2,0-0.4-0.2-0.4-0.4v-1.6l0,0c-0.4-0.2-0.7-0.7-0.7-1.1c0-0.7,0.6-1.3,1.3-1.3h0
		c0.5,0,0.9,0.3,1.2,0.7c0.4,0.6,0.1,1.4-0.5,1.8l0,0V32C28.7,32.2,28.5,32.4,28.2,32.4z M28,28.3c-0.5,0-1,0.4-1,1
		c0,0.3,0.2,0.7,0.5,0.8l0.2,0.1V32c0,0,0,0,0,0h0.5c0,0,0,0,0,0v-1.8l0.2-0.1c0.5-0.3,0.6-0.8,0.4-1.3C28.7,28.5,28.4,28.3,28,28.3
		L28,28.3z"/>
	<path fill="#FFFFFF" d="M31.4,25.8c-0.1,0-0.2-0.1-0.2-0.2v-2.3c0-1.1-0.9-2.1-2.1-2.1h-2.3c-1.1,0-2.1,0.9-2.1,2.1v2.3
		c0,0.1-0.1,0.2-0.2,0.2c-0.1,0-0.2-0.1-0.2-0.2v-2.3c0-1.4,1.1-2.5,2.5-2.5h2.3c1.4,0,2.5,1.1,2.5,2.5v2.3
		C31.7,25.7,31.6,25.8,31.4,25.8"/>
	<path fill="#FFFFFF" d="M31.4,26c-0.2,0-0.4-0.2-0.4-0.4v-2.3c0-1-0.8-1.9-1.9-1.9h-2.3c-1,0-1.9,0.8-1.9,1.9v2.3
		c0,0.2-0.2,0.4-0.4,0.4s-0.4-0.2-0.4-0.4v-2.3c0-1.5,1.2-2.7,2.7-2.7h2.3c1.5,0,2.7,1.2,2.7,2.7v2.3C31.9,25.8,31.7,26,31.4,26z
		 M26.9,21.1h2.3c1.2,0,2.2,1,2.2,2.2v2.3c0,0,0.1,0,0.1,0v-2.3c0-1.3-1-2.3-2.3-2.3L26.9,21.1c-1.3-0.1-2.3,1-2.3,2.2v2.3
		c0,0,0.1,0,0.1,0v-2.3C24.6,22.1,25.6,21.1,26.9,21.1z"/>
	<path fill="#FFFFFF" d="M40,19.9c0-5.3-4-9.6-9.1-9.6c-0.9,0-1.8,0.1-2.6,0.3c-2.1-3.5-5.9-5.7-10-5.8C12.6,4.9,7.8,9.1,6.8,14.8
		C3.1,15,0,18.4,0,22.4C0,26.4,3.3,30,7.1,30h11.6c0.3,0,0.5-0.2,0.5-0.5S19,29,18.8,29H7.1C3.9,29,1,25.9,1,22.4s2.8-6.6,6.1-6.6
		h0.1h0.4l0.1-0.4c0.7-5.4,5.2-9.4,10.7-9.5c3.9,0.1,7.4,2.2,9.3,5.6l0.2,0.4l0.4-0.1c0.9-0.3,1.8-0.4,2.7-0.4
		c4.5,0,8.1,3.9,8.1,8.6c0,2.3-0.8,4.4-2.2,6c0,0-0.1,0.1-0.1,0.3c0,0.3,0.2,0.5,0.5,0.5c0.2,0,0.3-0.1,0.4-0.2
		C39.1,24.6,40,22.3,40,19.9"/>
</g>
</svg>
