<?xml version="1.0" encoding="utf-8"?>
<!-- Generator: Adobe Illustrator 18.0.0, SVG Export Plug-In . SVG Version: 6.00 Build 0)  -->
<!DOCTYPE svg PUBLIC "-//W3C//DTD SVG 1.1//EN" "http://www.w3.org/Graphics/SVG/1.1/DTD/svg11.dtd">
<svg version="1.1" id="Calque_1" xmlns="http://www.w3.org/2000/svg" xmlns:xlink="http://www.w3.org/1999/xlink" x="0px" y="0px"
	 width="40px" height="40px" viewBox="0 0 40 40" enable-background="new 0 0 40 40" xml:space="preserve">
<path fill="#3C91CC" d="M20,38.6c-0.4,0-0.8-0.4-0.8-0.8V14.9L13,21.2c-0.3,0.3-0.8,0.3-1.1,0c-0.3-0.3-0.3-0.8,0-1.1l7.5-7.6
	c0.3-0.3,0.8-0.3,1.1,0l7.5,7.6c0.3,0.3,0.3,0.8,0,1.1c-0.3,0.3-0.8,0.3-1.1,0l-6.2-6.2v22.9C20.8,38.3,20.4,38.6,20,38.6z
	 M30.6,26.9h-4.4c-0.4,0-0.8-0.4-0.8-0.8c0-0.4,0.4-0.8,0.8-0.8h4.4c4.3,0,7.8-3.5,7.8-7.8c0-4.3-3.5-7.8-7.8-7.8
	c-0.5,0-1.1,0.1-1.6,0.2c-0.4,0.1-0.8-0.1-0.9-0.5C26.5,5.5,22.8,3,18.6,3C13,3,8.5,7.5,8.5,13.1l0,0.1c0,0.2-0.1,0.4-0.2,0.6
	c-0.2,0.2-0.4,0.2-0.6,0.2c-0.1,0-0.2,0-0.4,0c-3.1,0-5.6,2.5-5.6,5.6c0,3.1,2.5,5.6,5.6,5.6h5.9c0.4,0,0.8,0.4,0.8,0.8
	c0,0.4-0.4,0.8-0.8,0.8H7.2c-4,0-7.2-3.2-7.2-7.2c0-3.9,3-7,6.9-7.2C7.2,6.3,12.4,1.4,18.6,1.4c4.7,0,8.8,2.7,10.7,6.9
	c0.4-0.1,0.8-0.1,1.2-0.1c5.2,0,9.4,4.2,9.4,9.4C39.9,22.7,35.7,26.9,30.6,26.9z"/>
</svg>
