<?xml version="1.0" encoding="utf-8"?>
<!-- Generator: Adobe Illustrator 18.0.0, SVG Export Plug-In . SVG Version: 6.00 Build 0)  -->
<!DOCTYPE svg PUBLIC "-//W3C//DTD SVG 1.1//EN" "http://www.w3.org/Graphics/SVG/1.1/DTD/svg11.dtd">
<svg version="1.1" id="Calque_1" xmlns="http://www.w3.org/2000/svg" xmlns:xlink="http://www.w3.org/1999/xlink" x="0px" y="0px"
	 width="40px" height="40px" viewBox="0 0 40 40" enable-background="new 0 0 40 40" xml:space="preserve">
<g id="Layer_2">
	<g id="Layer_2-2">
		<path fill="#C22126" d="M33.3,13.3c0,1.9-0.3,3.4-0.9,4.7L23,38.2c-0.3,0.6-0.7,1-1.2,1.4c-1.1,0.7-2.4,0.7-3.5,0
			c-0.5-0.3-1-0.8-1.2-1.4L7.5,18c-0.6-1.2-0.9-2.8-0.9-4.7c-0.1-3.5,1.4-7,3.9-9.4C13,1.4,16.5-0.1,20,0c3.5-0.1,7,1.4,9.4,3.9
			C32,6.4,33.4,9.8,33.3,13.3z M24.7,18c1.3-1.2,2-2.9,2-4.7c0-1.8-0.7-3.5-1.9-4.7c-1.2-1.3-2.9-2-4.7-2c-1.8,0-3.5,0.7-4.7,2
			c-1.3,1.2-2,2.9-2,4.7c0,1.8,0.7,3.5,2,4.7c1.2,1.3,2.9,2,4.7,2C21.8,20,23.5,19.3,24.7,18L24.7,18z"/>
	</g>
</g>
</svg>
