<?xml version="1.0" encoding="utf-8"?>
<!-- Generator: Adobe Illustrator 18.0.0, SVG Export Plug-In . SVG Version: 6.00 Build 0)  -->
<!DOCTYPE svg PUBLIC "-//W3C//DTD SVG 1.1//EN" "http://www.w3.org/Graphics/SVG/1.1/DTD/svg11.dtd">
<svg version="1.1" id="Calque_1" xmlns="http://www.w3.org/2000/svg" xmlns:xlink="http://www.w3.org/1999/xlink" x="0px" y="0px"
	 width="40px" height="40px" viewBox="0 0 40 40" enable-background="new 0 0 40 40" xml:space="preserve">
<g>
	<path fill="#C22126" d="M30.2,40c-1.3,0-2.6-0.3-3.9-0.9l-13.4-6.3c-0.8-0.4-1.4-1-1.7-1.9c-0.3-0.8-0.3-1.7,0.1-2.5
		c0.1-0.1,0.2-0.3,0.3-0.3c0.9-0.5,2.3-0.9,3.6-0.9c0.6,0,1.4,0.1,2.1,0.4l0.1,0l-6.2-10.1c-1-1.6-0.5-3.6,1.1-4.6
		c0.5-0.3,1.1-0.5,1.7-0.5c1.2,0,2.2,0.6,2.8,1.6l2.8,4.5c0.2-0.3,0.5-0.5,0.8-0.7c1-0.6,2.3-0.6,3.2-0.1c0.3-0.5,0.7-1,1.2-1.3
		c1-0.6,2.3-0.6,3.2-0.1c0.3-0.5,0.7-1,1.2-1.3c0.5-0.3,1.1-0.5,1.8-0.5c1.2,0,2.3,0.6,2.8,1.6l4.9,9c1.7,3.1,1.6,6.8-0.3,9.9
		C36.7,38.1,33.5,40,30.2,40C30.2,40,30.2,40,30.2,40z M12.7,29.3c-0.1,0.4-0.1,0.7,0,1.1c0.2,0.4,0.5,0.8,0.9,1L27,37.7
		c1,0.5,2.1,0.7,3.2,0.7c2.7,0,5.4-1.6,6.9-4.3c1.6-2.7,1.7-5.8,0.3-8.4l-4.9-9c-0.3-0.5-0.8-0.8-1.4-0.8c-0.3,0-0.7,0.1-0.9,0.3
		c-0.5,0.3-0.8,0.8-0.8,1.3c0,0.3-0.2,0.6-0.6,0.7c-0.3,0.1-0.6,0-0.9-0.2c-0.3-0.4-0.8-0.6-1.3-0.6c-0.3,0-0.6,0.1-0.9,0.3
		c-0.5,0.3-0.8,0.8-0.8,1.3c0,0.3-0.2,0.6-0.6,0.7c-0.3,0.1-0.6,0-0.9-0.2c-0.3-0.4-0.8-0.6-1.3-0.6c-0.3,0-0.6,0.1-0.9,0.3
		c-0.4,0.2-0.7,0.6-0.8,1.1c-0.1,0.3-0.3,0.6-0.6,0.6c-0.3,0.1-0.6-0.1-0.8-0.4l-3.5-5.7C15.2,14.3,14.6,14,14,14
		c-0.3,0-0.6,0.1-0.9,0.3c-0.8,0.5-1.1,1.6-0.6,2.4L20.2,29c0.2,0.3,0.2,0.7-0.1,1c-0.2,0.3-0.6,0.3-0.9,0.2L16.7,29
		c-0.3-0.2-0.8-0.2-1.4-0.2C14.3,28.7,13.3,28.9,12.7,29.3z"/>
	<path fill="#C22126" d="M11.2,23c-0.1,0-0.2,0-0.3,0c-3.2-1.1-5.4-4.2-5.4-7.7c0-4.5,3.6-8.1,8.1-8.1c4,0,7.4,3,8,6.9
		c0.1,0.4-0.2,0.8-0.7,0.9c-0.4,0.1-0.8-0.2-0.9-0.7c-0.5-3.2-3.3-5.5-6.4-5.5c-3.6,0-6.5,2.9-6.5,6.5c0,2.8,1.7,5.2,4.3,6.2
		c0.4,0.1,0.6,0.6,0.5,1C11.9,22.8,11.6,23,11.2,23z"/>
	<path fill="#C22126" d="M8.3,27.7c-0.1,0-0.2,0-0.3-0.1C3.2,25.4,0,20.5,0,15.3C0,7.7,6.2,1.6,13.7,1.6c6.2,0,11.6,4.2,13.2,10.1
		c0.1,0.4-0.1,0.9-0.6,1c-0.4,0.1-0.9-0.1-1-0.6c-1.4-5.3-6.2-8.9-11.6-8.9c-6.6,0-12,5.4-12,12c0,4.7,2.7,8.9,7,10.9
		C9,26.3,9.2,26.8,9,27.2C8.9,27.5,8.6,27.7,8.3,27.7z"/>
</g>
</svg>
