<?xml version="1.0" encoding="utf-8"?>
<!-- Generator: Adobe Illustrator 18.0.0, SVG Export Plug-In . SVG Version: 6.00 Build 0)  -->
<!DOCTYPE svg PUBLIC "-//W3C//DTD SVG 1.1//EN" "http://www.w3.org/Graphics/SVG/1.1/DTD/svg11.dtd">
<svg version="1.1" id="Layer_1" xmlns="http://www.w3.org/2000/svg" xmlns:xlink="http://www.w3.org/1999/xlink" x="0px" y="0px"
	 width="40px" height="40px" viewBox="0 0 40 40" enable-background="new 0 0 40 40" xml:space="preserve">
<g id="Layer_2">
	<g id="Layer_2-2">
		<g id="FUeWvr">
			<path fill="#C22126" d="M20.7,13.2c-0.1-0.3-0.7-0.5-1.1-0.7c-4.5,0.4-8.1,4.1-8.2,8.4c0,0.5-0.1,1.2,0.7,1.2
				c0.7,0,0.7-0.5,0.8-1.1c0.2-1.7,0.6-3.2,1.9-4.5c1.4-1.5,3.1-2.3,5.2-2.4C20.4,14.2,20.9,13.9,20.7,13.2z M20.7,13.2
				c-0.1-0.3-0.7-0.5-1.1-0.7c-4.5,0.4-8.1,4.1-8.2,8.4c0,0.5-0.1,1.2,0.7,1.2c0.7,0,0.7-0.5,0.8-1.1c0.2-1.7,0.6-3.2,1.9-4.5
				c1.4-1.5,3.1-2.3,5.2-2.4C20.4,14.2,20.9,13.9,20.7,13.2z M38.6,22.8c0-4.1,0-8.2,0-12.3c0-0.7-0.1-1.4-0.3-2.1
				C37.4,5,34.6,2.8,31,2.8c-2.3,0-4.6,0-7,0c0-0.4,0-0.7,0-1c-0.1-1-0.6-1.7-1.6-1.7c-1.5-0.1-3-0.1-4.6,0
				c-1.1,0.1-1.6,0.7-1.6,1.8c0,0.3,0,0.5,0,0.9H9.2c-4.5,0-7.8,3.3-7.8,7.7c0,7.3,0,14.6,0,21.9c0,4.3,3.4,7.6,7.7,7.6
				c7.3,0,14.6,0,21.9,0c0.5,0,1.1,0,1.6-0.1c3.6-0.8,6.1-3.8,6.1-7.6C38.7,29.1,38.6,25.9,38.6,22.8z M20.1,32
				c-5.9,0.1-10.7-4.6-10.8-10.5c-0.1-5.9,4.6-10.7,10.5-10.8c0.1,0,0.2,0,0.4,0c5.9,0.1,10.5,4.9,10.4,10.8
				C30.4,27.3,25.8,31.9,20.1,32z M33.2,9.3h-5.1V5.5h5.1L33.2,9.3z M19.5,12.5c-4.5,0.4-8.1,4.1-8.2,8.4c0,0.5-0.1,1.2,0.7,1.2
				c0.7,0,0.7-0.5,0.8-1.1c0.2-1.7,0.6-3.2,1.9-4.5c1.4-1.5,3.1-2.3,5.2-2.4c0.6,0,1.2-0.3,0.9-1C20.5,12.9,19.9,12.7,19.5,12.5
				L19.5,12.5z"/>
			<path fill="#C22126" d="M38.6,22.8c0-4.1,0-8.2,0-12.3c0-0.7-0.1-1.4-0.3-2.1C37.4,5,34.6,2.8,31,2.8c-2.3,0-4.6,0-7,0
				c0-0.4,0-0.7,0-1c-0.1-1-0.6-1.7-1.6-1.7c-1.5-0.1-3-0.1-4.6,0c-1.1,0.1-1.6,0.7-1.6,1.8c0,0.3,0,0.5,0,0.9H9.2
				c-4.5,0-7.8,3.3-7.8,7.7c0,7.3,0,14.6,0,21.9c0,4.3,3.4,7.6,7.7,7.6c7.3,0,14.6,0,21.9,0c0.5,0,1.1,0,1.6-0.1
				c3.6-0.8,6.1-3.8,6.1-7.6C38.7,29.1,38.6,25.9,38.6,22.8z M20.1,32c-5.9,0.1-10.7-4.6-10.8-10.5c-0.1-5.9,4.6-10.7,10.5-10.8
				c0.1,0,0.2,0,0.4,0c5.9,0.1,10.5,4.9,10.4,10.8C30.4,27.3,25.8,31.9,20.1,32z M33.2,9.3h-5.1V5.5h5.1L33.2,9.3z"/>
			<path fill="#C22126" d="M19.8,14.2c-2.1,0.1-3.7,0.9-5.2,2.4c-1.2,1.3-1.7,2.8-1.9,4.5c-0.1,0.5-0.1,1.1-0.8,1.1
				c-0.8,0-0.7-0.7-0.7-1.2c0.1-4.3,3.7-8,8.2-8.4c0.4,0.2,1,0.4,1.1,0.7C20.9,13.9,20.4,14.2,19.8,14.2z"/>
		</g>
	</g>
</g>
</svg>
