<?xml version="1.0" encoding="utf-8"?>
<!-- Generator: Adobe Illustrator 20.0.0, SVG Export Plug-In . SVG Version: 6.00 Build 0)  -->
<svg version="1.1" id="Calque_1" xmlns="http://www.w3.org/2000/svg" xmlns:xlink="http://www.w3.org/1999/xlink" x="0px" y="0px"
	 viewBox="0 0 40 40" style="enable-background:new 0 0 40 40;" xml:space="preserve">
<style type="text/css">
	.st0{fill:#FFFFFF;}
</style>
<g>
	<path class="st0" d="M19.9,3.7l18,15.6h-5v17l-8.5,0l0-9.9l-8.5,0l0,9.9H7.3v-17h-5L19.9,3.7 M19.9,1.5c-0.5,0-1,0.2-1.4,0.5
		L0.8,17.7c-0.7,0.6-0.9,1.5-0.6,2.3c0.3,0.8,1.1,1.4,2,1.4h2.9v14.9c0,1.2,1,2.1,2.1,2.1h8.5c1.2,0,2.1-1,2.1-2.1l0-7.8l4.3,0
		l0,7.8c0,1.2,1,2.1,2.1,2.1l8.5,0c0,0,0,0,0,0c0.6,0,1.1-0.2,1.5-0.6c0.4-0.4,0.6-0.9,0.6-1.5V21.4h2.9c0.9,0,1.7-0.6,2-1.4
		c0.3-0.8,0.1-1.8-0.6-2.4l-18-15.6C20.9,1.7,20.4,1.5,19.9,1.5L19.9,1.5z"/>
</g>
</svg>
