<?xml version="1.0" encoding="utf-8"?>
<!-- Generator: Adobe Illustrator 21.0.0, SVG Export Plug-In . SVG Version: 6.00 Build 0)  -->
<svg version="1.1" xmlns="http://www.w3.org/2000/svg" xmlns:xlink="http://www.w3.org/1999/xlink" x="0px" y="0px"
	 viewBox="0 0 40 40" style="enable-background:new 0 0 40 40;" xml:space="preserve">
<style type="text/css">
	.st0{fill:#111B43;}
</style>
<g id="Calque_1">
	<path class="st0" d="M20,2c9.9,0,18,8.1,18,18s-8.1,18-18,18S2,29.9,2,20S10.1,2,20,2 M20,1C9.5,1,1,9.5,1,20s8.5,19,19,19
		s19-8.5,19-19S30.5,1,20,1L20,1z"/>
</g>
<g id="Calque_2">
	<g>
		<path class="st0" d="M14.6,12.9l5.3,5.3l5.1-5.1l1.3,1.3l-5.1,5.1l5.3,5.3l-1.4,1.4l-5.3-5.3L14.7,26l-1.3-1.3l5.1-5.1l-5.3-5.3
			L14.6,12.9z"/>
	</g>
</g>
</svg>
