<svg xmlns="http://www.w3.org/2000/svg" viewBox="0 0 46.5 46.51"><defs><style>.cls-1{fill:#0e142f;}</style></defs><title>icon_phone</title><g id="Layer_2" data-name="Layer 2"><g id="Layer_1-2" data-name="Layer 1"><g id="phone"><path class="cls-1" d="M44.92,33.64c-1.95-2-3.9-3.91-5.79-5.78a4.68,4.68,0,0,0-7,0l-.26.26c-1,1-2.09,2.07-3.12,3.13l-.62-.32a14,14,0,0,1-1.32-.7,35.42,35.42,0,0,1-8.68-7.91,20.18,20.18,0,0,1-2.92-4.58c.91-.88,1.81-1.79,2.68-2.67l.67-.67a4.72,4.72,0,0,0,0-7.1l-2-2-.86-.86-.91-.91c-.65-.66-1.33-1.34-2-2A5,5,0,0,0,9.34,0,4.93,4.93,0,0,0,5.86,1.54L4.4,3C3.71,3.7,3,4.42,2.27,5.11A7.15,7.15,0,0,0,0,9.91,18.53,18.53,0,0,0,1.4,17.67,45,45,0,0,0,9.39,31a49.75,49.75,0,0,0,16.35,12.8,24.23,24.23,0,0,0,9.31,2.7l.62,0a7.68,7.68,0,0,0,6-2.55c.65-.73,1.35-1.41,2.09-2.13l1.14-1.12A4.7,4.7,0,0,0,44.92,33.64Zm-1.86,5.24L41.95,40c-.74.72-1.51,1.47-2.22,2.27a5.2,5.2,0,0,1-4.51,1.68,21.7,21.7,0,0,1-8.32-2.44A47.16,47.16,0,0,1,11.39,29.35,42.37,42.37,0,0,1,3.84,16.79a15.45,15.45,0,0,1-1.21-6.65A4.58,4.58,0,0,1,4.07,7L6.25,4.84,7.68,3.4a2.45,2.45,0,0,1,1.66-.8A2.49,2.49,0,0,1,11,3.4l2,2,.91.91.86.86,2,2a2.14,2.14,0,0,1,0,3.44l-.67.68c-.93.94-1.9,1.92-2.87,2.85a2,2,0,0,0-.48,2.38A22.25,22.25,0,0,0,16.13,24a38.29,38.29,0,0,0,9.31,8.47,16.47,16.47,0,0,0,1.56.84c.31.14.59.29.86.44a2.1,2.1,0,0,0,1,.28h0a2.09,2.09,0,0,0,1.51-.7c1.09-1.12,2.22-2.24,3.3-3.32L34,29.7a2.44,2.44,0,0,1,1.65-.8,2.49,2.49,0,0,1,1.66.8c1.88,1.87,3.83,3.81,5.77,5.77A2.15,2.15,0,0,1,43.05,38.88Z"/></g></g></g></svg>