<?xml version="1.0" encoding="utf-8"?>
<!-- Generator: Adobe Illustrator 20.0.0, SVG Export Plug-In . SVG Version: 6.00 Build 0)  -->
<svg version="1.1" id="Calque_1" xmlns="http://www.w3.org/2000/svg" xmlns:xlink="http://www.w3.org/1999/xlink" x="0px" y="0px"
	 viewBox="0 0 40 40" style="enable-background:new 0 0 40 40;" xml:space="preserve">
<style type="text/css">
	.st0{fill:#58595B;}
</style>
<g>
	<path class="st0" d="M20,38.3c-0.4,0-0.8-0.4-0.8-0.8V15l-6.1,6.1c-0.3,0.3-0.8,0.3-1.1,0c-0.3-0.3-0.3-0.8,0-1.1l7.4-7.5
		c0.3-0.3,0.8-0.3,1.1,0L28,20c0.3,0.3,0.3,0.8,0,1.1c-0.3,0.3-0.8,0.3-1.1,0L20.8,15v22.5C20.8,38,20.4,38.3,20,38.3z M30.4,26.8
		h-4.3c-0.4,0-0.8-0.4-0.8-0.8s0.4-0.8,0.8-0.8h4.3c4.2,0,7.6-3.4,7.6-7.6c0-4.2-3.4-7.6-7.6-7.6c-0.5,0-1,0.1-1.5,0.2
		c-0.4,0.1-0.8-0.1-0.9-0.5c-1.5-3.9-5.2-6.4-9.3-6.4c-5.5,0-10,4.5-10,10l0,0.1c0,0.2-0.1,0.4-0.2,0.6c-0.2,0.2-0.4,0.2-0.6,0.2
		c-0.1,0-0.2,0-0.4,0c-3,0-5.5,2.5-5.5,5.5c0,3,2.5,5.5,5.5,5.5h5.8c0.4,0,0.8,0.4,0.8,0.8s-0.4,0.8-0.8,0.8H7.5
		c-3.9,0-7.1-3.2-7.1-7.1c0-3.8,3-6.9,6.7-7.1C7.5,6.5,12.5,1.7,18.7,1.7c4.6,0,8.6,2.6,10.5,6.8c0.4-0.1,0.8-0.1,1.2-0.1
		c5.1,0,9.2,4.1,9.2,9.2C39.6,22.7,35.5,26.8,30.4,26.8z"/>
</g>
</svg>
