<?xml version="1.0" encoding="utf-8"?>
<!-- Generator: Adobe Illustrator 18.0.0, SVG Export Plug-In . SVG Version: 6.00 Build 0)  -->
<!DOCTYPE svg PUBLIC "-//W3C//DTD SVG 1.1//EN" "http://www.w3.org/Graphics/SVG/1.1/DTD/svg11.dtd">
<svg version="1.1" id="Calque_1" xmlns="http://www.w3.org/2000/svg" xmlns:xlink="http://www.w3.org/1999/xlink" x="0px" y="0px"
	 width="40px" height="40px" viewBox="0 0 40 40" enable-background="new 0 0 40 40" xml:space="preserve">
<g id="Layer_2">
	<g id="Layer_2-2">
		<path fill="#C22126" d="M40,24.3c0,3.8-1.1,7.6-3.1,10.8c-0.3,0.4-0.7,0.7-1.2,0.6H4.4c-0.5,0-0.9-0.2-1.2-0.6
			C-0.4,29.5-1,22.6,1.6,16.5c2-4.8,5.8-8.6,10.6-10.6c5-2.1,10.6-2.1,15.5,0c4.8,2,8.7,5.8,10.6,10.6C39.5,19,40,21.6,40,24.3z
			 M7.7,26.3c1.1-1.1,1.1-2.9,0-4c-0.5-0.6-1.3-0.9-2-0.8c-0.8,0-1.5,0.3-2,0.8c-1.1,1.1-1.1,2.9,0,4c0.5,0.6,1.3,0.9,2,0.8
			C6.5,27.2,7.2,26.9,7.7,26.3L7.7,26.3z M12,16.3c1.1-1.1,1.1-2.9,0-4c-1.1-1.1-2.9-1.1-4,0c-1.1,1.1-1.1,2.9,0,4
			C9.1,17.4,10.9,17.4,12,16.3z M22.4,25l2.3-8.5c0.2-0.7-0.3-1.5-1-1.7c-0.4-0.1-0.7-0.1-1.1,0.1c-0.3,0.2-0.6,0.5-0.7,0.8
			l-2.3,8.5c-0.9,0.1-1.7,0.4-2.4,1c-1.6,1.3-2,3.6-1,5.5c0.6,1,1.5,1.7,2.6,2c1.1,0.3,2.3,0.1,3.3-0.5C24,31.2,24.8,29,24,27
			C23.7,26.2,23.1,25.5,22.4,25z M22,12c0.6-0.5,0.9-1.3,0.8-2c0-0.8-0.3-1.5-0.8-2c-1.1-1.1-2.9-1.1-4,0c-0.6,0.5-0.9,1.3-0.8,2
			c0,0.8,0.3,1.5,0.8,2C19.1,13.1,20.9,13.1,22,12z M32,16.3c1.1-1.1,1.1-2.9,0-4c-1.1-1.1-2.9-1.1-4,0c-0.5,0.5-0.8,1.3-0.8,2
			c0,1.6,1.3,2.9,2.8,2.9C30.8,17.1,31.5,16.8,32,16.3L32,16.3z M36.3,26.3c1.1-1.1,1.1-2.9,0-4c-1.1-1.1-2.9-1.1-4,0s-1.1,2.9,0,4
			c0.5,0.5,1.3,0.8,2,0.8C35,27.1,35.8,26.8,36.3,26.3L36.3,26.3z"/>
	</g>
</g>
</svg>
