<?xml version="1.0" encoding="utf-8"?>
<!-- Generator: Adobe Illustrator 18.0.0, SVG Export Plug-In . SVG Version: 6.00 Build 0)  -->
<!DOCTYPE svg PUBLIC "-//W3C//DTD SVG 1.1//EN" "http://www.w3.org/Graphics/SVG/1.1/DTD/svg11.dtd">
<svg version="1.1" id="Calque_1" xmlns="http://www.w3.org/2000/svg" xmlns:xlink="http://www.w3.org/1999/xlink" x="0px" y="0px"
	 width="40px" height="40px" viewBox="0 0 40 40" enable-background="new 0 0 40 40" xml:space="preserve">
<g>
	<path fill="#FFFFFF" d="M14.8,29.5c0.1-0.1,0.1-0.2,0.1-0.3c0-0.1-0.5-2.5-0.6-2.7c-0.1-0.4-0.5-0.6-0.5-0.6h0L10,24.1
		c0.6-0.2,1.1-0.6,1.6-1c0.8-0.7,1.3-1.6,1.7-2.6c0,0,0,0,0,0c0.2,0,0.4-0.1,0.5-0.3l0,0c0.9,0,1.7-0.9,1.7-2c0-0.6-0.2-1.1-0.5-1.4
		c0,0,0-0.1,0-0.1c-0.3-3.5-3.4-6.2-7.1-6.2c-3.7,0-6.8,2.7-7.1,6.2c-0.4,0.4-0.7,1-0.7,1.6c0,0.7,0.3,1.3,0.7,1.6c0,0,0,0.1,0,0.1
		c0,1,0.3,1.7,1,2.3c0.6,0.5,1.3,0.7,2.3,0.8c0.5,0.4,1,0.8,1.6,1c-1.6,0.8-3.2,1.6-3.3,1.6c-0.2,0.1-0.3,0.3-0.3,0.4l-1,3.1
		c0,0.1,0,0.2,0,0.3c0.1,0.1,0.2,0.1,0.3,0.1h13.1C14.7,29.6,14.8,29.6,14.8,29.5 M8,11.2c3.2,0,5.9,2.3,6.3,5.2
		c-0.3-0.1-0.5-0.1-0.5-0.1c0,0,0,0-0.1,0c0,0,0,0-0.1,0c-0.1-0.1-0.2-0.1-0.4-0.1c-0.1,0-0.1,0-0.2,0c-0.9-2.1-2.9-3.6-5.2-3.6
		c-2.3,0-4.3,1.5-5.2,3.6c-0.1,0-0.2-0.1-0.3-0.1c-0.1,0-0.3,0-0.4,0.1c0,0-0.1,0-0.1,0c0,0,0,0-0.1,0l0,0c-0.1,0-0.2,0-0.3,0
		C2.1,13.4,4.7,11.2,8,11.2 M3,18.4c0.1-2.8,2.3-5,5-5c0.4,0,0.8,0.1,1.1,0.1C8.6,16.3,6.6,17.9,3,18.4 M9.7,13.8
		c1.9,0.8,3.2,2.7,3.2,4.9c0,0,0,0.1,0,0.1c-1.4-0.7-2.6-1.9-3.5-3.9C9.5,14.5,9.6,14.2,9.7,13.8 M13.6,18.7c0-0.6-0.1-1.1-0.2-1.6
		c0,0,0.1,0.1,0.2,0.1c0.1,0,0.2,0,0.2-0.1c0,0,0,0,0,0c0,0,0,0,0,0c0,0,0,0,0,0c0,0,0.3,0,0.5,0.1c0,0,0,0,0,0c0,0,0,0,0,0
		c0.3,0.2,0.5,0.7,0.5,1.1c0,0.7-0.5,1.3-1,1.3c0,0-0.1,0-0.1,0c0,0,0,0,0,0c-0.1,0-0.2,0-0.2,0C13.5,19.3,13.6,19,13.6,18.7
		 M1.4,17.2C1.4,17.2,1.4,17.2,1.4,17.2C1.6,17,1.9,17,1.9,17L2,17c0.1,0,0.2,0.1,0.2,0.1c0.1,0,0.2-0.1,0.2-0.2
		c0,0.1,0,0.1,0.1,0.2c-0.1,0.5-0.2,1-0.2,1.6c0,0.4,0,0.8,0.1,1.1c0,0-0.1-0.1-0.1-0.1c-0.1-0.1-0.2-0.1-0.3,0c0,0,0,0-0.1,0
		c0,0,0,0,0,0c-0.6,0-1-0.6-1-1.3C0.9,17.9,1.1,17.4,1.4,17.2 M2,20.2L2,20.2z M1.9,20.3c0.1,0.2,0.3,0.3,0.5,0.3c0.1,0,0.1,0,0.2,0
		c0.2,0.6,0.5,1.2,0.9,1.8C3,22.2,2.6,22,2.3,21.8c-0.4-0.4-0.7-0.9-0.7-1.5C1.7,20.3,1.8,20.3,1.9,20.3 M7.1,22.4
		c0-0.1,0-0.1,0-0.1h0.9c0,0,0,0.1,0,0.1c0,0.1,0,0.1,0,0.1H7.1C7.1,22.5,7.1,22.4,7.1,22.4 M6.5,23C6.5,22.9,6.6,22.9,6.5,23
		c0.2,0.1,0.4,0.2,0.6,0.2h1c0.4,0,0.7-0.3,0.7-0.8s-0.3-0.8-0.7-0.8h-1c-0.4,0-0.6,0.3-0.7,0.7c0,0,0,0-0.1,0c0,0-0.7,0.2-1.6,0.2
		c-0.1,0-0.2,0-0.3,0c-0.9-0.9-1.4-2.1-1.5-3.4c3-0.4,5-1.5,6.1-3.4c1,1.9,2.3,3.1,3.8,3.8c-0.2,1.2-0.8,2.4-1.7,3.2
		c-0.9,0.8-2,1.3-3.2,1.3c-1,0-1.9-0.3-2.6-0.8C6,23.1,6.5,23,6.5,23 M6.9,25.4l-0.1-0.9c0.4,0.1,0.7,0.1,1.1,0.1
		c0.4,0,0.7,0,1.1-0.1l0,0.9c-0.1,0.1-0.3,0.2-1,0.2C7.3,25.6,7,25.4,6.9,25.4 M6.2,25.5c0,0,0,0.1,0,0.1c0.1,0.1,0.4,0.6,1.7,0.6
		c1.4,0,1.6-0.6,1.7-0.7c0,0,0,0,0-0.1l0-0.8l3.5,1.7l0.4,0.2c0,0,0.1,0.1,0.1,0.1c0,0.2,0.4,1.6,0.5,2.3H2l0.9-2.6
		c0.2-0.1,1.3-0.6,3.3-1.6L6.2,25.5z"/>
	<path fill="#FFFFFF" d="M32.3,9.4l-0.2-3.3c0-0.2-0.2-0.3-0.4-0.3h0c-0.1,0-0.2,0-0.2,0.1c-0.1,0.1-0.1,0.2-0.1,0.2l0.1,2.4
		C28.7,5.6,24.7,4,20.6,4c-4.1,0-8,1.6-10.9,4.5C9.5,8.7,9.5,8.9,9.7,9c0.1,0.1,0.3,0.1,0.5,0c2.8-2.8,6.5-4.3,10.5-4.3
		c4,0,7.8,1.6,10.5,4.4l-2.5,0c-0.2,0-0.3,0.2-0.3,0.3c0,0.1,0,0.2,0.1,0.2c0.1,0.1,0.1,0.1,0.2,0.1l3.3,0.1h0
		C32.1,9.8,32.3,9.6,32.3,9.4C32.3,9.4,32.3,9.4,32.3,9.4C32.3,9.4,32.3,9.4,32.3,9.4"/>
	<path fill="#FFFFFF" d="M31.1,31c-2.8,2.8-6.5,4.3-10.5,4.3c-1.4,0-2.7-0.2-4-0.6c-2.1-0.6-4-1.7-5.7-3.1l2.4,0
		c0.2,0,0.3-0.2,0.3-0.3c0-0.2-0.2-0.3-0.3-0.3L10,31c-0.1,0-0.2,0-0.2,0.1c-0.1,0.1-0.1,0.1-0.1,0.2c0,0,0,0,0,0c0,0,0,0,0,0
		l0.3,3.2c0,0.2,0.2,0.3,0.3,0.3c0,0,0,0,0,0c0.1,0,0.2,0,0.2-0.1c0.1-0.1,0.1-0.2,0.1-0.2l-0.2-2.5c1.7,1.5,3.8,2.7,6,3.3
		c1.4,0.4,2.8,0.6,4.2,0.6c4.1,0,8-1.6,10.9-4.5c0.1-0.1,0.1-0.3,0-0.5C31.4,30.9,31.2,30.9,31.1,31"/>
	<path fill="#FFFFFF" d="M30.5,28.8C30.5,28.8,30.5,28.8,30.5,28.8l-2-0.4c-0.1,0-0.2-0.1-0.2-0.1c-0.1-0.1-0.1-0.2-0.1-0.3l0.4-1.9
		c-0.8-0.3-1.5-0.8-2.2-1.5l-1.6,1c-0.2,0.1-0.4,0.1-0.5-0.1L23.3,24c0-0.1-0.1-0.2,0-0.3c0-0.1,0.1-0.2,0.1-0.2l1.6-1
		c-0.3-0.7-0.4-1.5-0.4-2.3l-1.9-0.4c-0.2,0-0.3-0.2-0.3-0.4l0.4-1.9c0-0.1,0.1-0.2,0.1-0.2c0.1-0.1,0.2-0.1,0.3-0.1l1.9,0.4
		c0.3-0.7,0.7-1.4,1.3-2L25.2,14c-0.1-0.1-0.1-0.2-0.1-0.3c0-0.1,0.1-0.2,0.1-0.2l1.6-1.1c0.2-0.1,0.4-0.1,0.5,0.1l1.1,1.6
		c0.8-0.4,1.7-0.5,2.5-0.6l0.4-1.9c0-0.2,0.2-0.3,0.4-0.3l1.9,0.4c0.1,0,0.2,0.1,0.2,0.1C34,12,34,12.1,34,12.2L33.6,14
		c0.8,0.3,1.5,0.8,2.2,1.5l1.6-1c0.2-0.1,0.4-0.1,0.5,0.1l1.1,1.6c0,0.1,0.1,0.2,0,0.3c0,0.1-0.1,0.2-0.1,0.2l-1.6,1
		c0.3,0.7,0.4,1.5,0.4,2.3l1.9,0.4c0.1,0,0.2,0.1,0.2,0.1c0,0.1,0.1,0.2,0.1,0.3l-0.4,1.9c0,0.2-0.2,0.3-0.4,0.3l-1.9-0.4
		c-0.3,0.7-0.7,1.4-1.3,2l1.1,1.6c0.1,0.1,0.1,0.2,0.1,0.3c0,0.1-0.1,0.2-0.1,0.2l-1.6,1.1c-0.2,0.1-0.4,0.1-0.5-0.1l-1.1-1.6
		c-0.8,0.4-1.7,0.5-2.5,0.6l-0.4,1.9C30.8,28.7,30.7,28.8,30.5,28.8 M29,27.8l1.3,0.2l0.4-1.8c0-0.2,0.2-0.3,0.3-0.3
		c1,0,1.9-0.2,2.8-0.6c0.1-0.1,0.3,0,0.4,0.1l1.1,1.5l1.1-0.7l-1.1-1.5c-0.1-0.1-0.1-0.3,0-0.4c0.6-0.6,1.1-1.4,1.4-2.2
		c0.1-0.2,0.2-0.2,0.4-0.2l1.8,0.4l0.2-1.3l-1.8-0.4c-0.2,0-0.3-0.2-0.3-0.3c0-0.9-0.1-1.8-0.5-2.6c-0.1-0.2,0-0.3,0.1-0.4l1.6-1
		l-0.7-1.1l-1.6,1c-0.1,0.1-0.3,0.1-0.4-0.1c-0.6-0.7-1.5-1.3-2.4-1.6c-0.2-0.1-0.2-0.2-0.2-0.4l0.4-1.8L32,12.1l-0.4,1.8
		c0,0.2-0.2,0.3-0.3,0.3c-1,0-1.9,0.2-2.8,0.6c-0.1,0.1-0.3,0-0.4-0.1L27,13.2L26,13.9l1.1,1.5c0.1,0.1,0.1,0.3,0,0.4
		c-0.6,0.6-1.1,1.4-1.4,2.2c-0.1,0.2-0.2,0.2-0.4,0.2l-1.8-0.4l-0.2,1.3l1.8,0.4c0.2,0,0.3,0.2,0.3,0.3c0,0.9,0.1,1.8,0.5,2.6
		c0.1,0.2,0,0.3-0.1,0.4l-1.6,1l0.7,1.1l1.6-1c0.1-0.1,0.3-0.1,0.4,0.1c0.6,0.7,1.5,1.3,2.4,1.6c0.2,0.1,0.2,0.2,0.2,0.4L29,27.8z
		 M31.1,23.7c-2,0-3.6-1.6-3.6-3.6c0-2,1.6-3.6,3.6-3.6c2,0,3.6,1.6,3.6,3.6C34.7,22.1,33.1,23.7,31.1,23.7 M31.1,17.1
		c-1.6,0-3,1.3-3,3c0,1.6,1.3,3,3,3c1.6,0,3-1.3,3-3C34.1,18.4,32.7,17.1,31.1,17.1"/>
</g>
</svg>
