<?xml version="1.0" encoding="utf-8"?>
<!-- Generator: Adobe Illustrator 20.0.0, SVG Export Plug-In . SVG Version: 6.00 Build 0)  -->
<svg version="1.1" id="Calque_1" xmlns="http://www.w3.org/2000/svg" xmlns:xlink="http://www.w3.org/1999/xlink" x="0px" y="0px"
	 viewBox="0 0 839.1 114.1" style="enable-background:new 0 0 839.1 114.1;" xml:space="preserve">
<style type="text/css">
	.st0{clip-path:url(#SVGID_2_);}
	.st1{fill:#FFFFFF;}
	.st2{clip-path:url(#SVGID_4_);}
	.st3{fill:#DA1F33;}
</style>
<title>Logo</title>
<g>
	<g>
		<g id="Layer_2">
			<g id="Layer_2-2">
				<defs>
					<rect id="SVGID_1_" x="-44" y="-48.6" width="921.7" height="213.9"/>
				</defs>
				<clipPath id="SVGID_2_">
					<use xlink:href="#SVGID_1_"  style="overflow:visible;"/>
				</clipPath>
				<g id="Logo" class="st0">
					<rect x="575.3" y="3" class="st1" width="257.6" height="101.6"/>
					<polygon class="st1" points="103,28.6 60.4,28.6 60.4,102 43,102 43,28.6 0.5,28.6 0.5,12.9 103,12.9 					"/>
					<g>
						<defs>
							<rect id="SVGID_3_" x="-44" y="-48.6" width="921.7" height="213.9"/>
						</defs>
						<clipPath id="SVGID_4_">
							<use xlink:href="#SVGID_3_"  style="overflow:visible;"/>
						</clipPath>
						<g class="st2">
							<path class="st1" d="M212.2,102h-19.9L169,69.3h-44.2V102h-17.4V12.9h72c8.2-0.4,16.3,2.3,22.6,7.7
								c5.7,5.3,8.8,12.8,8.4,20.6c0,14.7-7.4,23.8-22.1,27.1L212.2,102z M176.7,53.6c10.5,0,15.8-4.1,15.8-12.2
								c0-8.6-5.6-12.9-16.8-12.9h-51v25.1H176.7z"/>
							<path class="st1" d="M333.6,102h-19.1l-10.3-19.1h-59.9L234.1,102h-19.1l48.5-89.1h21.7L333.6,102z M295.5,67.3l-21.1-39.4
								L253,67.3H295.5z"/>
							<path class="st1" d="M430.8,35.9l-15,5.2c-9.1-9-21.6-13.9-34.4-13.4c-11.9,0-21.5,2.8-28.6,8.3
								c-6.8,4.9-10.8,12.9-10.7,21.4c-0.2,8.5,3.8,16.6,10.7,21.7c7.1,5.4,16.8,8.2,28.9,8.2c12.9,0.5,25.4-4.5,34.4-13.7l14.1,7.6
								c-12.4,14-28.7,21-48.9,21c-16.8,0-30.4-4.2-40.7-12.4c-10-7.6-15.7-19.6-15.5-32.1c-0.1-13.4,6.5-25.9,17.7-33.3
								C370.9,5.6,408.5,10.6,430.8,35.9"/>
							<polygon class="st1" points="554.3,102 531.9,102 489.5,56.9 464.1,75.1 464.1,102 446.7,102 446.7,12.9 464.1,12.9 
								464.1,56.5 524.8,12.9 550.6,12.9 502.8,47.1 							"/>
							<rect x="582.7" y="7.6" class="st1" width="247.9" height="97.3"/>
							<path class="st3" d="M569,114.1h270V0H569V114.1z M685.2,28.5h-42.5v73.4h-17.4V28.5h-42.6V13h102.5L685.2,28.5z
								 M706.8,101.9h-17.4V12.8h17.4V101.9z M807.9,101.9l-42.3-45.3l-25.3,18.2v26.9h-17.4v-89h17.4v43.6L801,12.8h25.8
								l-47.7,34.1l51.5,55L807.9,101.9z"/>
						</g>
					</g>
				</g>
			</g>
		</g>
	</g>
</g>
</svg>
