<?xml version="1.0" encoding="utf-8"?>
<!-- Generator: Adobe Illustrator 18.0.0, SVG Export Plug-In . SVG Version: 6.00 Build 0)  -->
<!DOCTYPE svg PUBLIC "-//W3C//DTD SVG 1.1//EN" "http://www.w3.org/Graphics/SVG/1.1/DTD/svg11.dtd">
<svg version="1.1" id="Calque_1" xmlns="http://www.w3.org/2000/svg" xmlns:xlink="http://www.w3.org/1999/xlink" x="0px" y="0px"
	 width="400px" height="54.4px" viewBox="0 172.8 400 54.4" enable-background="new 0 172.8 400 54.4" xml:space="preserve">
<title>Logo</title>
<g>
	<g>
		<g>
			<g>
				<g id="Layer_2">
					<defs>
						<rect id="SVGID_1_" x="-21" y="149.6" width="439.4" height="102"/>
					</defs>
					<clipPath id="SVGID_2_">
						<use xlink:href="#SVGID_1_"  overflow="visible"/>
					</clipPath>
					<g id="Layer_2-2" clip-path="url(#SVGID_2_)">
						<rect x="274.2" y="174.2" fill="#FFFFFF" width="122.8" height="48.4"/>
						<polygon points="49.1,186.4 28.8,186.4 28.8,221.4 20.5,221.4 20.5,186.4 0.2,186.4 0.2,179 49.1,179 						"/>
						<g id="Logo">
							<g>
								<defs>
									<rect id="SVGID_3_" x="-21" y="149.6" width="439.4" height="102"/>
								</defs>
								<clipPath id="SVGID_4_">
									<use xlink:href="#SVGID_3_"  overflow="visible"/>
								</clipPath>
								<g clip-path="url(#SVGID_4_)">
									<path d="M101.2,221.4h-9.5l-11.1-15.6H59.5v15.6h-8.3V179h34.3c3.9-0.2,7.8,1.1,10.8,3.7c2.7,2.5,4.2,6.1,4,9.8
										c0,7-3.5,11.3-10.5,12.9L101.2,221.4z M84.2,198.4c5,0,7.5-2,7.5-5.8c0-4.1-2.7-6.1-8-6.1H59.4v12H84.2z"/>
									<path d="M159,221.4h-9.1l-4.9-9.1h-28.6l-4.9,9.1h-9.1l23.1-42.5H136L159,221.4z M140.9,204.9l-10.1-18.8l-10.2,18.8H140.9
										z"/>
									<path d="M205.4,189.9l-7.2,2.5c-4.3-4.3-10.3-6.6-16.4-6.4c-5.7,0-10.2,1.3-13.6,4c-3.2,2.3-5.1,6.1-5.1,10.2
										c-0.1,4.1,1.8,7.9,5.1,10.3c3.4,2.6,8,3.9,13.8,3.9c6.1,0.2,12.1-2.1,16.4-6.5l6.7,3.6c-5.9,6.7-13.7,10-23.3,10
										c-8,0-14.5-2-19.4-5.9c-4.8-3.6-7.5-9.3-7.4-15.3c0-6.4,3.1-12.3,8.4-15.9C176.8,175.5,194.7,177.9,205.4,189.9"/>
									<polygon points="264.2,221.4 253.6,221.4 233.3,199.9 221.2,208.6 221.2,221.4 212.9,221.4 212.9,179 221.2,179 
										221.2,199.7 250.2,179 262.5,179 239.7,195.3 									"/>
									<rect x="277.8" y="176.4" fill="#FFFFFF" width="118.2" height="46.4"/>
									<path fill="#DA1F33" d="M271.2,227.2H400v-54.4H271.2V227.2z M326.6,186.4h-20.3v35h-8.3v-35h-20.3V179h48.9V186.4z
										 M336.9,221.4h-8.3v-42.5h8.3V221.4z M385.1,221.4L365,199.8l-12.1,8.7v12.8h-8.3v-42.4h8.3v20.8l28.9-20.7h12.3
										l-22.7,16.3l24.6,26.2H385.1z"/>
								</g>
							</g>
						</g>
					</g>
				</g>
			</g>
		</g>
	</g>
</g>
</svg>
