<?xml version="1.0" encoding="utf-8"?>
<!-- Generator: Adobe Illustrator 18.0.0, SVG Export Plug-In . SVG Version: 6.00 Build 0)  -->
<!DOCTYPE svg PUBLIC "-//W3C//DTD SVG 1.1//EN" "http://www.w3.org/Graphics/SVG/1.1/DTD/svg11.dtd">
<svg version="1.1" id="Calque_1" xmlns="http://www.w3.org/2000/svg" xmlns:xlink="http://www.w3.org/1999/xlink" x="0px" y="0px"
	 width="40px" height="40px" viewBox="0 0 40 40" enable-background="new 0 0 40 40" xml:space="preserve">
<g>
	<path fill="#C22126" d="M29.6,37.8H10.2c-0.1,0-0.2,0-0.3,0l-3.1-0.3c-0.3,0-0.6-0.3-0.7-0.6c-0.2-0.9-0.3-1.8-0.3-2.8
		c0-0.9,0.1-1.9,0.3-2.8c0.1-0.3,0.4-0.6,0.7-0.6l2.8-0.3c0.1-0.4,0.3-0.7,0.4-1.1l-1.8-2.1C8,27,8,26.6,8.2,26.3
		c0.5-0.8,1.1-1.5,1.7-2.2c0.7-0.7,1.4-1.2,2.2-1.7c0.3-0.2,0.7-0.2,0.9,0.1l2.1,1.8c0.3-0.2,0.7-0.3,1.1-0.4l0.3-2.8
		c0-0.3,0.3-0.6,0.6-0.7c1.8-0.4,3.7-0.4,5.6,0c0.3,0.1,0.6,0.4,0.6,0.7l0.3,2.8c0.4,0.1,0.7,0.3,1.1,0.4l2.1-1.8
		c0.3-0.2,0.6-0.2,0.9-0.1c0.8,0.5,1.5,1.1,2.2,1.7c0.7,0.7,1.2,1.4,1.7,2.2c0.2,0.3,0.2,0.7-0.1,0.9l-1.8,2.1
		c0.2,0.3,0.3,0.7,0.4,1.1l2.8,0.3c0.3,0,0.6,0.3,0.7,0.6c0.2,0.9,0.3,1.8,0.3,2.8c0,0.9-0.1,1.9-0.3,2.8c-0.1,0.3-0.4,0.6-0.7,0.6
		l-3.1,0.3C29.8,37.8,29.7,37.8,29.6,37.8z M10.4,36.2h19c0,0,0.1,0,0.1,0l2.7-0.3c0.1-0.6,0.2-1.2,0.2-1.8c0-0.6-0.1-1.2-0.2-1.8
		L29.5,32c-0.3,0-0.6-0.3-0.7-0.6c-0.2-0.6-0.4-1.2-0.7-1.8C28,29.4,28,29,28.2,28.7l1.7-2.1c-0.4-0.5-0.8-1-1.2-1.4
		c-0.4-0.4-0.9-0.8-1.4-1.2l-2.1,1.7C25,26,24.6,26,24.3,25.9c-0.6-0.3-1.1-0.5-1.8-0.7C22.3,25,22,24.8,22,24.4l-0.3-2.7
		c-1.2-0.2-2.5-0.2-3.7,0l-0.3,2.7c0,0.3-0.3,0.6-0.6,0.7c-0.6,0.2-1.2,0.4-1.8,0.7c-0.3,0.2-0.6,0.1-0.9-0.1L12.5,24
		c-0.5,0.4-1,0.8-1.4,1.2c-0.4,0.4-0.8,0.9-1.2,1.4l1.7,2.1c0.2,0.3,0.2,0.6,0.1,0.9c-0.3,0.6-0.5,1.1-0.7,1.8
		c-0.1,0.3-0.4,0.5-0.7,0.6l-2.7,0.3c-0.1,0.6-0.2,1.2-0.2,1.8c0,0.6,0.1,1.2,0.2,1.8l2.7,0.3C10.3,36.2,10.3,36.2,10.4,36.2z"/>
	<path fill="#C22126" d="M24.4,37.8h-9c-0.3,0-0.5-0.1-0.7-0.4c-0.7-1-1-2.2-1-3.4c0-3.4,2.8-6.2,6.2-6.2c3.4,0,6.2,2.8,6.2,6.2
		c0,1.2-0.3,2.4-1,3.4C24.9,37.7,24.6,37.8,24.4,37.8z M15.9,36.2h8c0.3-0.7,0.5-1.4,0.5-2.1c0-2.5-2-4.5-4.5-4.5
		c-2.5,0-4.5,2-4.5,4.5C15.4,34.8,15.5,35.5,15.9,36.2z"/>
	<path fill="#C22126" d="M39.2,37.8H0.6c-0.4,0-0.8-0.4-0.8-0.8V3c0-0.4,0.4-0.8,0.8-0.8h38.6C39.6,2.2,40,2.6,40,3v34
		C40,37.4,39.6,37.8,39.2,37.8z M1.4,36.2h37V3.8h-37V36.2z"/>
	<path fill="#C22126" d="M39.2,11.8H0.6c-0.4,0-0.8-0.4-0.8-0.8c0-0.4,0.4-0.8,0.8-0.8h38.6c0.4,0,0.8,0.4,0.8,0.8
		C40,11.5,39.6,11.8,39.2,11.8z"/>
	<path fill="#C22126" d="M34.3,8.8c-0.9,0-1.7-0.7-1.7-1.7s0.7-1.7,1.7-1.7S36,6.3,36,7.2S35.3,8.8,34.3,8.8z M34.3,7.1
		C34.3,7.1,34.3,7.1,34.3,7.1C34.3,7.2,34.4,7.2,34.3,7.1C34.4,7.1,34.4,7.1,34.3,7.1z"/>
	<path fill="#C22126" d="M28.8,8.8c-0.9,0-1.7-0.7-1.7-1.7s0.7-1.7,1.7-1.7c0.9,0,1.7,0.7,1.7,1.7S29.7,8.8,28.8,8.8z M28.8,7.1
		C28.8,7.1,28.8,7.1,28.8,7.1C28.8,7.2,28.9,7.2,28.8,7.1C28.9,7.1,28.9,7.1,28.8,7.1z"/>
</g>
</svg>
