<?xml version="1.0" encoding="utf-8"?>
<!-- Generator: Adobe Illustrator 20.0.0, SVG Export Plug-In . SVG Version: 6.00 Build 0)  -->
<svg version="1.1" id="Calque_1" xmlns="http://www.w3.org/2000/svg" xmlns:xlink="http://www.w3.org/1999/xlink" x="0px" y="0px"
	 viewBox="0 0 92.4 74" style="enable-background:new 0 0 92.4 74;" xml:space="preserve">
<style type="text/css">
	.st0{fill:#EEEEEE;}
</style>
<path class="st0" d="M49.7,51.9c0,11.5,9.3,20.8,20.8,20.8s20.8-9.3,20.8-20.8c0-11.2-8.9-20.4-20-20.7C72.6,22.1,79.1,11,89,1.1
	C70.9,1.1,49.7,26.8,49.7,51.9z"/>
<path class="st0" d="M22,72.7c11.5,0,20.8-9.3,20.8-20.8c0-11.2-8.9-20.4-20.1-20.7c1.3-9.1,7.9-20.2,17.8-30.1
	C22.5,1.1,1.3,26.8,1.3,51.9C1.3,63.4,10.6,72.7,22,72.7z"/>
</svg>
