<?xml version="1.0" encoding="utf-8"?>
<!-- Generator: Adobe Illustrator 18.0.0, SVG Export Plug-In . SVG Version: 6.00 Build 0)  -->
<!DOCTYPE svg PUBLIC "-//W3C//DTD SVG 1.1//EN" "http://www.w3.org/Graphics/SVG/1.1/DTD/svg11.dtd">
<svg version="1.1" id="Calque_1" xmlns="http://www.w3.org/2000/svg" xmlns:xlink="http://www.w3.org/1999/xlink" x="0px" y="0px"
	 width="40px" height="40px" viewBox="0 0 40 40" enable-background="new 0 0 40 40" xml:space="preserve">
<g id="Layer_2">
	<g id="Layer_2-2">
		<path fill="#C22126" d="M35.6,8.5c0.5,0.5,0.8,1.1,1.1,1.7c0.3,0.6,0.4,1.3,0.5,2v25.7c0,1.2-0.9,2.1-2.1,2.1c0,0,0,0,0,0H5
			c-0.6,0-1.1-0.2-1.5-0.6c-0.4-0.4-0.6-0.9-0.6-1.5V2.1c0-0.6,0.2-1.1,0.6-1.5C3.9,0.2,4.4,0,5,0h20c0.7,0,1.3,0.2,2,0.5
			c0.6,0.2,1.2,0.6,1.7,1.1L35.6,8.5z M34.3,37.1V14.3H25c-1.2,0-2.1-0.9-2.1-2.1c0,0,0,0,0,0V2.9H5.7v34.3H34.3z M11.4,17.8
			c0-0.4,0.3-0.7,0.7-0.7c0,0,0,0,0.1,0h15.7c0.4,0,0.7,0.3,0.7,0.7c0,0,0,0,0,0.1v1.5c0,0.4-0.3,0.7-0.7,0.7c0,0,0,0-0.1,0H12.1
			c-0.4,0-0.7-0.3-0.7-0.7c0,0,0,0,0,0V17.8z M27.9,22.8c0.4,0,0.7,0.3,0.7,0.7c0,0,0,0,0,0.1V25c0,0.4-0.3,0.7-0.7,0.7
			c0,0,0,0-0.1,0H12.1c-0.4,0-0.7-0.3-0.7-0.7c0,0,0,0,0-0.1v-1.4c0-0.4,0.3-0.7,0.7-0.7c0,0,0,0,0.1,0L27.9,22.8z M27.9,28.5
			c0.4,0,0.7,0.3,0.7,0.7c0,0,0,0,0,0.1v1.4c0,0.4-0.3,0.7-0.7,0.7c0,0,0,0-0.1,0H12.1c-0.4,0-0.7-0.3-0.7-0.7c0,0,0,0,0-0.1v-1.4
			c0-0.4,0.3-0.7,0.7-0.7c0,0,0,0,0.1,0L27.9,28.5z M25.7,3v8.4h8.4c-0.1-0.3-0.3-0.7-0.5-0.9l-7-7C26.4,3.3,26,3.1,25.7,3z"/>
	</g>
</g>
</svg>
