<?xml version="1.0" encoding="utf-8"?>
<!-- Generator: Adobe Illustrator 15.1.0, SVG Export Plug-In . SVG Version: 6.00 Build 0)  -->
<!DOCTYPE svg PUBLIC "-//W3C//DTD SVG 1.1//EN" "http://www.w3.org/Graphics/SVG/1.1/DTD/svg11.dtd">
<svg version="1.1" id="Calque_1" xmlns="http://www.w3.org/2000/svg" xmlns:xlink="http://www.w3.org/1999/xlink" x="0px" y="0px"
	 width="40px" height="40px" viewBox="0 0 40 40" enable-background="new 0 0 40 40" xml:space="preserve">
<g>
	<defs>
		<rect id="SVGID_1_" y="3.246" width="40" height="33.508"/>
	</defs>
	<clipPath id="SVGID_2_">
		<use xlink:href="#SVGID_1_"  overflow="visible"/>
	</clipPath>
	<path clip-path="url(#SVGID_2_)" fill="#4E4E4F" d="M19.982,17.86c-0.004,1.915,0.739,3.715,2.093,5.066
		c1.349,1.349,3.145,2.093,5.054,2.093c1.918,0,3.723-0.748,5.08-2.106c1.357-1.354,2.104-3.153,2.104-5.069
		c0-1.854-0.698-3.598-1.97-4.933c-0.05-0.078-0.113-0.145-0.188-0.196c-1.345-1.305-3.114-2.021-4.993-2.021
		c-1.917,0-3.719,0.746-5.073,2.101C20.735,14.148,19.986,15.948,19.982,17.86 M27.162,12.101c1.51,0,2.93,0.575,4.01,1.621
		c0.013,0.017,0.028,0.033,0.044,0.048c1.09,1.087,1.689,2.533,1.689,4.074c0,1.539-0.6,2.985-1.69,4.073
		c-1.093,1.093-2.544,1.694-4.086,1.694c-1.534,0-2.975-0.598-4.059-1.68c-1.087-1.086-1.684-2.531-1.68-4.068
		c0.002-1.537,0.604-2.984,1.694-4.074C24.173,12.7,25.622,12.101,27.162,12.101 M26.605,29.185c0,0.3,0.243,0.541,0.541,0.541
		c0.3,0,0.543-0.241,0.543-0.541c0-0.298-0.243-0.542-0.543-0.542C26.849,28.643,26.605,28.887,26.605,29.185 M17.522,12.348
		c0-0.299-0.242-0.541-0.541-0.541c-0.299,0-0.542,0.242-0.542,0.541c0,0.3,0.242,0.542,0.542,0.542
		C17.28,12.89,17.522,12.647,17.522,12.348 M37.855,12.348c0-0.299-0.242-0.541-0.541-0.541c-0.3,0-0.542,0.242-0.542,0.541
		c0,0.3,0.242,0.542,0.542,0.542C37.613,12.89,37.855,12.647,37.855,12.348 M27.689,7.326c0-0.299-0.243-0.541-0.543-0.541
		c-0.298,0-0.541,0.242-0.541,0.541c0,0.3,0.243,0.542,0.541,0.542C27.446,7.868,27.689,7.626,27.689,7.326 M25.312,16.196
		c0.05,0.206,0.189,0.348,0.316,0.322c0.127,0.414,0.285,0.734,0.332,0.803c0.172,0.254,0.788,0.645,1.175,0.645
		c0.386,0,1.034-0.391,1.207-0.645c0.046-0.068,0.21-0.389,0.344-0.802c0.125,0.021,0.263-0.12,0.312-0.323
		c0.048-0.2-0.01-0.386-0.128-0.427c0.012-0.088,0.021-0.174,0.023-0.26c0.052-0.484-0.014-0.997-0.254-1.347
		c-0.389-0.566-1.161-0.637-1.526-0.617c0.063-0.026,0.203-0.065,0.358-0.06c-0.67-0.116-0.931,0.107-1.255,0.332
		c-0.23-0.02-0.535,0.171-0.623,0.323c0.074-0.065,0.159-0.123,0.236-0.149c-0.372,0.218-0.462,0.604-0.469,0.649
		c-0.053,0.322-0.014,0.727,0.073,1.131C25.32,15.817,25.266,16,25.312,16.196 M27.155,21.384l0.506-0.731l-0.331-1.23l0.232-0.359
		l-0.407-0.39l-0.415,0.39l0.231,0.359l-0.33,1.23L27.155,21.384z M27.15,22.838c1.688,0,3.187-0.786,4.161-2.01
		c-0.129-0.67-0.283-1.098-0.475-1.267c-0.221-0.195-0.787-0.581-2.469-1.444l-0.381,2.585l-0.832,1.19l-0.844-1.19l-0.387-2.581
		c-1.661,0.854-2.24,1.246-2.46,1.44c-0.197,0.175-0.352,0.565-0.482,1.257C23.958,22.048,25.461,22.838,27.15,22.838 M39.957,10.98
		L40,10.39l-0.579-0.124c-6.693-1.43-11.738-6.479-11.788-6.528l-0.486-0.491l-0.482,0.491c-0.051,0.05-5.083,5.095-11.789,6.528
		l-0.56,0.134l0.023,0.573c0.001,0.032,0.001,0.094,0,0.18c-0.003,0.635,0.018,1.399,0.083,2.254l1.365,0.025
		c-0.06-0.729-0.083-1.389-0.087-1.958c5.684-1.38,10.034-5.019,11.449-6.319c1.416,1.301,5.766,4.939,11.45,6.319
		c-0.031,4.479-1.293,14.575-11.45,19.277c-6.393-2.96-9.26-8.055-10.516-12.542l-1.418-0.026
		c1.292,4.942,4.396,10.696,11.658,13.937l0.276,0.123l0.277-0.123c11.388-5.082,12.558-16.354,12.533-20.965
		C39.957,11.067,39.957,11.006,39.957,10.98"/>
	<path clip-path="url(#SVGID_2_)" fill="#4E4E4F" d="M17.817,14.32l-4.041-0.076l-3.208-1.368c-0.106-0.045-0.217-0.078-0.331-0.099
		l-1.892-0.338l-0.574,3.53l-1.326,1.887L5.12,15.97L4.545,12.44l-1.891,0.337c-0.579,0.104-1.047,0.528-1.205,1.094l-1.312,4.682
		c-0.035,0.125-0.055,0.254-0.058,0.385L0,23.276c-0.016,0.846,0.657,1.543,1.502,1.559c0.009,0.001,0.019,0.001,0.029,0.001
		c0.832,0,1.514-0.668,1.529-1.503l0.076-4.144l0.436-1.555c0.267,0.392,0.426,0.863,0.417,1.375l-0.08,4.339
		c-0.017,0.935-0.575,1.727-1.365,2.102l0.001,9.773c0,0.845,0.686,1.53,1.53,1.53c0.846,0,1.531-0.686,1.531-1.531l-0.001-9.198
		c0.017-0.452,0.383-0.815,0.839-0.815c0.461,0,0.833,0.37,0.842,0.829l-0.004,9.185c0,0.846,0.686,1.531,1.531,1.531
		c0.845,0,1.53-0.686,1.53-1.53l0.002-13.831l0.393-5.116l2.11,0.9c0.181,0.077,0.375,0.118,0.572,0.122l4.339,0.081
		c0.86,0.024,1.542-0.656,1.559-1.501C19.334,15.033,18.662,14.336,17.817,14.32 M6.454,17.12l0.709-1.085l-0.347-2.889l0.267-0.608
		l-0.21-0.201c-0.141,0.018-0.281,0.042-0.427,0.042c-0.145,0-0.283-0.024-0.423-0.042l-0.215,0.201l0.266,0.608l-0.344,2.889
		L6.454,17.12z M6.445,11.743c1.5,0,2.716-1.217,2.716-2.716c0-1.5-1.216-2.716-2.716-2.716c-1.5,0-2.716,1.216-2.716,2.716
		C3.729,10.526,4.945,11.743,6.445,11.743"/>
</g>
</svg>
