<?xml version="1.0" encoding="utf-8"?>
<!-- Generator: Adobe Illustrator 18.0.0, SVG Export Plug-In . SVG Version: 6.00 Build 0)  -->
<!DOCTYPE svg PUBLIC "-//W3C//DTD SVG 1.1//EN" "http://www.w3.org/Graphics/SVG/1.1/DTD/svg11.dtd">
<svg version="1.1" id="Calque_1" xmlns="http://www.w3.org/2000/svg" xmlns:xlink="http://www.w3.org/1999/xlink" x="0px" y="0px"
	 width="40px" height="40px" viewBox="0 0 40 40" enable-background="new 0 0 40 40" xml:space="preserve">
<g>
	<g>
		<defs>
			<rect id="SVGID_1_" y="3.2" width="40" height="33.5"/>
		</defs>
		<clipPath id="SVGID_2_">
			<use xlink:href="#SVGID_1_"  overflow="visible"/>
		</clipPath>
		<path clip-path="url(#SVGID_2_)" fill="#C22126" d="M20,17.9c0,1.9,0.7,3.7,2.1,5.1c1.3,1.3,3.1,2.1,5.1,2.1
			c1.9,0,3.7-0.7,5.1-2.1c1.4-1.4,2.1-3.2,2.1-5.1c0-1.9-0.7-3.6-2-4.9c0-0.1-0.1-0.1-0.2-0.2c-1.3-1.3-3.1-2-5-2
			c-1.9,0-3.7,0.7-5.1,2.1C20.7,14.1,20,15.9,20,17.9 M27.2,12.1c1.5,0,2.9,0.6,4,1.6c0,0,0,0,0,0c1.1,1.1,1.7,2.5,1.7,4.1
			c0,1.5-0.6,3-1.7,4.1c-1.1,1.1-2.5,1.7-4.1,1.7c-1.5,0-3-0.6-4.1-1.7c-1.1-1.1-1.7-2.5-1.7-4.1c0-1.5,0.6-3,1.7-4.1
			C24.2,12.7,25.6,12.1,27.2,12.1 M26.6,29.2c0,0.3,0.2,0.5,0.5,0.5c0.3,0,0.5-0.2,0.5-0.5c0-0.3-0.2-0.5-0.5-0.5
			C26.8,28.6,26.6,28.9,26.6,29.2 M17.5,12.3c0-0.3-0.2-0.5-0.5-0.5s-0.5,0.2-0.5,0.5c0,0.3,0.2,0.5,0.5,0.5
			C17.3,12.9,17.5,12.6,17.5,12.3 M37.9,12.3c0-0.3-0.2-0.5-0.5-0.5c-0.3,0-0.5,0.2-0.5,0.5c0,0.3,0.2,0.5,0.5,0.5
			C37.6,12.9,37.9,12.6,37.9,12.3 M27.7,7.3c0-0.3-0.2-0.5-0.5-0.5c-0.3,0-0.5,0.2-0.5,0.5c0,0.3,0.2,0.5,0.5,0.5
			C27.4,7.9,27.7,7.6,27.7,7.3 M25.3,16.2c0,0.2,0.2,0.3,0.3,0.3c0.1,0.4,0.3,0.7,0.3,0.8c0.2,0.3,0.8,0.6,1.2,0.6
			c0.4,0,1-0.4,1.2-0.6c0-0.1,0.2-0.4,0.3-0.8c0.1,0,0.3-0.1,0.3-0.3c0-0.2,0-0.4-0.1-0.4c0-0.1,0-0.2,0-0.3c0.1-0.5,0-1-0.3-1.3
			c-0.4-0.6-1.2-0.6-1.5-0.6c0.1,0,0.2-0.1,0.4-0.1c-0.7-0.1-0.9,0.1-1.3,0.3c-0.2,0-0.5,0.2-0.6,0.3c0.1-0.1,0.2-0.1,0.2-0.1
			c-0.4,0.2-0.5,0.6-0.5,0.6c-0.1,0.3,0,0.7,0.1,1.1C25.3,15.8,25.3,16,25.3,16.2 M27.2,21.4l0.5-0.7l-0.3-1.2l0.2-0.4l-0.4-0.4
			l-0.4,0.4l0.2,0.4l-0.3,1.2L27.2,21.4z M27.1,22.8c1.7,0,3.2-0.8,4.2-2c-0.1-0.7-0.3-1.1-0.5-1.3c-0.2-0.2-0.8-0.6-2.5-1.4
			L28,20.7l-0.8,1.2l-0.8-1.2l-0.4-2.6c-1.7,0.9-2.2,1.2-2.5,1.4c-0.2,0.2-0.4,0.6-0.5,1.3C24,22,25.5,22.8,27.1,22.8 M40,11l0-0.6
			l-0.6-0.1c-6.7-1.4-11.7-6.5-11.8-6.5l-0.5-0.5l-0.5,0.5c-0.1,0-5.1,5.1-11.8,6.5l-0.6,0.1l0,0.6c0,0,0,0.1,0,0.2
			c0,0.6,0,1.4,0.1,2.3l1.4,0c-0.1-0.7-0.1-1.4-0.1-2c5.7-1.4,10-5,11.4-6.3c1.4,1.3,5.8,4.9,11.5,6.3c0,4.5-1.3,14.6-11.5,19.3
			c-6.4-3-9.3-8.1-10.5-12.5l-1.4,0c1.3,4.9,4.4,10.7,11.7,13.9l0.3,0.1l0.3-0.1C38.8,27,40,15.8,40,11.2C40,11.1,40,11,40,11"/>
	</g>
	<g>
		<defs>
			<rect id="SVGID_3_" y="3.2" width="40" height="33.5"/>
		</defs>
		<clipPath id="SVGID_4_">
			<use xlink:href="#SVGID_3_"  overflow="visible"/>
		</clipPath>
		<path clip-path="url(#SVGID_4_)" fill="#C22126" d="M17.8,14.3l-4-0.1l-3.2-1.4c-0.1,0-0.2-0.1-0.3-0.1l-1.9-0.3L7.8,16l-1.3,1.9
			L5.1,16l-0.6-3.5l-1.9,0.3c-0.6,0.1-1,0.5-1.2,1.1l-1.3,4.7c0,0.1-0.1,0.3-0.1,0.4L0,23.3c0,0.8,0.7,1.5,1.5,1.6c0,0,0,0,0,0
			c0.8,0,1.5-0.7,1.5-1.5l0.1-4.1l0.4-1.6C3.8,18,4,18.5,4,19l-0.1,4.3c0,0.9-0.6,1.7-1.4,2.1l0,9.8c0,0.8,0.7,1.5,1.5,1.5
			c0.8,0,1.5-0.7,1.5-1.5l0-9.2c0-0.5,0.4-0.8,0.8-0.8c0.5,0,0.8,0.4,0.8,0.8l0,9.2c0,0.8,0.7,1.5,1.5,1.5s1.5-0.7,1.5-1.5l0-13.8
			l0.4-5.1l2.1,0.9c0.2,0.1,0.4,0.1,0.6,0.1l4.3,0.1c0.9,0,1.5-0.7,1.6-1.5C19.3,15,18.7,14.3,17.8,14.3 M6.5,17.1L7.2,16l-0.3-2.9
			l0.3-0.6l-0.2-0.2c-0.1,0-0.3,0-0.4,0c-0.1,0-0.3,0-0.4,0l-0.2,0.2l0.3,0.6L5.7,16L6.5,17.1z M6.4,11.7c1.5,0,2.7-1.2,2.7-2.7
			c0-1.5-1.2-2.7-2.7-2.7S3.7,7.5,3.7,9C3.7,10.5,4.9,11.7,6.4,11.7"/>
	</g>
</g>
</svg>
