<?xml version="1.0" encoding="utf-8"?>
<!-- Generator: Adobe Illustrator 18.0.0, SVG Export Plug-In . SVG Version: 6.00 Build 0)  -->
<!DOCTYPE svg PUBLIC "-//W3C//DTD SVG 1.1//EN" "http://www.w3.org/Graphics/SVG/1.1/DTD/svg11.dtd">
<svg version="1.1" id="Calque_1" xmlns="http://www.w3.org/2000/svg" xmlns:xlink="http://www.w3.org/1999/xlink" x="0px" y="0px"
	 width="40px" height="40px" viewBox="0 0 40 40" enable-background="new 0 0 40 40" xml:space="preserve">
<g>
	<path fill="#4E4E4F" d="M31.5,28.7v-7.1l-5.1,1.9l2.2,5.2H31.5z M17.8,26.7l0.8,2h8l-1.9-4.5L17.8,26.7z M4.4,33.1h31.2
		c0.4,0,0.7-0.3,0.7-0.7V13.5c0-0.4-0.3-0.7-0.7-0.7H28c-0.2,0.5-0.5,0.9-0.7,1.4h7.6v17.5H5.1V14.2h7.6c-0.3-0.4-0.5-0.9-0.7-1.4
		H4.4c-0.4,0-0.7,0.3-0.7,0.7v18.9C3.7,32.8,4,33.1,4.4,33.1 M25.8,22.2l1.6-0.6h-1.9L25.8,22.2z M7.1,30h25.9v-9.8H22.9
		c-0.2,0.2-0.4,0.5-0.6,0.7h10v8.5H7.8v-8.5h9.9c-0.2-0.2-0.4-0.4-0.6-0.7H7.1V30z M17.2,25.4l6.9-2.6l-0.5-1.3h-1.9
		c-0.3,0.3-0.5,0.5-0.6,0.6l-1,1l-1-1c0,0-0.3-0.3-0.6-0.6h-2.8L17.2,25.4z M7.1,18.8h8.8c-0.7-0.8-1.4-1.8-2.1-2.8H7.1V18.8z
		 M39,34.7H25.8c-0.1,0-0.2,0-0.2,0l-2.4,0.8H17l-2-0.8c-0.1,0-0.2-0.1-0.3-0.1H1c-0.4,0-0.7,0.3-0.7,0.7v1.2c0,1.9,1.6,3.4,3.6,3.4
		h32.3c2,0,3.6-1.5,3.6-3.4v-1.2C39.8,35,39.4,34.7,39,34.7 M38.3,36.7c0,1.1-1,2-2.1,2H3.8c-1.2,0-2.2-0.9-2.2-2v-0.6h12.9l2,0.8
		c0.1,0,0.2,0.1,0.3,0.1h6.5c0.1,0,0.2,0,0.2,0l2.4-0.8h12.3V36.7z M8.5,28.6l5.1-1.9l-1.5-3.5l-3.6,0.4V28.6z M32.9,16h-6.8
		c-0.7,1-1.4,2-2.1,2.8h8.9V16z M8.5,21.6v0.6l3-0.3l-0.1-0.3H8.5z M14.2,28l-1.6,0.6h1.9L14.2,28z"/>
	<path fill="#4E4E4F" d="M20,0c-4.4,0-8,3.4-8,7.5c0,6,8,13.7,8,13.7s8-7.8,8-13.7C28,3.4,24.4,0,20,0 M20,13.7
		c-3.7,0-6.6-2.8-6.6-6.2c0-3.4,3-6.2,6.6-6.2c3.7,0,6.6,2.8,6.6,6.2C26.6,10.9,23.7,13.7,20,13.7"/>
	<path fill="#4E4E4F" d="M22.8,7h-0.3V5.6c0-0.6-0.3-1.2-0.7-1.7c-0.5-0.4-1.1-0.7-1.7-0.7c0,0,0,0,0,0c-0.7,0-1.3,0.2-1.8,0.7
		c-0.5,0.4-0.7,1-0.7,1.7V7h-0.3c-0.5,0-0.9,0.4-0.9,0.8v2.5c0,0.5,0.4,0.8,0.9,0.8h5.6c0.5,0,0.9-0.4,0.9-0.8V7.8
		C23.7,7.4,23.3,7,22.8,7 M18.2,5.6c0-0.4,0.2-0.9,0.5-1.2C19.1,4.1,19.5,4,20,4c0,0,0,0,0,0c0,0,0,0,0,0c0.5,0,0.9,0.2,1.3,0.5
		c0.3,0.3,0.5,0.7,0.5,1.2V7h-3.6V5.6z M20.6,8.8c0,0.2-0.1,0.3-0.2,0.4v0.6c0,0.2-0.2,0.3-0.4,0.3c-0.2,0-0.4-0.2-0.4-0.3V9.2
		c-0.1-0.1-0.2-0.3-0.2-0.4V8.5c0-0.3,0.3-0.6,0.6-0.6c0.3,0,0.6,0.3,0.6,0.6V8.8z"/>
</g>
</svg>
