<?xml version="1.0" encoding="utf-8"?>
<!-- Generator: Adobe Illustrator 18.0.0, SVG Export Plug-In . SVG Version: 6.00 Build 0)  -->
<!DOCTYPE svg PUBLIC "-//W3C//DTD SVG 1.1//EN" "http://www.w3.org/Graphics/SVG/1.1/DTD/svg11.dtd">
<svg version="1.1" id="Calque_1" xmlns="http://www.w3.org/2000/svg" xmlns:xlink="http://www.w3.org/1999/xlink" x="0px" y="0px"
	 width="40px" height="40px" viewBox="0 0 40 40" enable-background="new 0 0 40 40" xml:space="preserve">
<g>
	<path fill="#FFFFFF" d="M39.9,31.4c0,0,0-0.1,0-0.1c0,0,0,0,0,0c0,0,0,0,0-0.1l-5.4-6.5V7.1c0-0.5-0.4-0.7-0.7-0.7H6.2
		c-0.3,0-0.7,0.2-0.7,0.7v17.6l-5.3,6.5c0,0,0,0,0,0.1c0,0,0,0,0,0c0,0,0,0.1,0,0.1c0,0,0,0,0,0v1.9c0,0.2,0.2,0.3,0.3,0.3h39.1
		c0.2,0,0.3-0.2,0.3-0.3L39.9,31.4C39.9,31.4,39.9,31.4,39.9,31.4z M6.2,7.1h27.5c0,0,0,0,0,0v17.4H6.1L6.2,7.1
		C6.1,7.1,6.2,7.1,6.2,7.1z M6,25.2h27.9l4.9,5.9H1.2L6,25.2z M39.2,32.9H0.8v-1.2h38.4V32.9z"/>
	<path fill="#FFFFFF" d="M32.3,8H7.4C7.2,8,7.1,8.1,7.1,8.3v14.5c0,0.2,0.2,0.3,0.3,0.3h24.9c0.2,0,0.3-0.2,0.3-0.3V8.3
		C32.7,8.1,32.5,8,32.3,8z M32,22.5H7.8V8.7H32V22.5z"/>
	<path fill="#FFFFFF" d="M33.6,28.7H6.5c-0.2,0-0.3-0.2-0.3-0.3c0-0.2,0.2-0.3,0.3-0.3h27.1c0.2,0,0.3,0.2,0.3,0.3
		C33.9,28.5,33.8,28.7,33.6,28.7"/>
	<path fill="#FFFFFF" d="M18.6,17.2C18.6,17.2,18.6,17.2,18.6,17.2l-0.8,0.4c0,0-0.1,0-0.1,0c0,0-0.1,0-0.1-0.1l-0.4-0.8
		c-0.4,0.1-0.8,0.1-1.2,0.1l-0.3,0.8c0,0.1-0.1,0.1-0.2,0.1l-0.8-0.3c0,0-0.1,0-0.1-0.1c0,0,0-0.1,0-0.1l0.3-0.8
		c-0.3-0.2-0.6-0.4-0.8-0.7L13.2,16c-0.1,0-0.2,0-0.2-0.1l-0.4-0.8c0,0,0-0.1,0-0.1c0,0,0-0.1,0.1-0.1l0.8-0.4
		c-0.1-0.3-0.1-0.7-0.1-1.1l-0.8-0.3c0,0-0.1,0-0.1-0.1c0,0,0-0.1,0-0.1l0.3-0.9c0-0.1,0.1-0.1,0.2-0.1l0.8,0.3
		c0.2-0.3,0.5-0.7,0.8-0.9l-0.4-0.8c0-0.1,0-0.2,0.1-0.2l0.8-0.4c0,0,0.1,0,0.1,0c0,0,0.1,0,0.1,0.1l0.4,0.8
		c0.4-0.1,0.8-0.1,1.2-0.1l0.3-0.8c0-0.1,0.1-0.1,0.2-0.1l0.8,0.3c0,0,0.1,0,0.1,0.1c0,0,0,0.1,0,0.1L18,11.3
		c0.3,0.2,0.6,0.4,0.8,0.7l0.8-0.4c0,0,0.1,0,0.1,0c0,0,0.1,0,0.1,0.1l0.4,0.8c0,0.1,0,0.2-0.1,0.2l-0.8,0.4
		c0.1,0.3,0.1,0.7,0.1,1.1l0.8,0.3c0,0,0.1,0,0.1,0.1c0,0,0,0.1,0,0.1l-0.3,0.9c0,0.1-0.1,0.1-0.2,0.1L19,15.3
		c-0.2,0.3-0.5,0.7-0.8,0.9l0.4,0.8C18.7,17,18.6,17.1,18.6,17.2 M17.8,17.2l0.5-0.3l-0.4-0.8c0-0.1,0-0.1,0-0.2
		c0.4-0.3,0.7-0.6,0.9-1c0-0.1,0.1-0.1,0.2-0.1l0.8,0.3l0.2-0.6l-0.8-0.3c-0.1,0-0.1-0.1-0.1-0.2c0.1-0.4,0-0.8-0.1-1.2
		c0-0.1,0-0.2,0.1-0.2l0.8-0.4l-0.3-0.5l-0.8,0.4c-0.1,0-0.2,0-0.2,0c-0.2-0.3-0.5-0.6-0.9-0.8c-0.1,0-0.1-0.1-0.1-0.2l0.3-0.8
		l-0.6-0.2l-0.3,0.8c0,0.1-0.1,0.1-0.2,0.1c-0.4-0.1-0.9-0.1-1.3,0.1c-0.1,0-0.2,0-0.2-0.1l-0.4-0.8l-0.5,0.3l0.4,0.8
		c0,0.1,0,0.1,0,0.2c-0.4,0.3-0.7,0.6-0.8,1c0,0.1-0.1,0.1-0.2,0.1L13,12.4L12.8,13l0.8,0.3c0.1,0,0.1,0.1,0.1,0.2
		c-0.1,0.4,0,0.8,0.1,1.2c0,0.1,0,0.2-0.1,0.2L13,15.2l0.3,0.5l0.8-0.4c0.1,0,0.2,0,0.2,0c0.2,0.3,0.5,0.6,0.9,0.8
		c0.1,0,0.1,0.1,0.1,0.2l-0.3,0.8l0.6,0.2l0.3-0.8c0-0.1,0.1-0.1,0.2-0.1c0.4,0.1,0.9,0.1,1.3-0.1c0.1,0,0.2,0,0.2,0.1L17.8,17.2z
		 M17.4,15.1c-0.7,0.6-1.8,0.4-2.3-0.3c-0.6-0.7-0.4-1.8,0.3-2.3c0.7-0.6,1.8-0.4,2.3,0.3C18.3,13.5,18.1,14.6,17.4,15.1 M15.6,12.7
		c-0.6,0.5-0.7,1.3-0.3,1.9c0.5,0.6,1.3,0.7,1.9,0.3c0.6-0.5,0.7-1.3,0.3-1.9C17,12.4,16.2,12.3,15.6,12.7"/>
	<path fill="#FFFFFF" d="M15.5,17.8C15.5,17.8,15.5,17.7,15.5,17.8l-0.9-0.3c-0.1,0-0.1-0.1-0.1-0.1c0-0.1,0-0.1,0-0.2l0.3-0.8
		c-0.3-0.2-0.5-0.4-0.7-0.7l-0.7,0.4c-0.1,0-0.2,0-0.3-0.1l-0.4-0.8c0,0,0-0.1,0-0.2c0-0.1,0.1-0.1,0.1-0.1l0.7-0.4
		c-0.1-0.3-0.1-0.7-0.1-1l-0.8-0.3c-0.1,0-0.1-0.1-0.1-0.1c0,0,0-0.1,0-0.2l0.3-0.9c0-0.1,0.2-0.2,0.3-0.1l0.8,0.3
		c0.2-0.3,0.4-0.6,0.7-0.9l-0.4-0.7c0-0.1,0-0.1,0-0.2c0-0.1,0.1-0.1,0.1-0.1L15,10c0.1,0,0.1,0,0.2,0c0.1,0,0.1,0.1,0.1,0.1
		l0.4,0.7c0.4-0.1,0.7-0.1,1.1-0.1l0.3-0.8c0-0.1,0.2-0.2,0.3-0.1l0.8,0.3c0.1,0,0.1,0.1,0.1,0.1c0,0,0,0.1,0,0.2L18,11.2
		c0.3,0.2,0.5,0.4,0.7,0.7l0.7-0.4c0,0,0.1,0,0.2,0c0.1,0,0.1,0.1,0.1,0.1l0.4,0.8c0,0.1,0,0.1,0,0.2c0,0.1-0.1,0.1-0.1,0.1
		l-0.7,0.4c0.1,0.3,0.1,0.7,0.1,1l0.8,0.3c0.1,0,0.1,0.1,0.1,0.1c0,0,0,0.1,0,0.2l-0.3,0.9c0,0.1-0.2,0.2-0.3,0.1L19,15.3
		c-0.2,0.3-0.4,0.6-0.7,0.9l0.4,0.7c0,0.1,0,0.2-0.1,0.3c0,0,0,0,0,0l-0.8,0.4c-0.1,0-0.1,0-0.2,0c-0.1,0-0.1-0.1-0.1-0.1l-0.4-0.7
		c-0.4,0.1-0.7,0.1-1.1,0.1l-0.3,0.8C15.7,17.7,15.6,17.8,15.5,17.8z M14.1,15.6L14.1,15.6c0.2,0.3,0.5,0.6,0.8,0.7l0,0l-0.3,0.9
		c0,0,0,0.1,0,0.1c0,0,0,0,0.1,0.1l0.8,0.3c0,0,0.1,0,0.1-0.1l0.3-0.9l0,0c0.4,0.1,0.8,0,1.2-0.1l0,0l0.4,0.8c0,0,0,0,0.1,0
		c0,0,0.1,0,0.1,0l0.8-0.4c0,0,0,0,0,0c0,0,0-0.1,0-0.1l-0.4-0.8l0,0c0.3-0.2,0.6-0.5,0.8-0.9l0,0l0.9,0.3c0,0,0.1,0,0.1-0.1
		l0.3-0.9c0,0,0-0.1,0-0.1c0,0,0,0-0.1,0l-0.9-0.3l0,0c0-0.3,0-0.7-0.1-1l0,0l0.8-0.4c0,0,0,0,0-0.1c0,0,0-0.1,0-0.1l-0.4-0.8
		c0,0,0,0-0.1,0c0,0-0.1,0-0.1,0L18.8,12l0,0c-0.2-0.3-0.5-0.5-0.8-0.7l0,0l0.3-0.9c0,0,0-0.1,0-0.1c0,0,0,0-0.1-0.1L17.3,10
		c-0.1,0-0.1,0-0.1,0.1l-0.3,0.9l0,0c-0.4-0.1-0.8,0-1.2,0.1l0,0l-0.4-0.8c0,0,0,0-0.1,0c0,0-0.1,0-0.1,0l-0.8,0.4c0,0,0,0,0,0.1
		c0,0,0,0.1,0,0.1l0.4,0.8l0,0c-0.3,0.2-0.6,0.5-0.8,0.9l0,0l-0.9-0.3c-0.1,0-0.1,0-0.1,0.1L12.5,13c0,0,0,0.1,0,0.1c0,0,0,0,0.1,0
		l0.9,0.3l0,0c0,0.4,0,0.7,0.1,1l0,0L12.7,15c0,0,0,0,0,0.1c0,0,0,0.1,0,0.1l0.4,0.8c0,0,0.1,0.1,0.1,0L14.1,15.6z M15.5,17.4
		l-0.7-0.2l0.3-0.9c0,0,0-0.1,0-0.1c-0.4-0.2-0.7-0.5-0.9-0.8c0,0-0.1-0.1-0.1,0l-0.8,0.4l-0.3-0.6l0.8-0.4c0,0,0.1-0.1,0.1-0.1
		c-0.1-0.4-0.2-0.8-0.1-1.2c0,0,0-0.1-0.1-0.1L12.8,13l0.2-0.7l0.9,0.3c0,0,0.1,0,0.1,0c0.2-0.4,0.5-0.7,0.9-1c0,0,0.1-0.1,0-0.1
		l-0.4-0.8l0.6-0.3l0.4,0.8c0,0,0.1,0.1,0.1,0.1c0.4-0.1,0.9-0.2,1.3-0.1c0,0,0.1,0,0.1-0.1l0.3-0.9l0.7,0.2l-0.3,0.9
		c0,0,0,0.1,0,0.1c0.4,0.2,0.7,0.5,0.9,0.8c0,0,0.1,0.1,0.1,0l0.8-0.4l0.3,0.6l-0.8,0.4c0,0-0.1,0.1-0.1,0.1
		c0.1,0.4,0.2,0.8,0.1,1.2c0,0,0,0.1,0.1,0.1l0.9,0.3l-0.2,0.7L19,15c0,0-0.1,0-0.1,0c-0.2,0.4-0.5,0.7-0.9,1c0,0-0.1,0.1,0,0.1
		l0.4,0.8l-0.6,0.3l-0.4-0.8c0,0-0.1-0.1-0.1-0.1c-0.4,0.1-0.9,0.2-1.3,0.1c0,0-0.1,0-0.1,0.1L15.5,17.4z M14.9,17.1l0.4,0.2
		l0.3-0.7c0-0.1,0.1-0.2,0.2-0.1c0.4,0.1,0.9,0.1,1.3-0.1c0.1,0,0.2,0,0.3,0.1l0.4,0.7l0.4-0.2l-0.4-0.7c0-0.1,0-0.2,0.1-0.3
		c0.4-0.3,0.6-0.6,0.8-1c0-0.1,0.2-0.1,0.3-0.1l0.8,0.2l0.1-0.5l-0.8-0.2c-0.1,0-0.2-0.1-0.1-0.2c0.1-0.4,0-0.8-0.1-1.2
		c0-0.1,0-0.2,0.1-0.3l0.7-0.4L19.5,12l-0.7,0.4c-0.1,0-0.2,0-0.3-0.1c-0.2-0.3-0.5-0.6-0.9-0.8c-0.1-0.1-0.1-0.2-0.1-0.3l0.3-0.8
		l-0.4-0.2l-0.3,0.7c0,0.1-0.1,0.2-0.2,0.1c-0.4-0.1-0.9-0.1-1.3,0.1c-0.1,0-0.2,0-0.3-0.1L15,10.5l-0.4,0.2l0.4,0.7
		c0,0.1,0,0.2-0.1,0.3c-0.4,0.3-0.6,0.6-0.8,1c0,0.1-0.2,0.1-0.3,0.1L13,12.5l-0.1,0.5l0.8,0.2c0.1,0,0.2,0.1,0.1,0.2
		c-0.1,0.4,0,0.8,0.1,1.2c0,0.1,0,0.2-0.1,0.3l-0.7,0.4l0.2,0.4l0.7-0.4c0.1,0,0.2,0,0.3,0.1c0.2,0.3,0.5,0.6,0.9,0.8
		c0.1,0.1,0.1,0.2,0.1,0.3L14.9,17.1z M16.4,15.5c-0.5,0-1.1-0.3-1.4-0.7c-0.6-0.8-0.4-1.8,0.3-2.4c0.3-0.2,0.7-0.3,1-0.3
		c0.5,0,1.1,0.2,1.4,0.7c0.6,0.8,0.4,1.8-0.3,2.4C17.1,15.4,16.8,15.5,16.4,15.5z M16.4,12.2c-0.4,0-0.7,0.1-1,0.3
		c-0.7,0.5-0.9,1.5-0.3,2.3c0.3,0.4,0.8,0.6,1.3,0.6c0.4,0,0.7-0.1,1-0.3c0.7-0.5,0.9-1.5,0.3-2.3C17.4,12.4,16.9,12.2,16.4,12.2z
		 M16.4,15.2C16.4,15.2,16.4,15.2,16.4,15.2c-0.5,0-0.9-0.2-1.1-0.6c-0.2-0.3-0.3-0.7-0.3-1c0.1-0.4,0.2-0.7,0.5-0.9
		c0.2-0.2,0.5-0.3,0.9-0.3c0.4,0,0.9,0.2,1.1,0.6c0.2,0.3,0.3,0.7,0.3,1c-0.1,0.4-0.2,0.7-0.5,0.9C17,15.1,16.7,15.2,16.4,15.2z
		 M16.4,12.5c-0.3,0-0.6,0.1-0.8,0.3c-0.3,0.2-0.5,0.5-0.5,0.9c0,0.3,0,0.7,0.2,1c0.2,0.3,0.6,0.5,1,0.5c0,0,0,0,0,0
		c0.3,0,0.6-0.1,0.8-0.3c0.3-0.2,0.5-0.5,0.5-0.9c0-0.3,0-0.7-0.2-1C17.2,12.7,16.8,12.5,16.4,12.5z"/>
	<path fill="#FFFFFF" d="M24.8,20.7C24.8,20.7,24.8,20.7,24.8,20.7L24,21.1c0,0-0.1,0-0.1,0c0,0-0.1,0-0.1-0.1l-0.4-0.8
		c-0.4,0.1-0.8,0.1-1.2,0.1l-0.3,0.8c0,0.1-0.1,0.1-0.2,0.1l-0.8-0.3c0,0-0.1,0-0.1-0.1c0,0,0-0.1,0-0.1l0.3-0.8
		c-0.3-0.2-0.6-0.4-0.8-0.7l-0.8,0.4c-0.1,0-0.2,0-0.2-0.1l-0.4-0.8c0,0,0-0.1,0-0.1c0,0,0-0.1,0.1-0.1l0.8-0.4
		c-0.1-0.3-0.1-0.7-0.1-1.1l-0.8-0.3c0,0-0.1,0-0.1-0.1c0,0,0-0.1,0-0.1l0.3-0.9c0-0.1,0.1-0.1,0.2-0.1l0.8,0.3
		c0.2-0.3,0.5-0.7,0.8-0.9l-0.4-0.8c0-0.1,0-0.2,0.1-0.2l0.8-0.4c0,0,0.1,0,0.1,0c0,0,0.1,0,0.1,0.1l0.4,0.8
		c0.4-0.1,0.8-0.1,1.2-0.1l0.3-0.8c0-0.1,0.1-0.1,0.2-0.1l0.8,0.3c0,0,0.1,0,0.1,0.1c0,0,0,0.1,0,0.1l-0.3,0.8
		c0.3,0.2,0.6,0.4,0.8,0.7l0.8-0.4c0,0,0.1,0,0.1,0c0,0,0.1,0,0.1,0.1l0.4,0.8c0,0.1,0,0.2-0.1,0.2l-0.8,0.4
		c0.1,0.3,0.1,0.7,0.1,1.1l0.8,0.3c0,0,0.1,0,0.1,0.1c0,0,0,0.1,0,0.1L26.3,19c0,0.1-0.1,0.1-0.2,0.1l-0.8-0.3
		c-0.2,0.3-0.5,0.7-0.8,0.9l0.4,0.8C24.9,20.6,24.8,20.7,24.8,20.7 M24,20.8l0.5-0.3l-0.4-0.8c0-0.1,0-0.1,0-0.2
		c0.4-0.3,0.7-0.6,0.9-1c0-0.1,0.1-0.1,0.2-0.1l0.8,0.3l0.2-0.6l-0.8-0.3c-0.1,0-0.1-0.1-0.1-0.2c0.1-0.4,0-0.8-0.1-1.2
		c0-0.1,0-0.2,0.1-0.2L26,16l-0.3-0.5L25,15.9c-0.1,0-0.2,0-0.2,0c-0.2-0.3-0.5-0.6-0.9-0.8c-0.1,0-0.1-0.1-0.1-0.2l0.3-0.8
		l-0.6-0.2l-0.3,0.8c0,0.1-0.1,0.1-0.2,0.1c-0.4-0.1-0.9-0.1-1.3,0.1c-0.1,0-0.2,0-0.2-0.1l-0.4-0.8l-0.5,0.3l0.4,0.8
		c0,0.1,0,0.1,0,0.2c-0.4,0.3-0.7,0.6-0.8,1c0,0.1-0.1,0.1-0.2,0.1L19.2,16L19,16.5l0.8,0.3c0.1,0,0.1,0.1,0.1,0.2
		c-0.1,0.4,0,0.8,0.1,1.2c0,0.1,0,0.2-0.1,0.2l-0.8,0.4l0.3,0.5l0.8-0.4c0.1,0,0.2,0,0.2,0c0.2,0.3,0.5,0.6,0.9,0.8
		c0.1,0,0.1,0.1,0.1,0.2l-0.3,0.8l0.6,0.2l0.3-0.8C22,20,22,20,22.1,20c0.4,0.1,0.9,0.1,1.3-0.1c0.1,0,0.2,0,0.2,0.1L24,20.8z
		 M23.6,18.7c-0.7,0.6-1.8,0.4-2.3-0.3c-0.6-0.7-0.4-1.8,0.3-2.3c0.7-0.6,1.8-0.4,2.3,0.3C24.5,17.1,24.3,18.1,23.6,18.7 M21.8,16.3
		c-0.6,0.5-0.7,1.3-0.3,1.9c0.5,0.6,1.3,0.7,1.9,0.3c0.6-0.5,0.7-1.3,0.3-1.9C23.2,15.9,22.4,15.8,21.8,16.3"/>
	<path fill="#FFFFFF" d="M21.7,21.3C21.7,21.3,21.7,21.3,21.7,21.3L20.8,21c-0.1,0-0.1-0.1-0.1-0.1c0-0.1,0-0.1,0-0.2l0.3-0.8
		c-0.3-0.2-0.5-0.4-0.7-0.7l-0.7,0.4c-0.1,0-0.2,0-0.3-0.1l-0.4-0.8c0,0,0-0.1,0-0.2c0-0.1,0.1-0.1,0.1-0.1l0.7-0.4
		c-0.1-0.3-0.1-0.7-0.1-1l-0.8-0.3c-0.1,0-0.1-0.1-0.1-0.1c0,0,0-0.1,0-0.2l0.3-0.9c0-0.1,0.2-0.2,0.3-0.1l0.8,0.3
		c0.2-0.3,0.4-0.6,0.7-0.9l-0.4-0.7c0-0.1,0-0.1,0-0.2c0-0.1,0.1-0.1,0.1-0.1l0.8-0.4c0,0,0.1,0,0.2,0c0.1,0,0.1,0.1,0.1,0.1
		l0.4,0.7c0.4-0.1,0.7-0.1,1.1-0.1l0.3-0.8c0-0.1,0.2-0.2,0.3-0.1l0.8,0.3c0.1,0,0.1,0.1,0.1,0.1c0,0,0,0.1,0,0.2l-0.3,0.8
		c0.3,0.2,0.5,0.4,0.7,0.7l0.7-0.4c0,0,0.1,0,0.2,0c0.1,0,0.1,0.1,0.1,0.1l0.4,0.8c0,0.1,0,0.1,0,0.2c0,0.1-0.1,0.1-0.1,0.1
		l-0.7,0.4c0.1,0.3,0.1,0.7,0.1,1l0.8,0.3c0.1,0,0.1,0.1,0.1,0.1c0,0,0,0.1,0,0.2L26.3,19c0,0.1-0.2,0.2-0.3,0.1l-0.8-0.3
		c-0.2,0.3-0.4,0.6-0.7,0.9l0.4,0.7c0,0.1,0,0.2-0.1,0.3c0,0,0,0,0,0L24,21.2c-0.1,0-0.1,0-0.2,0c-0.1,0-0.1-0.1-0.1-0.1l-0.4-0.7
		c-0.4,0.1-0.7,0.1-1.1,0.1l-0.3,0.8C21.9,21.3,21.8,21.3,21.7,21.3z M20.3,19.1L20.3,19.1c0.2,0.3,0.5,0.6,0.8,0.7l0,0l-0.3,0.9
		c0,0,0,0.1,0,0.1c0,0,0,0,0.1,0.1l0.8,0.3c0,0,0.1,0,0.1-0.1l0.3-0.9l0,0c0.4,0.1,0.8,0,1.2-0.1l0,0l0.4,0.8c0,0,0,0,0.1,0
		c0,0,0.1,0,0.1,0l0.8-0.4c0,0,0,0,0,0c0,0,0-0.1,0-0.1l-0.4-0.8l0,0c0.3-0.2,0.6-0.5,0.8-0.9l0,0l0.9,0.3c0,0,0.1,0,0.1-0.1
		l0.3-0.9c0,0,0-0.1,0-0.1c0,0,0,0-0.1,0l-0.9-0.3l0,0c0-0.3,0-0.7-0.1-1l0,0l0.8-0.4c0,0,0,0,0-0.1c0,0,0-0.1,0-0.1l-0.4-0.8
		c0,0,0,0-0.1,0c0,0-0.1,0-0.1,0L25,15.6l0,0c-0.2-0.3-0.5-0.5-0.8-0.7l0,0l0.3-0.9c0,0,0-0.1,0-0.1c0,0,0,0-0.1-0.1l-0.8-0.3
		c0,0-0.1,0-0.1,0.1l-0.3,0.9l0,0c-0.4-0.1-0.8,0-1.2,0.1l0,0l-0.4-0.8c0,0,0,0-0.1,0c0,0-0.1,0-0.1,0L20.5,14c0,0,0,0,0,0.1
		c0,0,0,0.1,0,0.1l0.4,0.8l0,0c-0.3,0.2-0.6,0.5-0.8,0.9l0,0l-0.9-0.3c-0.1,0-0.1,0-0.1,0.1l-0.3,0.9c0,0,0,0.1,0,0.1c0,0,0,0,0.1,0
		l0.9,0.3l0,0c0,0.4,0,0.7,0.1,1l0,0l-0.8,0.4c0,0,0,0,0,0.1c0,0,0,0.1,0,0.1l0.4,0.8c0,0,0.1,0.1,0.1,0L20.3,19.1z M21.7,21
		L21,20.7l0.3-0.9c0,0,0-0.1,0-0.1c-0.4-0.2-0.7-0.5-0.9-0.8c0,0-0.1-0.1-0.1,0l-0.8,0.4l-0.3-0.6l0.8-0.4c0,0,0.1-0.1,0.1-0.1
		c-0.1-0.4-0.2-0.8-0.1-1.2c0,0,0-0.1-0.1-0.1L19,16.6l0.2-0.7l0.9,0.3c0,0,0.1,0,0.1,0c0.2-0.4,0.5-0.7,0.9-1c0,0,0.1-0.1,0-0.1
		l-0.4-0.8l0.6-0.3l0.4,0.8c0,0,0.1,0.1,0.1,0.1c0.4-0.1,0.9-0.2,1.3-0.1c0,0,0.1,0,0.1-0.1l0.3-0.9l0.7,0.2l-0.3,0.9
		c0,0,0,0.1,0,0.1c0.4,0.2,0.7,0.5,0.9,0.8c0,0,0.1,0.1,0.1,0l0.8-0.4l0.3,0.6l-0.8,0.4c0,0-0.1,0.1,0,0.1c0.1,0.4,0.2,0.8,0.1,1.2
		c0,0,0,0.1,0.1,0.1l0.9,0.3L26,18.8l-0.9-0.3c0,0-0.1,0-0.1,0c-0.2,0.4-0.5,0.7-0.9,1c0,0-0.1,0.1,0,0.1l0.4,0.8l-0.6,0.3L23.5,20
		c0,0-0.1-0.1-0.1-0.1c-0.4,0.1-0.9,0.2-1.3,0.1c-0.1,0-0.1,0-0.1,0.1L21.7,21z M21.1,20.7l0.4,0.2l0.3-0.7c0-0.1,0.1-0.2,0.2-0.1
		c0.4,0.1,0.9,0.1,1.3-0.1c0.1,0,0.2,0,0.3,0.1l0.4,0.7l0.4-0.2l-0.4-0.7c0-0.1,0-0.2,0.1-0.3c0.4-0.3,0.6-0.6,0.8-1
		c0-0.1,0.2-0.1,0.3-0.1l0.8,0.2l0.1-0.5L25.4,18c-0.1,0-0.2-0.1-0.1-0.2c0.1-0.4,0-0.8-0.1-1.2c0-0.1,0-0.2,0.1-0.3L26,16l-0.2-0.4
		L25,15.9c-0.1,0-0.2,0-0.3-0.1c-0.2-0.3-0.5-0.6-0.9-0.8c-0.1-0.1-0.1-0.2-0.1-0.3l0.3-0.8l-0.4-0.2l-0.3,0.7
		c0,0.1-0.1,0.2-0.2,0.1c-0.4-0.1-0.9-0.1-1.3,0.1c-0.1,0-0.2,0-0.3-0.1L21.2,14l-0.4,0.2l0.4,0.7c0,0.1,0,0.2-0.1,0.3
		c-0.4,0.3-0.6,0.6-0.8,1c0,0.1-0.2,0.1-0.3,0.1L19.2,16l-0.1,0.5l0.8,0.2c0.1,0,0.2,0.1,0.1,0.2c-0.1,0.4,0,0.8,0.1,1.2
		c0,0.1,0,0.2-0.1,0.3l-0.7,0.4l0.2,0.4l0.7-0.4c0.1,0,0.2,0,0.3,0.1c0.2,0.3,0.5,0.6,0.9,0.8c0.1,0,0.1,0.2,0.1,0.3L21.1,20.7z
		 M22.6,19.1c-0.5,0-1.1-0.3-1.4-0.7c-0.6-0.8-0.4-1.8,0.3-2.4c0.3-0.2,0.7-0.3,1-0.3c0.5,0,1.1,0.2,1.4,0.7
		c0.6,0.8,0.4,1.8-0.3,2.4C23.3,19,23,19.1,22.6,19.1z M22.6,15.7c-0.4,0-0.7,0.1-1,0.3c-0.7,0.5-0.9,1.5-0.3,2.3
		c0.3,0.4,0.8,0.6,1.3,0.6c0.4,0,0.7-0.1,1-0.3c0.7-0.5,0.9-1.5,0.3-2.3C23.6,16,23.1,15.7,22.6,15.7z M22.6,18.8L22.6,18.8
		c-0.4,0-0.9-0.2-1.1-0.6c-0.2-0.3-0.3-0.7-0.3-1c0.1-0.4,0.2-0.7,0.5-0.9c0.2-0.2,0.5-0.3,0.9-0.3c0.4,0,0.9,0.2,1.1,0.6
		c0.5,0.6,0.3,1.5-0.3,2C23.2,18.7,22.9,18.8,22.6,18.8z M22.6,16.1c-0.3,0-0.6,0.1-0.8,0.3c-0.3,0.2-0.5,0.5-0.5,0.9
		c0,0.3,0,0.7,0.2,1c0.2,0.3,0.6,0.5,1,0.5l0,0c0.3,0,0.6-0.1,0.8-0.3c0.6-0.4,0.7-1.3,0.3-1.8C23.4,16.2,23,16.1,22.6,16.1z"/>
</g>
</svg>
