<?xml version="1.0" encoding="utf-8"?>
<!-- Generator: Adobe Illustrator 20.0.0, SVG Export Plug-In . SVG Version: 6.00 Build 0)  -->
<svg version="1.1" id="Isolation_Mode" xmlns="http://www.w3.org/2000/svg" xmlns:xlink="http://www.w3.org/1999/xlink" x="0px"
	 y="0px" viewBox="0 0 47.8 42.7" style="enable-background:new 0 0 47.8 42.7;" xml:space="preserve">
<style type="text/css">
	.st0{fill:#FFFFFF;}
</style>
<g>
	<path class="st0" d="M46,34.6H1.6c-0.8,0-1.5-0.7-1.5-1.5V1.5C0.1,0.7,0.8,0,1.6,0H46c0.8,0,1.5,0.7,1.5,1.5v31.6
		C47.5,34,46.9,34.6,46,34.6z M3.1,31.6h41.4V3H3.1V31.6z"/>
</g>
<g>
	<path class="st0" d="M9.4,26C7,26,5,24.1,5,21.6c0-2.4,2-4.4,4.4-4.4c2.4,0,4.4,2,4.4,4.4C13.9,24.1,11.9,26,9.4,26z M9.4,20.2
		c-0.8,0-1.4,0.6-1.4,1.4C8,22.4,8.7,23,9.4,23c0.8,0,1.4-0.6,1.4-1.4C10.9,20.8,10.2,20.2,9.4,20.2z M28.6,25c-2.4,0-4.4-2-4.4-4.4
		s2-4.4,4.4-4.4c2.4,0,4.4,2,4.4,4.4S31.1,25,28.6,25z M28.6,19.2c-0.8,0-1.4,0.6-1.4,1.4c0,0.8,0.6,1.4,1.4,1.4
		c0.8,0,1.4-0.6,1.4-1.4C30,19.8,29.4,19.2,28.6,19.2z M38.2,20.6c-2.4,0-4.4-2-4.4-4.4c0-2.4,2-4.4,4.4-4.4c2.4,0,4.4,2,4.4,4.4
		C42.6,18.6,40.6,20.6,38.2,20.6z M38.2,14.7c-0.8,0-1.4,0.6-1.4,1.4c0,0.8,0.6,1.4,1.4,1.4c0.8,0,1.4-0.6,1.4-1.4
		C39.6,15.4,39,14.7,38.2,14.7z M19,16.3c-2.4,0-4.4-2-4.4-4.4c0-2.4,2-4.4,4.4-4.4c2.4,0,4.4,2,4.4,4.4
		C23.5,14.3,21.5,16.3,19,16.3z M19,10.5c-0.8,0-1.4,0.6-1.4,1.4c0,0.8,0.6,1.4,1.4,1.4c0.8,0,1.4-0.6,1.4-1.4
		C20.5,11.1,19.8,10.5,19,10.5z"/>
</g>
<g>
	<path class="st0" d="M12.1,20.5c-0.4,0-0.8-0.1-1.1-0.4c-0.6-0.6-0.6-1.5,0-2.1l4.5-4.5c0.6-0.6,1.5-0.6,2.1,0
		c0.6,0.6,0.6,1.5,0,2.1L13.1,20C12.8,20.3,12.4,20.5,12.1,20.5z"/>
</g>
<g>
	<path class="st0" d="M26.2,20c-0.4,0-0.7-0.1-1-0.4l-4.6-4.2c-0.6-0.6-0.7-1.5-0.1-2.1c0.6-0.6,1.5-0.7,2.1-0.1l4.6,4.2
		c0.6,0.6,0.7,1.5,0.1,2.1C27,19.8,26.6,20,26.2,20z"/>
</g>
<g>
	<path class="st0" d="M31.5,20.8c-0.6,0-1.1-0.3-1.3-0.8c-0.4-0.7-0.1-1.6,0.7-2l3.4-1.7c0.7-0.4,1.6-0.1,2,0.7
		c0.4,0.7,0.1,1.6-0.7,2l-3.4,1.7C31.9,20.8,31.7,20.8,31.5,20.8z"/>
</g>
<g>
	<path class="st0" d="M34.5,42.4H13.2c-0.8,0-1.5-0.7-1.5-1.5s0.7-1.5,1.5-1.5h21.3c0.8,0,1.5,0.7,1.5,1.5S35.3,42.4,34.5,42.4z"/>
</g>
<g>
	<path class="st0" d="M18.5,41.4c-0.8,0-1.5-0.7-1.5-1.5v-6.3c0-0.8,0.7-1.5,1.5-1.5s1.5,0.7,1.5,1.5v6.3
		C20,40.7,19.3,41.4,18.5,41.4z"/>
</g>
<g>
	<path class="st0" d="M29.2,41.4c-0.8,0-1.5-0.7-1.5-1.5v-6.3c0-0.8,0.7-1.5,1.5-1.5s1.5,0.7,1.5,1.5v6.3
		C30.7,40.7,30,41.4,29.2,41.4z"/>
</g>
</svg>
