<?xml version="1.0" encoding="utf-8"?>
<!-- Generated by IcoMoon.io -->
<!DOCTYPE svg PUBLIC "-//W3C//DTD SVG 1.1//EN" "http://www.w3.org/Graphics/SVG/1.1/DTD/svg11.dtd">
<svg version="1.1" xmlns="http://www.w3.org/2000/svg" xmlns:xlink="http://www.w3.org/1999/xlink" width="1024" height="1024" viewBox="0 0 1024 1024"><g id="icomoon-ignore">
</g>
<path d="M74.563 136.545c0 0 155.983 206.781 427.162 221.097 0 0-36.726-122.13 75.858-215.562 112.596-93.588 251.845-14.349 278.559 20.941 0 0 79.188-12.401 134.461-49.603 0 0-18.040 71.398-84.859 114.394 0 0 78.236-10.388 114.511-31.414 0 0-38.195 61.082-103.992 107.784 0 0 27.604 258.043-194.176 471.316-221.796 213.238-586.749 168.824-718.344 57.224 0 0 178.839 20.086 304.796-87.288 0 0-148.813-2.831-191.718-141.668 0 0 74.371 5.734 87.283-8.576 0 0-160.287-38.674-161.723-206.065 0 0 48.681 24.338 92.956 25.774 0 0-154.481-111.626-60.774-278.354z" fill="rgb(68, 68, 68)"></path>
</svg>
