<svg id="Layer_1" data-name="Layer 1" xmlns="http://www.w3.org/2000/svg" viewBox="0 0 143 96.2"><defs><style>.cls-1{fill:#121b42;}</style></defs><title>icon-management-suite</title><path class="cls-1" d="M37,89.81a1.1,1.1,0,0,0-1.1,1.1v15.51a1.1,1.1,0,0,0,1.1,1.1H50.34a1.1,1.1,0,0,0,1.1-1.1V90.91a1.1,1.1,0,0,0-1.1-1.1Zm12.23,15.54H38.11V92H49.23ZM68.6,86.85v-.28l-.1-1.77H19.39a1.1,1.1,0,1,0,0,2.21H68.6v-.15M44,56.86H19.34V81.52H44ZM31.66,59.28a4,4,0,1,1-4,4,4,4,0,0,1,4-4m9,19.85H37.15v-1.5a5.46,5.46,0,0,0-1.5-3.76v5.26h-8V73.87a5.46,5.46,0,0,0-1.5,3.76v1.5H22.68v-1.5a9,9,0,0,1,18,0ZM19.39,89.81a1.1,1.1,0,0,0-1.1,1.1v15.51a1.1,1.1,0,0,0,1.1,1.1H32.73a1.1,1.1,0,0,0,1.1-1.1V90.91a1.1,1.1,0,0,0-1.1-1.1Zm12.23,15.54H20.5V92H31.62Zm77.23-56.56H13.65A2.21,2.21,0,0,0,11.44,51v61.35a2.21,2.21,0,0,0,2.21,2.21H73.44q-.84-2.22-1.5-4.41H15.85v-57h90.79v7.08l1.79-1.82,2.62,2.66V51a2.21,2.21,0,0,0-2.21-2.21M84,132.63H12a6.54,6.54,0,0,1-6.56-6.5V124.3H44.65l6.24,2.55a2.2,2.2,0,0,0,.84.16H71.5a2.21,2.21,0,0,0,.75-.13l6.07-2.18q-1.16-1.95-2.15-3.92l-5,1.81h-19L45.93,120a2.2,2.2,0,0,0-.84-.16H3.21A2.21,2.21,0,0,0,1,122.09v4A11,11,0,0,0,12,137H88.2A57.69,57.69,0,0,1,84,132.6M54.61,107.5H67.94a1.1,1.1,0,0,0,1.1-1.1V95.68c-.21-2-.33-3.9-.39-5.59a1.09,1.09,0,0,0-.71-.28H54.61a1.1,1.1,0,0,0-1.1,1.1v15.51a1.1,1.1,0,0,0,1.1,1.1M55.71,92H66.84v13.34H55.71ZM50.39,72.48a1.1,1.1,0,0,0,1.1,1.1H89.66c1.29-.73,2.52-1.47,3.66-2.21H51.5a1.1,1.1,0,0,0-1.1,1.1m23.45,7.31a49.76,49.76,0,0,0,6.43-1.85H51.5a1.1,1.1,0,0,0,0,2.21H72.2ZM99.32,58.27H51.5a1.1,1.1,0,0,0,0,2.21H99.32a1.1,1.1,0,1,0,0-2.21m0,6.56H51.5a1.11,1.11,0,0,0,0,2.21H99.38l1-.8a1,1,0,0,0-1-1.39" transform="translate(-1 -48.76)"/><path class="cls-1" d="M144,84.51l-1.88-.4c-18.22-3.9-32-17.65-32.11-17.78l-1.57-1.59-1.57,1.61c-.14.14-13.89,13.89-32.11,17.78L73,84.57,73,86.35v.48c-.07,12.69,3.15,43.73,34.52,57.73l.9.4.9-.4c31.37-14,34.59-45,34.52-57.73v-.45Zm-35.56,55.65c-27.3-12.73-30.87-39.83-31-52.14,15.21-3.77,26.9-13.38,31-17.11,4.1,3.73,15.8,13.34,31,17.11-.13,12.31-3.71,39.41-31,52.14m0-5.39a1.48,1.48,0,1,0,1.48,1.48h0a1.48,1.48,0,0,0-1.48-1.48m27.84-43.14a1.48,1.48,0,1,0-1.48-1.48h0a1.48,1.48,0,0,0,1.48,1.48m-55.68-3a1.48,1.48,0,1,0,1.48,1.48,1.48,1.48,0,0,0-1.48-1.48h0M107,76.35a1.48,1.48,0,1,0,1.48-1.48A1.48,1.48,0,0,0,107,76.35h0m-12.37,15a19.6,19.6,0,1,0,32.54,7.87l-3.18,3.18a16,16,0,0,1,.25,2.78,15.68,15.68,0,1,1-4.7-11.27l.12.13.13.14,2.73-2.73a1.91,1.91,0,0,0-.29-.3,19.65,19.65,0,0,0-27.6.2m7.24,10.83a2.22,2.22,0,1,0-3.12,3.17l9.61,9.61L129.5,93.78a2.21,2.21,0,0,0-3.12-3.12l-18,18Z" transform="translate(-1 -48.76)"/></svg>