<svg id="Calque_1" data-name="Calque 1" xmlns="http://www.w3.org/2000/svg" viewBox="0 0 37.31 37.59"><defs><style>.cls-1{fill:#111b43;}</style></defs><title>integrated-platform</title><path class="cls-1" d="M21.62,26.91h-18a.75.75,0,0,1-.75-.75V14.72A.75.75,0,0,1,3.62,14h18a.75.75,0,0,1,.75.75V26.16A.75.75,0,0,1,21.62,26.91ZM4.33,25.42H20.88v-10H4.33Z" transform="translate(0.1 0)"/><path class="cls-1" d="M36.21,18.15h-14a.75.75,0,0,1,0-1.49H35.49V1.49H10.93V14a.75.75,0,0,1-1.49,0V.72A.75.75,0,0,1,10.21,0h26A.75.75,0,0,1,37,.75V17.4A.75.75,0,0,1,36.21,18.15Z" transform="translate(0.1 0)"/><path class="cls-1" d="M23.53,22.11a.75.75,0,0,1-.75-.75V17.67a.75.75,0,1,1,1.49,0v3.69A.75.75,0,0,1,23.53,22.11Z" transform="translate(0.1 0)"/><path class="cls-1" d="M29.65,22.72H22.09a.75.75,0,1,1-.17-1.49h7.73a.75.75,0,0,1,.8.74.8.8,0,0,1-.8.8Z" transform="translate(0.1 0)"/><path class="cls-1" d="M35.67,37.59h-5.9a1.54,1.54,0,0,1-1.56-1.52V25.72a1.54,1.54,0,0,1,1.54-1.54h5.9a1.54,1.54,0,0,1,1.56,1.52V36a1.54,1.54,0,0,1-1.51,1.57Zm-5.9-11.87h0V36h5.9V25.72h-5.9Z" transform="translate(0.1 0)"/><path class="cls-1" d="M25.21,22.12a.75.75,0,0,1-.75-.75V17.72a.75.75,0,0,1,1.49,0v3.69A.75.75,0,0,1,25.21,22.12Z" transform="translate(0.1 0)"/><path class="cls-1" d="M24.46,30.52H.74A.75.75,0,1,1,.57,29H24.46a.75.75,0,0,1,.17,1.49Z" transform="translate(0.1 0)"/></svg>