<svg id="Layer_1" data-name="Layer 1" xmlns="http://www.w3.org/2000/svg" viewBox="0 0 123.16 133"><defs><style>.cls-1{fill:#121b42;}</style></defs><title>icon-mobile-operations</title><path class="cls-1" d="M108.27,107.25V83.7L92.42,90l6.87,17.23Zm-42.77-6.5,2.59,6.5H93L87,92.19ZM23.85,122h97.3a2.26,2.26,0,0,0,2.26-2.26h0V57a2.26,2.26,0,0,0-2.26-2.26H97.34c-.7,1.52-1.46,3-2.26,4.51H118.9V117.5H26.1V59.29H49.83c-.8-1.48-1.55-3-2.25-4.51H23.85A2.26,2.26,0,0,0,21.59,57v62.72A2.26,2.26,0,0,0,23.83,122h0M90.69,85.68l5.11-2H89.88ZM32.21,111.76h80.57V79.13H81.4c-.68.82-1.32,1.57-1.91,2.26h31V109.5h-76V81.38h31c-.59-.68-1.24-1.44-1.92-2.26H32.21ZM63.77,96.41l21.48-8.56-1.68-4.21H77.5c-1,1.07-1.6,1.74-1.75,1.89l-3.22,3.35-3.25-3.32c-.15-.16-.81-.83-1.8-1.92h-8.8Zm-31.56-22H59.78c-2.14-2.79-4.42-6-6.58-9.4h-21Zm99.61,53H90.72a2.27,2.27,0,0,0-.76.13l-7.36,2.65H63.21l-6.38-2.61a2.26,2.26,0,0,0-.86-.17H13.18a2.26,2.26,0,0,0-2.26,2.26v4.13A11.2,11.2,0,0,0,22.12,145H122.89a11.18,11.18,0,0,0,11.19-11.16v-4.13a2.26,2.26,0,0,0-2.26-2.26m-2.26,6.38a6.67,6.67,0,0,1-6.67,6.65H22.13a6.68,6.68,0,0,1-6.7-6.65V132h40.1l6.38,2.61a2.24,2.24,0,0,0,.85.17H83a2.24,2.24,0,0,0,.76-.13L91.11,132h38.45ZM36.72,107.19l15.85-6.32L48,89.29,36.72,90.64ZM112.79,65H91.7c-2.16,3.43-4.44,6.61-6.57,9.4h27.65ZM36.72,83.64v2.14l9.39-1.13-.4-1Zm17.59,21.57-5.12,2h5.93Z" transform="translate(-10.92 -12)"/><path class="cls-1" d="M72.5,12A24.94,24.94,0,0,0,47.56,36.94c0,20,24.94,45.46,24.94,45.46S97.44,56.53,97.44,36.94A24.94,24.94,0,0,0,72.5,12h0m0,45.66A20.71,20.71,0,1,1,93.21,36.94,20.71,20.71,0,0,1,72.5,57.66h0" transform="translate(-10.92 -12)"/><path class="cls-1" d="M81.17,35.2h-.85V30.7a7.83,7.83,0,0,0-7.7-7.84h-.11a7.84,7.84,0,0,0-7.84,7.84h0v4.5h-.84A2.79,2.79,0,0,0,61,37.95s0,0,0,.05v8.31a2.79,2.79,0,0,0,2.79,2.79H81.17A2.79,2.79,0,0,0,84,46.35s0,0,0-.06V38a2.79,2.79,0,0,0-2.79-2.79h0M67,30.7a5.55,5.55,0,0,1,5.44-5.55h.09A5.54,5.54,0,0,1,78,30.7v4.5H67Zm7.44,10.51a1.88,1.88,0,0,1-.76,1.49v2a1.15,1.15,0,1,1-2.29,0v-2a1.87,1.87,0,0,1-.76-1.49v-.86a1.91,1.91,0,1,1,3.81,0Z" transform="translate(-10.92 -12)"/></svg>