<?xml version="1.0" encoding="utf-8"?>
<!-- Generator: Adobe Illustrator 20.0.0, SVG Export Plug-In . SVG Version: 6.00 Build 0)  -->
<svg version="1.1" id="Calque_1" xmlns="http://www.w3.org/2000/svg" xmlns:xlink="http://www.w3.org/1999/xlink" x="0px" y="0px"
	 viewBox="0 0 40 40" style="enable-background:new 0 0 40 40;" xml:space="preserve">
<style type="text/css">
	.st0{fill:#111B43;}
</style>
<g>
	<path class="st0" d="M10.3,18c-0.2,0-0.3,0.1-0.3,0.3v4.2c0,0.2,0.1,0.3,0.3,0.3H14c0.2,0,0.3-0.1,0.3-0.3v-4.2
		c0-0.2-0.1-0.3-0.3-0.3H10.3z M13.7,22.3h-3v-3.6h3V22.3z M18.9,17.3L18.9,17.3v-0.6H5.5c-0.2,0-0.3,0.1-0.3,0.3s0.1,0.3,0.3,0.3
		L18.9,17.3L18.9,17.3 M12.2,9.1H5.5v6.7h6.7V9.1z M8.9,9.8c0.6,0,1.1,0.5,1.1,1.1c0,0.6-0.5,1.1-1.1,1.1s-1.1-0.5-1.1-1.1
		C7.8,10.2,8.3,9.8,8.9,9.8 M11.3,15.1h-1v-0.4c0-0.4-0.2-0.8-0.4-1.1v1.5H7.8v-1.5c-0.3,0.3-0.5,0.7-0.5,1.1v0.4h-1v-0.4
		c0-1.4,1.1-2.4,2.4-2.4s2.4,1.1,2.4,2.4L11.3,15.1L11.3,15.1z M5.5,18c-0.2,0-0.3,0.1-0.3,0.3v4.2c0,0.2,0.2,0.4,0.3,0.4h3.6
		c0.2,0,0.3-0.1,0.3-0.3v-4.2C9.5,18.2,9.3,18,9.2,18H5.5z M8.9,22.3h-3v-3.6h3V22.3z M29.9,6.8h-26c-0.3,0-0.6,0.3-0.6,0.6v16.8
		c0,0.3,0.3,0.6,0.6,0.6h16.3c-0.2-0.4-0.3-0.8-0.4-1.2H4.6V8.1h24.8v2l0.5-0.5l0.7,0.7V7.5C30.5,7.1,30.2,6.8,29.9,6.8 M23.1,29.7
		H3.5c-1,0-1.8-0.8-1.8-1.8v-0.5h10.7l1.7,0.7c0.1,0,0.2,0,0.2,0h5.4c0.1,0,0.1,0,0.2,0l1.7-0.6c-0.2-0.4-0.4-0.7-0.6-1.1L19.6,27
		h-5.2l-1.7-0.7c-0.1,0-0.2,0-0.2,0H1.1c-0.3-0.1-0.6,0.2-0.6,0.5v1.1c0,1.7,1.4,3,3,3h20.8C23.9,30.5,23.5,30.1,23.1,29.7
		 M15.1,22.9h3.6c0.2,0,0.3-0.1,0.3-0.3v-2.9c-0.1-0.6-0.1-1.1-0.1-1.6c-0.1,0-0.1-0.1-0.2-0.1h-3.6c-0.2,0-0.3,0.1-0.3,0.3v4.2
		C14.8,22.7,14.9,22.9,15.1,22.9 M15.4,18.6h3v3.6h-3C15.4,22.2,15.4,18.6,15.4,18.6z M14,13.4c0,0.2,0.1,0.3,0.3,0.3h10.4
		c0.4-0.2,0.7-0.4,1-0.6H14.2C14.2,13.1,14,13.2,14,13.4 M20.4,15.3c0.6-0.1,1.2-0.3,1.8-0.5h-7.8c-0.2,0-0.3,0.1-0.3,0.3
		s0.1,0.3,0.3,0.3H20L20.4,15.3z M27.3,9.5H14.2c-0.2,0-0.3,0.1-0.3,0.3s0.1,0.3,0.3,0.3h13.1c0.2,0,0.3-0.1,0.3-0.3
		S27.5,9.5,27.3,9.5 M27.3,11.2H14.2c-0.2,0-0.3,0.1-0.3,0.3s0.1,0.3,0.3,0.3h13.1l0,0c0.1-0.1,0.2-0.2,0.3-0.2v-0.1
		C27.6,11.4,27.5,11.2,27.3,11.2"/>
	<path class="st0" d="M39.5,16.6L39,16.5c-5-1.1-8.7-4.8-8.8-4.9l-0.4-0.4l-0.4,0.4c0,0-3.8,3.8-8.8,4.9l-0.5,0.1v0.5v0.1
		c0,3.4,0.9,11.9,9.5,15.7l0.3,0.1l0.3-0.1c8.6-3.8,9.5-12.3,9.5-15.7v-0.1L39.5,16.6z M29.9,31.8c-7.4-3.5-8.4-10.8-8.5-14.2
		c4.2-1.1,7.3-3.6,8.5-4.7c1.1,1,4.3,3.6,8.5,4.7C38.2,21,37.3,28.3,29.9,31.8 M29.9,30.3c-0.2,0-0.4,0.2-0.4,0.4
		c0,0.2,0.2,0.4,0.4,0.4c0.2,0,0.4-0.2,0.4-0.4S30,30.3,29.9,30.3 M37.4,18.5c0.2,0,0.4-0.2,0.4-0.4s-0.2-0.4-0.4-0.4
		S37,17.9,37,18.1S37.2,18.5,37.4,18.5 M22.2,17.8c-0.2,0-0.4,0.2-0.4,0.4s0.2,0.4,0.4,0.4c0.2,0,0.4-0.2,0.4-0.4
		S22.4,17.8,22.2,17.8 M29.4,14.4c0,0.2,0.2,0.4,0.4,0.4s0.4-0.2,0.4-0.4S29.9,14,29.8,14S29.4,14.1,29.4,14.4 M26,18.5
		c-1,1-1.6,2.3-1.6,3.8c0,1.5,0.6,2.7,1.6,3.8c1,1,2.3,1.6,3.8,1.6c1.5,0,2.8-0.6,3.8-1.6s1.6-2.3,1.6-3.8c0-0.6-0.1-1.1-0.3-1.7
		L34,21.6c0,0.3,0.1,0.5,0.1,0.8c0,1.2-0.5,2.2-1.3,3c-0.8,0.8-1.9,1.3-3,1.3s-2.2-0.5-3-1.3c-0.8-0.8-1.3-1.9-1.3-3
		c0-1.2,0.5-2.2,1.3-3c0.8-0.8,1.9-1.3,3-1.3s2.1,0.4,3,1.2l0,0l0,0l0.8-0.8c0,0,0-0.1-0.1-0.1c-1-1-2.3-1.5-3.7-1.5
		C28.4,16.9,27,17.5,26,18.5 M28,21.5c-0.2-0.2-0.6-0.2-0.9,0c-0.2,0.2-0.2,0.6,0,0.9l2.6,2.5l5.8-5.8c0.2-0.2,0.2-0.6,0-0.9
		c-0.2-0.2-0.6-0.2-0.9,0l-4.9,4.9L28,21.5z"/>
</g>
</svg>
