<?xml version="1.0" encoding="utf-8"?>
<!-- Generator: Adobe Illustrator 20.0.0, SVG Export Plug-In . SVG Version: 6.00 Build 0)  -->
<svg version="1.1" id="Calque_1" xmlns="http://www.w3.org/2000/svg" xmlns:xlink="http://www.w3.org/1999/xlink" x="0px" y="0px"
	 viewBox="0 0 40 40" style="enable-background:new 0 0 40 40;" xml:space="preserve">
<style type="text/css">
	.st0{fill:#111B43;}
</style>
<path class="st0" d="M20,17.9c0,1.8,0.7,3.6,2,4.9c1.3,1.3,3,2,4.9,2c1.8,0,3.6-0.7,4.9-2c1.3-1.3,2-3,2-4.9c0-1.8-0.7-3.5-1.9-4.7
	c0-0.1-0.1-0.1-0.2-0.2c-1.3-1.3-3-1.9-4.8-1.9c-1.8,0-3.6,0.7-4.9,2C20.7,14.4,20,16.1,20,17.9 M26.9,12.4c1.5,0,2.8,0.6,3.9,1.6
	c0,0,0,0,0,0c1,1,1.6,2.4,1.6,3.9c0,1.5-0.6,2.9-1.6,3.9c-1.1,1.1-2.4,1.6-3.9,1.6c-1.5,0-2.9-0.6-3.9-1.6c-1-1-1.6-2.4-1.6-3.9
	c0-1.5,0.6-2.9,1.6-3.9C24,13,25.4,12.4,26.9,12.4 M26.4,28.8c0,0.3,0.2,0.5,0.5,0.5c0.3,0,0.5-0.2,0.5-0.5c0-0.3-0.2-0.5-0.5-0.5
	C26.6,28.3,26.4,28.5,26.4,28.8 M17.6,12.6c0-0.3-0.2-0.5-0.5-0.5c-0.3,0-0.5,0.2-0.5,0.5c0,0.3,0.2,0.5,0.5,0.5
	C17.4,13.2,17.6,12.9,17.6,12.6 M37.2,12.6c0-0.3-0.2-0.5-0.5-0.5c-0.3,0-0.5,0.2-0.5,0.5c0,0.3,0.2,0.5,0.5,0.5
	C36.9,13.2,37.2,12.9,37.2,12.6 M27.4,7.8c0-0.3-0.2-0.5-0.5-0.5c-0.3,0-0.5,0.2-0.5,0.5c0,0.3,0.2,0.5,0.5,0.5
	C27.2,8.3,27.4,8.1,27.4,7.8 M25.1,16.3c0,0.2,0.2,0.3,0.3,0.3c0.1,0.4,0.3,0.7,0.3,0.8c0.2,0.2,0.8,0.6,1.1,0.6
	c0.4,0,1-0.4,1.2-0.6c0-0.1,0.2-0.4,0.3-0.8c0.1,0,0.3-0.1,0.3-0.3c0-0.2,0-0.4-0.1-0.4c0-0.1,0-0.2,0-0.2c0.1-0.5,0-1-0.2-1.3
	c-0.4-0.5-1.1-0.6-1.5-0.6c0.1,0,0.2-0.1,0.3-0.1c-0.6-0.1-0.9,0.1-1.2,0.3c-0.2,0-0.5,0.2-0.6,0.3c0.1-0.1,0.2-0.1,0.2-0.1
	c-0.4,0.2-0.4,0.6-0.5,0.6c0,0.3,0,0.7,0.1,1.1C25.1,16,25.1,16.2,25.1,16.3 M26.9,21.3l0.5-0.7l-0.3-1.2l0.2-0.3l-0.4-0.4l-0.4,0.4
	l0.2,0.3l-0.3,1.2L26.9,21.3z M26.9,22.7c1.6,0,3.1-0.8,4-1.9c-0.1-0.6-0.3-1.1-0.5-1.2c-0.2-0.2-0.8-0.6-2.4-1.4l-0.4,2.5l-0.8,1.1
	l-0.8-1.1l-0.4-2.5c-1.6,0.8-2.2,1.2-2.4,1.4c-0.2,0.2-0.3,0.5-0.5,1.2C23.8,22,25.3,22.7,26.9,22.7 M39.2,11.3l0-0.6l-0.6-0.1
	c-6.4-1.4-11.3-6.2-11.3-6.3l-0.5-0.5l-0.5,0.5c0,0-4.9,4.9-11.3,6.3l-0.5,0.1l0,0.6c0,0,0,0.1,0,0.2c0,0.6,0,1.3,0.1,2.2l1.3,0
	c-0.1-0.7-0.1-1.3-0.1-1.9c5.5-1.3,9.7-4.8,11-6.1c1.4,1.3,5.5,4.8,11,6.1c0,4.3-1.2,14-11,18.5c-6.1-2.8-8.9-7.7-10.1-12.1l-1.4,0
	c1.2,4.8,4.2,10.3,11.2,13.4l0.3,0.1l0.3-0.1c11-4.9,12.1-15.7,12.1-20.2C39.2,11.4,39.2,11.3,39.2,11.3"/>
<path class="st0" d="M17.9,14.5L14,14.5l-3.1-1.3c-0.1,0-0.2-0.1-0.3-0.1l-1.8-0.3l-0.6,3.4L7,17.9l-1.3-1.8l-0.6-3.4l-1.8,0.3
	c-0.6,0.1-1,0.5-1.2,1.1l-1.3,4.5c0,0.1-0.1,0.2-0.1,0.4l-0.1,4.2c0,0.8,0.6,1.5,1.4,1.5c0,0,0,0,0,0c0.8,0,1.5-0.6,1.5-1.4l0.1-4
	l0.4-1.5c0.3,0.4,0.4,0.8,0.4,1.3l-0.1,4.2c0,0.9-0.6,1.7-1.3,2l0,9.4c0,0.8,0.7,1.5,1.5,1.5c0.8,0,1.5-0.7,1.5-1.5l0-8.8
	C6.2,25.4,6.5,25,7,25c0.4,0,0.8,0.4,0.8,0.8l0,8.8c0,0.8,0.7,1.5,1.5,1.5c0.8,0,1.5-0.7,1.5-1.5l0-13.3l0.4-4.9l2,0.9
	c0.2,0.1,0.4,0.1,0.6,0.1l4.2,0.1c0.8,0,1.5-0.6,1.5-1.4C19.4,15.2,18.7,14.6,17.9,14.5 M7,17.2l0.7-1l-0.3-2.8l0.3-0.6l-0.2-0.2
	c-0.1,0-0.3,0-0.4,0c-0.1,0-0.3,0-0.4,0l-0.2,0.2l0.3,0.6l-0.3,2.8L7,17.2z M7,12.1c1.4,0,2.6-1.2,2.6-2.6C9.6,8,8.4,6.8,7,6.8
	C5.5,6.8,4.3,8,4.3,9.4C4.3,10.9,5.5,12.1,7,12.1"/>
</svg>
