<svg version="1.1" id="Calque_1" xmlns="http://www.w3.org/2000/svg" x="0" y="0" viewBox="0 0 40 40" xml:space="preserve"><style type="text/css">.st0{fill:#111b43}</style><path class="st0" d="M10.3 18c-.2 0-.3.1-.3.3v4.2c0 .2.1.3.3.3H14c.2 0 .3-.1.3-.3v-4.2c0-.2-.1-.3-.3-.3h-3.7zm3.4 4.3h-3v-3.6h3v3.6zm5.2-5v-.6H5.5c-.2 0-.3.1-.3.3s.1.3.3.3h13.4m-6.7-8.2H5.5v6.7h6.7V9.1zm-3.3.7c.6 0 1.1.5 1.1 1.1 0 .6-.5 1.1-1.1 1.1s-1.1-.5-1.1-1.1c0-.7.5-1.1 1.1-1.1m2.4 5.3h-1v-.4c0-.4-.2-.8-.4-1.1v1.5H7.8v-1.5c-.3.3-.5.7-.5 1.1v.4h-1v-.4c0-1.4 1.1-2.4 2.4-2.4s2.4 1.1 2.4 2.4l.2.4zM5.5 18c-.2 0-.3.1-.3.3v4.2c0 .2.2.4.3.4h3.6c.2 0 .3-.1.3-.3v-4.2c.1-.2-.1-.4-.2-.4H5.5zm3.4 4.3h-3v-3.6h3v3.6zm21-15.5h-26c-.3 0-.6.3-.6.6v16.8c0 .3.3.6.6.6h16.3c-.2-.4-.3-.8-.4-1.2H4.6V8.1h24.8v2l.5-.5.7.7V7.5c-.1-.4-.4-.7-.7-.7m-6.8 22.9H3.5c-1 0-1.8-.8-1.8-1.8v-.5h10.7l1.7.7H19.9l1.7-.6c-.2-.4-.4-.7-.6-1.1l-1.4.6h-5.2l-1.7-.7H1.1c-.3-.1-.6.2-.6.5v1.1c0 1.7 1.4 3 3 3h20.8l-1.2-1.2m-8-6.8h3.6c.2 0 .3-.1.3-.3v-2.9c-.1-.6-.1-1.1-.1-1.6-.1 0-.1-.1-.2-.1h-3.6c-.2 0-.3.1-.3.3v4.2c0 .2.1.4.3.4m.3-4.3h3v3.6h-3v-3.6zM14 13.4c0 .2.1.3.3.3h10.4c.4-.2.7-.4 1-.6H14.2s-.2.1-.2.3m6.4 1.9c.6-.1 1.2-.3 1.8-.5h-7.8c-.2 0-.3.1-.3.3s.1.3.3.3H20l.4-.1zm6.9-5.8H14.2c-.2 0-.3.1-.3.3s.1.3.3.3h13.1c.2 0 .3-.1.3-.3s-.1-.3-.3-.3m0 1.7H14.2c-.2 0-.3.1-.3.3s.1.3.3.3h13.1c.1-.1.2-.2.3-.2v-.1c0-.1-.1-.3-.3-.3"/><path class="st0" d="M39.5 16.6l-.5-.1c-5-1.1-8.7-4.8-8.8-4.9l-.4-.4-.4.4s-3.8 3.8-8.8 4.9l-.5.1v.6c0 3.4.9 11.9 9.5 15.7l.3.1.3-.1c8.6-3.8 9.5-12.3 9.5-15.7v-.1l-.2-.5zm-9.6 15.2c-7.4-3.5-8.4-10.8-8.5-14.2 4.2-1.1 7.3-3.6 8.5-4.7 1.1 1 4.3 3.6 8.5 4.7-.2 3.4-1.1 10.7-8.5 14.2m0-1.5c-.2 0-.4.2-.4.4s.2.4.4.4.4-.2.4-.4-.3-.4-.4-.4m7.5-11.8c.2 0 .4-.2.4-.4s-.2-.4-.4-.4-.4.2-.4.4.2.4.4.4m-15.2-.7c-.2 0-.4.2-.4.4s.2.4.4.4.4-.2.4-.4-.2-.4-.4-.4m7.2-3.4c0 .2.2.4.4.4s.4-.2.4-.4-.3-.4-.4-.4-.4.1-.4.4M26 18.5c-1 1-1.6 2.3-1.6 3.8S25 25 26 26.1c1 1 2.3 1.6 3.8 1.6s2.8-.6 3.8-1.6 1.6-2.3 1.6-3.8c0-.6-.1-1.1-.3-1.7l-.9 1c0 .3.1.5.1.8 0 1.2-.5 2.2-1.3 3-.8.8-1.9 1.3-3 1.3s-2.2-.5-3-1.3c-.8-.8-1.3-1.9-1.3-3 0-1.2.5-2.2 1.3-3 .8-.8 1.9-1.3 3-1.3s2.1.4 3 1.2l.8-.8s0-.1-.1-.1c-1-1-2.3-1.5-3.7-1.5-1.4 0-2.8.6-3.8 1.6m2 3c-.2-.2-.6-.2-.9 0-.2.2-.2.6 0 .9l2.6 2.5 5.8-5.8c.2-.2.2-.6 0-.9-.2-.2-.6-.2-.9 0l-4.9 4.9-1.7-1.6z"/></svg>