<svg version="1.1" id="Calque_1" xmlns="http://www.w3.org/2000/svg" x="0" y="0" viewBox="0 0 40 40" xml:space="preserve"><style type="text/css">.st0{fill:#111b43}</style><path class="st0" d="M20 17.9c0 1.8.7 3.6 2 4.9 1.3 1.3 3 2 4.9 2 1.8 0 3.6-.7 4.9-2 1.3-1.3 2-3 2-4.9 0-1.8-.7-3.5-1.9-4.7 0-.1-.1-.1-.2-.2-1.3-1.3-3-1.9-4.8-1.9-1.8 0-3.6.7-4.9 2-1.3 1.3-2 3-2 4.8m6.9-5.5c1.5 0 2.8.6 3.9 1.6 1 1 1.6 2.4 1.6 3.9s-.6 2.9-1.6 3.9c-1.1 1.1-2.4 1.6-3.9 1.6s-2.9-.6-3.9-1.6-1.6-2.4-1.6-3.9S22 15 23 14s2.4-1.6 3.9-1.6m-.5 16.4c0 .3.2.5.5.5s.5-.2.5-.5-.2-.5-.5-.5-.5.2-.5.5m-8.8-16.2c0-.3-.2-.5-.5-.5s-.5.2-.5.5.2.5.5.5c.3.1.5-.2.5-.5m19.6 0c0-.3-.2-.5-.5-.5s-.5.2-.5.5.2.5.5.5c.2.1.5-.2.5-.5m-9.8-4.8c0-.3-.2-.5-.5-.5s-.5.2-.5.5.2.5.5.5.5-.2.5-.5m-2.3 8.5c0 .2.2.3.3.3.1.4.3.7.3.8.2.2.8.6 1.1.6.4 0 1-.4 1.2-.6 0-.1.2-.4.3-.8.1 0 .3-.1.3-.3 0-.2 0-.4-.1-.4v-.2c.1-.5 0-1-.2-1.3-.4-.5-1.1-.6-1.5-.6.1 0 .2-.1.3-.1-.6-.1-.9.1-1.2.3-.2 0-.5.2-.6.3.1-.1.2-.1.2-.1-.4.2-.4.6-.5.6 0 .3 0 .7.1 1.1v.4m1.8 5l.5-.7-.3-1.2.2-.3-.4-.4-.4.4.2.3-.3 1.2.5.7zm0 1.4c1.6 0 3.1-.8 4-1.9-.1-.6-.3-1.1-.5-1.2-.2-.2-.8-.6-2.4-1.4l-.4 2.5-.8 1.1-.8-1.1-.4-2.5c-1.6.8-2.2 1.2-2.4 1.4-.2.2-.3.5-.5 1.2 1.1 1.2 2.6 1.9 4.2 1.9m12.3-11.4v-.6l-.6-.1c-6.4-1.4-11.3-6.2-11.3-6.3l-.5-.5-.5.5S21.4 9.2 15 10.6l-.5.1v.8c0 .6 0 1.3.1 2.2h1.3c-.1-.7-.1-1.3-.1-1.9 5.5-1.3 9.7-4.8 11-6.1 1.4 1.3 5.5 4.8 11 6.1 0 4.3-1.2 14-11 18.5-6.1-2.8-8.9-7.7-10.1-12.1h-1.4c1.2 4.8 4.2 10.3 11.2 13.4l.3.1.3-.1c11-4.9 12.1-15.7 12.1-20.2v-.1"/><path class="st0" d="M17.9 14.5H14l-3.1-1.3c-.1 0-.2-.1-.3-.1l-1.8-.3-.6 3.4L7 17.9l-1.3-1.8-.6-3.4-1.8.3c-.6.1-1 .5-1.2 1.1L.8 18.6c0 .1-.1.2-.1.4l-.1 4.2c0 .8.6 1.5 1.4 1.5.8 0 1.5-.6 1.5-1.4l.1-4 .4-1.5c.3.4.4.8.4 1.3l-.1 4.2c0 .9-.6 1.7-1.3 2v9.4c0 .8.7 1.5 1.5 1.5S6 35.5 6 34.7v-8.8c.2-.5.5-.9 1-.9.4 0 .8.4.8.8v8.8c0 .8.7 1.5 1.5 1.5s1.5-.7 1.5-1.5V21.3l.4-4.9 2 .9c.2.1.4.1.6.1l4.2.1c.8 0 1.5-.6 1.5-1.4-.1-.9-.8-1.5-1.6-1.6M7 17.2l.7-1-.3-2.8.3-.6-.2-.2h-.8l-.2.2.3.6-.3 2.8.5 1zm0-5.1c1.4 0 2.6-1.2 2.6-2.6C9.6 8 8.4 6.8 7 6.8 5.5 6.8 4.3 8 4.3 9.4c0 1.5 1.2 2.7 2.7 2.7"/></svg>