<svg version="1.1" id="Calque_1" xmlns="http://www.w3.org/2000/svg" x="0" y="0" width="40" height="40" viewBox="0 0 40 40" xml:space="preserve"><g fill="#C22126"><path d="M23.1 28.6H3.9c-.4 0-.8-.4-.8-.8V15.6c0-.4.4-.8.8-.8h19.2c.4 0 .8.4.8.8v12.2c0 .5-.3.8-.8.8zM4.7 27h17.6V16.4H4.7V27z"/><path d="M38.7 19.3H23.8c-.4 0-.8-.4-.8-.8s.4-.8.8-.8h14.1V1.6H11.7v13.3c0 .4-.4.8-.8.8s-.8-.4-.8-.8V.8c0-.4.4-.8.8-.8h27.7c.4 0 .8.4.8.8v17.7c.1.5-.3.8-.7.8z"/><path d="M25.1 23.5c-.4 0-.8-.4-.8-.8v-3.9c0-.4.4-.8.8-.8s.8.4.8.8v3.9c0 .5-.3.8-.8.8z"/><path d="M31.7 24.2h-8c-.4 0-.8-.4-.8-.8s.4-.8.8-.8h8c.4 0 .8.4.8.8s-.4.8-.8.8zM38.1 40h-6.3c-.9 0-1.6-.7-1.6-1.6v-11c0-.9.7-1.6 1.6-1.6h6.3c.9 0 1.6.7 1.6 1.6v11c0 .9-.7 1.6-1.6 1.6zm-6.3-12.7s-.1.1 0 0l-.1 11s0 .1.1.1h6.3s.1 0 .1-.1v-11s0-.1-.1-.1h-6.3z"/><path d="M27 23.5c-.4 0-.8-.4-.8-.8v-3.9c0-.4.4-.8.8-.8s.8.4.8.8v3.9c-.1.5-.4.8-.8.8zM26.1 32.5H.9c-.4 0-.8-.4-.8-.8s.4-.8.8-.8h25.2c.4 0 .8.4.8.8s-.3.8-.8.8z"/></g></svg>