<svg version="1.1" id="Calque_1" xmlns="http://www.w3.org/2000/svg" x="0" y="0" width="40" height="40" viewBox="0 0 40 40" xml:space="preserve"><g fill="#C22126"><path d="M10.1 18c-.2 0-.3.1-.3.3v4.3c0 .2.1.3.3.3h3.7c.2 0 .3-.1.3-.3v-4.3c0-.2-.1-.3-.3-.3h-3.7zm3.4 4.4h-3.1v-3.7h3.1v3.7zm5.4-5.2v-.6H5.1c-.2 0-.3.1-.3.3 0 .2.1.3.3.3h13.8M12 8.8H5.1v6.9H12V8.8zm-3.4.7c.6 0 1.1.5 1.1 1.1 0 .6-.5 1.1-1.1 1.1-.6 0-1.1-.5-1.1-1.1 0-.6.5-1.1 1.1-1.1m2.5 5.5h-1v-.4c0-.4-.2-.8-.4-1.1V15H7.5v-1.5c-.3.3-.5.7-.5 1.1v.4H6v-.4c0-1.4 1.1-2.5 2.5-2.5s2.5 1.1 2.5 2.5v.4zm-6 3c-.2 0-.3.1-.3.3v4.3c0 .2.2.4.3.4h3.7c.2 0 .3-.1.3-.3v-4.3c.1-.2-.1-.4-.2-.4H5.1zm3.5 4.4H5.5v-3.7h3.1v3.7zM30.2 6.5H3.5c-.3 0-.6.3-.6.6v17.2c0 .3.3.6.6.6h16.7c-.2-.4-.3-.8-.4-1.2H4.2V7.8h25.4v2l.5-.5.7.7V7.2c0-.4-.3-.7-.6-.7m-7 23.5H3.1c-1 0-1.8-.8-1.8-1.8v-.5h11l1.7.7h5.9l1.7-.6c-.2-.4-.4-.7-.6-1.1l-1.4.5h-5.3l-1.7-.7H.6c-.3-.1-.6.2-.6.5v1.1c0 1.7 1.4 3.1 3.1 3.1h21.3L23.2 30M15 23h3.7c.2 0 .3-.1.3-.3v-3c-.1-.6-.1-1.1-.1-1.6-.1 0-.1-.1-.2-.1H15c-.2 0-.3.1-.3.3v4.3c0 .2.1.4.3.4m.3-4.4h3.1v3.7h-3.1v-3.7zm-1.5-5.4c0 .2.1.3.3.3h10.7c.4-.2.7-.4 1-.6H14.1c-.1 0-.3.1-.3.3m6.6 2c.6-.1 1.2-.3 1.8-.5h-8c-.2 0-.3.1-.3.3 0 .2.1.3.3.3H20l.4-.1zm7.1-6H14.1c-.2 0-.3.1-.3.3 0 .2.1.3.3.3h13.4c.2 0 .3-.1.3-.3 0-.2-.1-.3-.3-.3m0 1.8H14.1c-.2 0-.3.1-.3.3 0 .2.1.3.3.3h13.4c.1-.1.2-.2.3-.2v-.1c0-.1-.1-.3-.3-.3"/><path d="M40 16.5l-.5-.1c-5.1-1.1-8.9-4.9-9-5l-.4-.4-.4.4s-3.9 3.9-9 5l-.5.1v.6c0 3.5.9 12.2 9.7 16.1l.3.1.3-.1c8.8-3.9 9.7-12.6 9.7-16.1V17l-.2-.5zm-9.9 15.6c-7.6-3.6-8.6-11.1-8.7-14.6 4.3-1.1 7.5-3.7 8.7-4.8 1.1 1 4.4 3.7 8.7 4.8-.1 3.5-1.1 11-8.7 14.6m0-1.5c-.2 0-.4.2-.4.4s.2.4.4.4.4-.2.4-.4-.2-.4-.4-.4m7.7-12.1c.2 0 .4-.2.4-.4s-.2-.4-.4-.4-.4.2-.4.4.2.4.4.4m-15.5-.8c-.2 0-.4.2-.4.4s.2.4.4.4.4-.2.4-.4-.2-.4-.4-.4m7.3-3.4c0 .2.2.4.4.4s.4-.2.4-.4-.2-.4-.4-.4-.4.1-.4.4m-3.4 4.2c-1 1-1.6 2.4-1.6 3.9s.6 2.8 1.6 3.9c1 1 2.4 1.6 3.9 1.6s2.9-.6 3.9-1.6 1.6-2.4 1.6-3.9c0-.6-.1-1.1-.3-1.7l-.9.9c0 .3.1.5.1.8 0 1.2-.5 2.3-1.3 3.1-.8.8-1.9 1.3-3.1 1.3-1.2 0-2.3-.5-3.1-1.3-.8-.8-1.3-1.9-1.3-3.1 0-1.2.5-2.3 1.3-3.1.8-.8 1.9-1.3 3.1-1.3 1.2 0 2.2.4 3.1 1.2l.8-.8s0-.1-.1-.1c-1-1-2.4-1.5-3.8-1.5-1.5 0-2.9.6-3.9 1.7m2 3c-.2-.2-.6-.2-.9 0-.2.2-.2.6 0 .9L30 25l5.9-5.9c.2-.2.2-.6 0-.9-.2-.2-.6-.2-.9 0l-5 5-1.8-1.7z"/></g></svg>