<svg version="1.1" id="Calque_1" xmlns="http://www.w3.org/2000/svg" x="0" y="0" width="40" height="40" viewBox="0 0 40 40" xml:space="preserve"><g id="Layer_2"><g id="Layer_2-2" fill="#C22126"><path d="M22.6 16.6c.9-.7 1.4-1.7 1.6-2.8.4-.3.5-.8.2-1.2l-.3-.3c-.1-.5-.3-1-.6-1.4l.3-1.9c0-.3-.2-.6-.5-.6H23c-.7-.1-1.4-.5-1.9-1-.7-.7-1.8-.7-2.5 0-.5.5-1.2.9-1.9 1h-.3c-.3 0-.5.3-.5.6l.4 1.9c-.3.4-.5.9-.6 1.4-.4.2-.6.8-.3 1.2l.3.3c.1 1.1.7 2.1 1.6 2.8-2.9.7-4.9 3.3-4.9 6.3v2.8c0 .9.7 1.6 1.6 1.6h11.7c.9 0 1.7-.7 1.7-1.6v-2.9c.1-2.9-1.9-5.5-4.8-6.2zm-3.1-8.5c.3-.3.7-.3 1 0 .6.6 1.4 1.1 2.2 1.3l-.2 1.1c-1.7-.3-3.3-.3-5 0l-.2-1.1c.9-.2 1.6-.6 2.2-1.3zm2.4 3.4c-1.1.8-2.6.8-3.7 0 1.2-.1 2.4-.1 3.7 0zm-5.1 1.7c0-.4.1-.8.2-1.2 1.6 1.6 4.2 1.6 5.9 0 .7 1.6-.1 3.5-1.7 4.1-1.6.7-3.5-.1-4.1-1.7-.2-.3-.2-.7-.3-1.2zm9.6 12.5c0 .3-.2.5-.5.5H14.1c-.3 0-.5-.2-.5-.5v-2.8c0-2.8 2.2-5.2 5-5.4 0 .2.1.3.2.4l.6.6V24c0 .2 0 .4.1.5 0 .2.1.3.1.5 0 .1.1.2.2.4l.1.1.1.1.1.1.1-.1.1-.1.1-.1c.1-.1.1-.2.2-.4 0-.1.1-.3.1-.5s.1-.4.1-.5v-1.2-.7-1.3-.6-.5-.8-.3-.1l.6-.7c.1-.1.2-.3.2-.4 2.8.2 5 2.5 5 5.4l-.2 2.9z"/><circle cx="20" cy="9.3" r=".6"/><path d="M20 40h-.2C19.6 39.9 3 33.5 3 14.5V.6c0-.3.3-.6.6-.6h32.7c.4 0 .7.2.7.6v13.9c0 19-16.6 25.4-16.8 25.5H20zM4.2 1.2v13.3c0 17 13.9 23.4 15.8 24.2 1.9-.8 15.8-7.3 15.8-24.3V1.2H4.2z"/></g></g></svg>