<svg version="1.1" id="Layer_1" xmlns="http://www.w3.org/2000/svg" x="0" y="0" width="40" height="40" viewBox="0 0 40 40" xml:space="preserve"><g id="Layer_2"><path fill="#C22126" d="M40 7.3v20c0 1.8-1.5 3.3-3.3 3.3H21.3v2.7h7.3c.4 0 .7.3.7.6V35.3c0 .4-.3.7-.6.7H11.4c-.4 0-.6-.3-.7-.6V34c0-.4.3-.7.6-.7H18.7v-2.7H3.3c-.9 0-1.7-.3-2.4-1-.6-.6-1-1.5-.9-2.4v-20C0 6.4.4 5.6 1 5c.6-.6 1.4-1 2.3-1h33.4c.9 0 1.7.3 2.4 1 .5.6.9 1.4.9 2.3zm-2.7 20v-20c0-.4-.3-.7-.7-.7H3.3c-.4 0-.6.3-.6.7v20c0 .4.3.7.6.7h33.3c.4 0 .7-.3.7-.7z" id="Layer_2-2"/></g></svg>