<svg version="1.1" id="Calque_1" xmlns="http://www.w3.org/2000/svg" x="0" y="0" width="40" height="40" viewBox="0 0 40 40" xml:space="preserve"><path fill="#3C91CC" d="M20 38.6c-.4 0-.8-.4-.8-.8V14.9L13 21.2c-.3.3-.8.3-1.1 0-.3-.3-.3-.8 0-1.1l7.5-7.6c.3-.3.8-.3 1.1 0l7.5 7.6c.3.3.3.8 0 1.1-.3.3-.8.3-1.1 0L20.7 15v22.9c.1.4-.3.7-.7.7zm10.6-11.7h-4.4c-.4 0-.8-.4-.8-.8s.4-.8.8-.8h4.4c4.3 0 7.8-3.5 7.8-7.8s-3.5-7.8-7.8-7.8c-.5 0-1.1.1-1.6.2-.4.1-.8-.1-.9-.5C26.5 5.5 22.8 3 18.6 3 13 3 8.5 7.5 8.5 13.1v.1c0 .2-.1.4-.2.6-.2.2-.4.2-.6.2h-.4c-3.1 0-5.6 2.5-5.6 5.6 0 3.1 2.5 5.6 5.6 5.6h5.9c.4 0 .8.4.8.8s-.4.8-.8.8h-6c-4 0-7.2-3.2-7.2-7.2 0-3.9 3-7 6.9-7.2.3-6.1 5.5-11 11.7-11 4.7 0 8.8 2.7 10.7 6.9.4-.1.8-.1 1.2-.1 5.2 0 9.4 4.2 9.4 9.4 0 5.1-4.2 9.3-9.3 9.3z"/></svg>