<svg version="1.1" id="Calque_1" xmlns="http://www.w3.org/2000/svg" x="0" y="0" width="40" height="40" viewBox="0 0 40 40" xml:space="preserve"><g fill="#FFF"><path d="M31.7 35h-7.3c-.6 0-1.1-.5-1.1-1.1v-7.3c0-.6.5-1.1 1.1-1.1h7.3c.6 0 1.1.5 1.1 1.1v7.3c0 .6-.5 1.1-1.1 1.1m-7.3-9.2c-.4 0-.7.3-.7.7v7.3c0 .4.3.7.7.7h7.3c.4 0 .7-.3.7-.7v-7.3c0-.4-.3-.7-.7-.7h-7.3z"/><path d="M31.7 35.2h-7.3c-.7 0-1.3-.6-1.3-1.3v-7.3c0-.7.6-1.3 1.3-1.3h7.3c.7 0 1.3.6 1.3 1.3v7.3c0 .7-.6 1.3-1.3 1.3zm-7.3-9.6c-.5 0-1 .4-1 1v7.3c0 .5.4 1 1 1h7.3c.5 0 1-.4 1-1v-7.3c0-.5-.4-1-1-1h-7.3zm7.3 9.1h-7.3c-.5 0-.9-.4-.9-.9v-7.3c0-.5.4-.9.9-.9h7.3c.5 0 .9.4.9.9v7.3c-.1.5-.5.9-.9.9zM24.4 26c-.3 0-.5.2-.5.5v7.3c0 .3.2.5.5.5h7.3c.3 0 .5-.2.5-.5v-7.3c0-.3-.2-.5-.5-.5h-7.3z"/><path d="M28.2 32.7h-.5c-.4 0-.7-.3-.7-.7v-1.4c-.7-.5-.9-1.5-.4-2.2.5-.7 1.5-.9 2.2-.4.7.5.9 1.5.4 2.2-.1.2-.2.3-.4.4V32c.1.4-.2.7-.6.7m-.2-4.6c-.6 0-1.1.5-1.1 1.1 0 .4.2.8.6 1l.1.1V32c0 .1.1.2.2.2h.5c.1 0 .2-.1.2-.2v-1.7l.1-.1c.6-.3.7-1 .4-1.6-.2-.3-.6-.5-1-.5"/><path d="M28.2 32.9h-.5c-.5 0-.9-.4-.9-.9v-1.3c-.3-.3-.6-.7-.7-1.1-.1-.5 0-.9.3-1.3.3-.5.9-.8 1.5-.8.4 0 .7.1 1 .3.4.3.7.7.7 1.1.1.5 0 .9-.3 1.3-.1.1-.2.3-.4.4V32c.2.5-.2.9-.7.9zm-.2-5.1c-.5 0-.9.2-1.2.6-.2.3-.3.7-.2 1.1.1.4.3.7.6.9l.1.1V32c0 .3.2.5.5.5h.5c.3 0 .5-.2.5-.5v-1.5l.1-.1c.1-.1.3-.2.4-.4.2-.3.3-.7.2-1.1s-.3-.7-.6-.9c-.3-.1-.6-.2-.9-.2zm.2 4.6h-.5c-.2 0-.4-.2-.4-.4v-1.6c-.4-.2-.7-.7-.7-1.1 0-.7.6-1.3 1.3-1.3.5 0 .9.3 1.2.7.4.6.1 1.4-.5 1.8V32c.1.2-.1.4-.4.4zm-.2-4.1c-.5 0-1 .4-1 1 0 .3.2.7.5.8l.2.1V32h.5v-1.8l.2-.1c.5-.3.6-.8.4-1.3-.1-.3-.4-.5-.8-.5zM31.4 25.8c-.1 0-.2-.1-.2-.2v-2.3c0-1.1-.9-2.1-2.1-2.1h-2.3c-1.1 0-2.1.9-2.1 2.1v2.3c0 .1-.1.2-.2.2s-.2-.1-.2-.2v-2.3c0-1.4 1.1-2.5 2.5-2.5h2.3c1.4 0 2.5 1.1 2.5 2.5v2.3c.1.1 0 .2-.2.2"/><path d="M31.4 26c-.2 0-.4-.2-.4-.4v-2.3c0-1-.8-1.9-1.9-1.9h-2.3c-1 0-1.9.8-1.9 1.9v2.3c0 .2-.2.4-.4.4s-.4-.2-.4-.4v-2.3c0-1.5 1.2-2.7 2.7-2.7h2.3c1.5 0 2.7 1.2 2.7 2.7v2.3c.1.2-.1.4-.4.4zm-4.5-4.9h2.3c1.2 0 2.2 1 2.2 2.2v2.3h.1v-2.3c0-1.3-1-2.3-2.3-2.3l-2.3.1c-1.3-.1-2.3 1-2.3 2.2v2.3h.1v-2.3c-.1-1.2.9-2.2 2.2-2.2z"/><path d="M40 19.9c0-5.3-4-9.6-9.1-9.6-.9 0-1.8.1-2.6.3-2.1-3.5-5.9-5.7-10-5.8-5.7.1-10.5 4.3-11.5 10C3.1 15 0 18.4 0 22.4c0 4 3.3 7.6 7.1 7.6h11.6c.3 0 .5-.2.5-.5s-.2-.5-.4-.5H7.1C3.9 29 1 25.9 1 22.4s2.8-6.6 6.1-6.6h.5l.1-.4C8.4 10 12.9 6 18.4 5.9c3.9.1 7.4 2.2 9.3 5.6l.2.4.4-.1c.9-.3 1.8-.4 2.7-.4 4.5 0 8.1 3.9 8.1 8.6 0 2.3-.8 4.4-2.2 6 0 0-.1.1-.1.3 0 .3.2.5.5.5.2 0 .3-.1.4-.2 1.4-2 2.3-4.3 2.3-6.7"/></g></svg>