<svg version="1.1" id="Calque_1" xmlns="http://www.w3.org/2000/svg" x="0" y="0" width="40" height="40" viewBox="0 0 40 40" xml:space="preserve"><path fill="#C22126" d="M20 38.7c-.4 0-.8-.4-.8-.8v-23L13 21.2c-.3.3-.8.3-1.1 0-.3-.3-.3-.8 0-1.1l7.6-7.6c.3-.3.8-.3 1.1 0l7.6 7.6c.3.3.3.8 0 1.1-.3.3-.8.3-1.1 0L20.9 15v22.9c-.1.4-.5.8-.9.8zm10.6-11.8h-4.4c-.4 0-.8-.4-.8-.8s.4-.8.8-.8h4.4c4.3 0 7.8-3.5 7.8-7.8s-3.5-7.8-7.8-7.8c-.5 0-1.1.1-1.6.2-.4.1-.8-.1-.9-.5-1.5-3.9-5.3-6.5-9.5-6.5C13 2.9 8.5 7.5 8.5 13.1v.1c0 .2-.1.4-.2.6-.2.2-.4.2-.6.2h-.4c-3.1 0-5.6 2.5-5.6 5.6 0 3.1 2.5 5.6 5.6 5.6h5.9c.4 0 .8.4.8.8s-.4.8-.8.8h-6c-4 0-7.2-3.2-7.2-7.2 0-3.9 3.1-7 6.9-7.2.3-6.1 5.5-11.1 11.7-11.1 4.7 0 8.8 2.7 10.7 6.9.4-.1.8-.1 1.2-.1 5.2 0 9.4 4.2 9.4 9.4.1 5.2-4.1 9.4-9.3 9.4z"/></svg>