<svg version="1.1" id="Calque_1" xmlns="http://www.w3.org/2000/svg" x="0" y="0" width="40" height="40" viewBox="0 0 40 40" xml:space="preserve"><g id="Layer_2"><path fill="#C22126" d="M33.3 13.3c0 1.9-.3 3.4-.9 4.7L23 38.2c-.3.6-.7 1-1.2 1.4-1.1.7-2.4.7-3.5 0-.5-.3-1-.8-1.2-1.4L7.5 18c-.6-1.2-.9-2.8-.9-4.7-.1-3.5 1.4-7 3.9-9.4 2.5-2.5 6-4 9.5-3.9 3.5-.1 7 1.4 9.4 3.9 2.6 2.5 4 5.9 3.9 9.4zM24.7 18c1.3-1.2 2-2.9 2-4.7 0-1.8-.7-3.5-1.9-4.7-1.2-1.3-2.9-2-4.7-2-1.8 0-3.5.7-4.7 2-1.3 1.2-2 2.9-2 4.7 0 1.8.7 3.5 2 4.7 1.2 1.3 2.9 2 4.7 2 1.7 0 3.4-.7 4.6-2z" id="Layer_2-2"/></g></svg>