<svg version="1.1" id="Layer_1" xmlns="http://www.w3.org/2000/svg" x="0" y="0" width="40" height="40" viewBox="0 0 40 40" xml:space="preserve"><g id="Layer_2"><g id="Layer_2-2"><g id="FUeWvr" fill="#C22126"><path d="M20.7 13.2c-.1-.3-.7-.5-1.1-.7-4.5.4-8.1 4.1-8.2 8.4 0 .5-.1 1.2.7 1.2.7 0 .7-.5.8-1.1.2-1.7.6-3.2 1.9-4.5 1.4-1.5 3.1-2.3 5.2-2.4.4.1.9-.2.7-.9zm0 0c-.1-.3-.7-.5-1.1-.7-4.5.4-8.1 4.1-8.2 8.4 0 .5-.1 1.2.7 1.2.7 0 .7-.5.8-1.1.2-1.7.6-3.2 1.9-4.5 1.4-1.5 3.1-2.3 5.2-2.4.4.1.9-.2.7-.9zm17.9 9.6V10.5c0-.7-.1-1.4-.3-2.1-.9-3.4-3.7-5.6-7.3-5.6h-7v-1c-.1-1-.6-1.7-1.6-1.7-1.5-.1-3-.1-4.6 0-1.1.1-1.6.7-1.6 1.8v.9h-7c-4.5 0-7.8 3.3-7.8 7.7v21.9c0 4.3 3.4 7.6 7.7 7.6H31c.5 0 1.1 0 1.6-.1 3.6-.8 6.1-3.8 6.1-7.6 0-3.2-.1-6.4-.1-9.5zM20.1 32c-5.9.1-10.7-4.6-10.8-10.5-.1-5.9 4.6-10.7 10.5-10.8h.4c5.9.1 10.5 4.9 10.4 10.8-.2 5.8-4.8 10.4-10.5 10.5zM33.2 9.3h-5.1V5.5h5.1v3.8zm-13.7 3.2c-4.5.4-8.1 4.1-8.2 8.4 0 .5-.1 1.2.7 1.2.7 0 .7-.5.8-1.1.2-1.7.6-3.2 1.9-4.5 1.4-1.5 3.1-2.3 5.2-2.4.6 0 1.2-.3.9-1-.3-.2-.9-.4-1.3-.6z"/><path d="M38.6 22.8V10.5c0-.7-.1-1.4-.3-2.1-.9-3.4-3.7-5.6-7.3-5.6h-7v-1c-.1-1-.6-1.7-1.6-1.7-1.5-.1-3-.1-4.6 0-1.1.1-1.6.7-1.6 1.8v.9h-7c-4.5 0-7.8 3.3-7.8 7.7v21.9c0 4.3 3.4 7.6 7.7 7.6H31c.5 0 1.1 0 1.6-.1 3.6-.8 6.1-3.8 6.1-7.6 0-3.2-.1-6.4-.1-9.5zM20.1 32c-5.9.1-10.7-4.6-10.8-10.5-.1-5.9 4.6-10.7 10.5-10.8h.4c5.9.1 10.5 4.9 10.4 10.8-.2 5.8-4.8 10.4-10.5 10.5zM33.2 9.3h-5.1V5.5h5.1v3.8z"/><path d="M19.8 14.2c-2.1.1-3.7.9-5.2 2.4-1.2 1.3-1.7 2.8-1.9 4.5-.1.5-.1 1.1-.8 1.1-.8 0-.7-.7-.7-1.2.1-4.3 3.7-8 8.2-8.4.4.2 1 .4 1.1.7.4.6-.1.9-.7.9z"/></g></g></g></svg>