<svg version="1.1" id="Calque_1" xmlns="http://www.w3.org/2000/svg" x="0" y="0" viewBox="0 0 40 40" xml:space="preserve"><style type="text/css">.st0{fill:#58595b}</style><path class="st0" d="M20 38.3c-.4 0-.8-.4-.8-.8V15l-6.1 6.1c-.3.3-.8.3-1.1 0-.3-.3-.3-.8 0-1.1l7.4-7.5c.3-.3.8-.3 1.1 0L28 20c.3.3.3.8 0 1.1-.3.3-.8.3-1.1 0L20.8 15v22.5c0 .5-.4.8-.8.8zm10.4-11.5h-4.3c-.4 0-.8-.4-.8-.8s.4-.8.8-.8h4.3c4.2 0 7.6-3.4 7.6-7.6 0-4.2-3.4-7.6-7.6-7.6-.5 0-1 .1-1.5.2-.4.1-.8-.1-.9-.5-1.5-3.9-5.2-6.4-9.3-6.4-5.5 0-10 4.5-10 10v.1c0 .2-.1.4-.2.6-.2.2-.4.2-.6.2h-.4c-3 0-5.5 2.5-5.5 5.5s2.5 5.5 5.5 5.5h5.8c.4 0 .8.4.8.8s-.4.8-.8.8H7.5c-3.9 0-7.1-3.2-7.1-7.1 0-3.8 3-6.9 6.7-7.1.4-6.1 5.4-10.9 11.6-10.9 4.6 0 8.6 2.6 10.5 6.8.4-.1.8-.1 1.2-.1 5.1 0 9.2 4.1 9.2 9.2s-4.1 9.2-9.2 9.2z"/></svg>