<svg version="1.1" id="Calque_1" xmlns="http://www.w3.org/2000/svg" x="0" y="0" viewBox="0 0 40 40" xml:space="preserve"><style type="text/css">.st0{fill:#fff}</style><path class="st0" d="M19.9 3.7l18 15.6h-5v17h-8.5v-9.9h-8.5v9.9H7.3v-17h-5L19.9 3.7m0-2.2c-.5 0-1 .2-1.4.5L.8 17.7c-.7.6-.9 1.5-.6 2.3.3.8 1.1 1.4 2 1.4h2.9v14.9c0 1.2 1 2.1 2.1 2.1h8.5c1.2 0 2.1-1 2.1-2.1v-7.8h4.3v7.8c0 1.2 1 2.1 2.1 2.1h8.5c.6 0 1.1-.2 1.5-.6.4-.4.6-.9.6-1.5V21.4h2.9c.9 0 1.7-.6 2-1.4.3-.8.1-1.8-.6-2.4L21.1 2c-.2-.3-.7-.5-1.2-.5z"/></svg>