<svg version="1.1" id="Calque_1" xmlns="http://www.w3.org/2000/svg" x="0" y="0" width="40" height="40" viewBox="0 0 40 40" xml:space="preserve"><g fill="#FFF"><path d="M14.8 29.5c.1-.1.1-.2.1-.3 0-.1-.5-2.5-.6-2.7-.1-.4-.5-.6-.5-.6L10 24.1c.6-.2 1.1-.6 1.6-1 .8-.7 1.3-1.6 1.7-2.6.2 0 .4-.1.5-.3.9 0 1.7-.9 1.7-2 0-.6-.2-1.1-.5-1.4v-.1c-.3-3.5-3.4-6.2-7.1-6.2-3.7 0-6.8 2.7-7.1 6.2-.4.4-.7 1-.7 1.6 0 .7.3 1.3.7 1.6v.1c0 1 .3 1.7 1 2.3.6.5 1.3.7 2.3.8.5.4 1 .8 1.6 1-1.6.8-3.2 1.6-3.3 1.6-.2.1-.3.3-.3.4l-1 3.1v.3c.1.1.2.1.3.1h13.1c.2 0 .3 0 .3-.1M8 11.2c3.2 0 5.9 2.3 6.3 5.2-.3-.1-.5-.1-.5-.1h-.1-.1c-.1-.1-.2-.1-.4-.1H13c-.9-2.1-2.9-3.6-5.2-3.6-2.3 0-4.3 1.5-5.2 3.6-.1 0-.2-.1-.3-.1-.1 0-.3 0-.4.1h-.1-.4c.7-2.8 3.3-5 6.6-5m-5 7.2c.1-2.8 2.3-5 5-5 .4 0 .8.1 1.1.1-.5 2.8-2.5 4.4-6.1 4.9m6.7-4.6c1.9.8 3.2 2.7 3.2 4.9v.1c-1.4-.7-2.6-1.9-3.5-3.9.1-.4.2-.7.3-1.1m3.9 4.9c0-.6-.1-1.1-.2-1.6 0 0 .1.1.2.1s.2 0 .2-.1c0 0 .3 0 .5.1.3.2.5.7.5 1.1 0 .7-.5 1.3-1 1.3H13.5c0-.3.1-.6.1-.9M1.4 17.2c.2-.2.5-.2.5-.2H2c.1 0 .2.1.2.1.1 0 .2-.1.2-.2 0 .1 0 .1.1.2-.1.5-.2 1-.2 1.6 0 .4 0 .8.1 1.1l-.1-.1c-.1-.1-.2-.1-.3 0h-.1c-.6 0-1-.6-1-1.3 0-.5.2-1 .5-1.2m.6 3zm-.1.1c.1.2.3.3.5.3h.2c.2.6.5 1.2.9 1.8-.5-.2-.9-.4-1.2-.6-.4-.4-.7-.9-.7-1.5h.3m5.2 2.1v-.1H8v.2h-.9v-.1m-.6.6c0-.1.1-.1 0 0 .2.1.4.2.6.2h1c.4 0 .7-.3.7-.8s-.3-.8-.7-.8h-1c-.4 0-.6.3-.7.7h-.1s-.7.2-1.6.2h-.3c-.9-.9-1.4-2.1-1.5-3.4 3-.4 5-1.5 6.1-3.4 1 1.9 2.3 3.1 3.8 3.8-.2 1.2-.8 2.4-1.7 3.2-.9.8-2 1.3-3.2 1.3-1 0-1.9-.3-2.6-.8.7-.1 1.2-.2 1.2-.2m.4 2.4l-.1-.9c.4.1.7.1 1.1.1.4 0 .7 0 1.1-.1v.9c-.1.1-.3.2-1 .2s-1-.2-1.1-.2m-.7.1v.1c.1.1.4.6 1.7.6 1.4 0 1.6-.6 1.7-.7v-.9l3.5 1.7.4.2.1.1c0 .2.4 1.6.5 2.3H2l.9-2.6c.2-.1 1.3-.6 3.3-1.6v.8zM32.3 9.4l-.2-3.3c0-.2-.2-.3-.4-.3-.1 0-.2 0-.2.1-.1.1-.1.2-.1.2l.1 2.4C28.7 5.6 24.7 4 20.6 4c-4.1 0-8 1.6-10.9 4.5-.2.2-.2.4 0 .5.1.1.3.1.5 0 2.8-2.8 6.5-4.3 10.5-4.3s7.8 1.6 10.5 4.4h-2.5c-.2 0-.3.2-.3.3 0 .1 0 .2.1.2.1.1.1.1.2.1l3.3.1c.1 0 .3-.2.3-.4M31.1 31c-2.8 2.8-6.5 4.3-10.5 4.3-1.4 0-2.7-.2-4-.6-2.1-.6-4-1.7-5.7-3.1h2.4c.2 0 .3-.2.3-.3 0-.2-.2-.3-.3-.3H10c-.1 0-.2 0-.2.1-.1.1-.1.1-.1.2l.3 3.2c0 .2.2.3.3.3.1 0 .2 0 .2-.1.1-.1.1-.2.1-.2l-.2-2.5c1.7 1.5 3.8 2.7 6 3.3 1.4.4 2.8.6 4.2.6 4.1 0 8-1.6 10.9-4.5.1-.1.1-.3 0-.5-.1 0-.3 0-.4.1M30.5 28.8l-2-.4c-.1 0-.2-.1-.2-.1-.1-.1-.1-.2-.1-.3l.4-1.9c-.8-.3-1.5-.8-2.2-1.5l-1.6 1c-.2.1-.4.1-.5-.1l-1-1.5c0-.1-.1-.2 0-.3 0-.1.1-.2.1-.2l1.6-1c-.3-.7-.4-1.5-.4-2.3l-1.9-.4c-.2 0-.3-.2-.3-.4l.4-1.9c0-.1.1-.2.1-.2.1-.1.2-.1.3-.1l1.9.4c.3-.7.7-1.4 1.3-2L25.2 14c-.1-.1-.1-.2-.1-.3 0-.1.1-.2.1-.2l1.6-1.1c.2-.1.4-.1.5.1l1.1 1.6c.8-.4 1.7-.5 2.5-.6l.4-1.9c0-.2.2-.3.4-.3l1.9.4c.1 0 .2.1.2.1.2.2.2.3.2.4l-.4 1.8c.8.3 1.5.8 2.2 1.5l1.6-1c.2-.1.4-.1.5.1l1.1 1.6c0 .1.1.2 0 .3 0 .1-.1.2-.1.2l-1.6 1c.3.7.4 1.5.4 2.3l1.9.4c.1 0 .2.1.2.1 0 .1.1.2.1.3l-.4 1.9c0 .2-.2.3-.4.3l-1.9-.4c-.3.7-.7 1.4-1.3 2l1.1 1.6c.1.1.1.2.1.3 0 .1-.1.2-.1.2l-1.6 1.1c-.2.1-.4.1-.5-.1l-1.1-1.6c-.8.4-1.7.5-2.5.6l-.4 1.9c-.1.1-.2.2-.4.2m-1.5-1l1.3.2.4-1.8c0-.2.2-.3.3-.3 1 0 1.9-.2 2.8-.6.1-.1.3 0 .4.1l1.1 1.5 1.1-.7-1.1-1.5c-.1-.1-.1-.3 0-.4.6-.6 1.1-1.4 1.4-2.2.1-.2.2-.2.4-.2l1.8.4.2-1.3-1.8-.4c-.2 0-.3-.2-.3-.3 0-.9-.1-1.8-.5-2.6-.1-.2 0-.3.1-.4l1.6-1-.7-1.1-1.6 1c-.1.1-.3.1-.4-.1-.6-.7-1.5-1.3-2.4-1.6-.2-.1-.2-.2-.2-.4l.4-1.8-1.3-.2-.4 1.8c0 .2-.2.3-.3.3-1 0-1.9.2-2.8.6-.1.1-.3 0-.4-.1L27 13.2l-1 .7 1.1 1.5c.1.1.1.3 0 .4-.6.6-1.1 1.4-1.4 2.2-.1.2-.2.2-.4.2l-1.8-.4-.2 1.3 1.8.4c.2 0 .3.2.3.3 0 .9.1 1.8.5 2.6.1.2 0 .3-.1.4l-1.6 1 .7 1.1 1.6-1c.1-.1.3-.1.4.1.6.7 1.5 1.3 2.4 1.6.2.1.2.2.2.4l-.5 1.8zm2.1-4.1c-2 0-3.6-1.6-3.6-3.6s1.6-3.6 3.6-3.6 3.6 1.6 3.6 3.6-1.6 3.6-3.6 3.6m0-6.6c-1.6 0-3 1.3-3 3 0 1.6 1.3 3 3 3 1.6 0 3-1.3 3-3s-1.4-3-3-3"/></g></svg>