<svg version="1.1" id="Calque_1" xmlns="http://www.w3.org/2000/svg" x="0" y="0" width="40" height="40" viewBox="0 0 40 40" xml:space="preserve"><g id="Layer_2"><path fill="#C22126" d="M40 24.3c0 3.8-1.1 7.6-3.1 10.8-.3.4-.7.7-1.2.6H4.4c-.5 0-.9-.2-1.2-.6C-.4 29.5-1 22.6 1.6 16.5c2-4.8 5.8-8.6 10.6-10.6 5-2.1 10.6-2.1 15.5 0 4.8 2 8.7 5.8 10.6 10.6 1.2 2.5 1.7 5.1 1.7 7.8zm-32.3 2c1.1-1.1 1.1-2.9 0-4-.5-.6-1.3-.9-2-.8-.8 0-1.5.3-2 .8-1.1 1.1-1.1 2.9 0 4 .5.6 1.3.9 2 .8.8.1 1.5-.2 2-.8zm4.3-10c1.1-1.1 1.1-2.9 0-4s-2.9-1.1-4 0-1.1 2.9 0 4 2.9 1.1 4 0zM22.4 25l2.3-8.5c.2-.7-.3-1.5-1-1.7-.4-.1-.7-.1-1.1.1-.3.2-.6.5-.7.8l-2.3 8.5c-.9.1-1.7.4-2.4 1-1.6 1.3-2 3.6-1 5.5.6 1 1.5 1.7 2.6 2 1.1.3 2.3.1 3.3-.5 1.9-1 2.7-3.2 1.9-5.2-.3-.8-.9-1.5-1.6-2zM22 12c.6-.5.9-1.3.8-2 0-.8-.3-1.5-.8-2-1.1-1.1-2.9-1.1-4 0-.6.5-.9 1.3-.8 2 0 .8.3 1.5.8 2 1.1 1.1 2.9 1.1 4 0zm10 4.3c1.1-1.1 1.1-2.9 0-4s-2.9-1.1-4 0c-.5.5-.8 1.3-.8 2 0 1.6 1.3 2.9 2.8 2.9.8-.1 1.5-.4 2-.9zm4.3 10c1.1-1.1 1.1-2.9 0-4s-2.9-1.1-4 0-1.1 2.9 0 4c.5.5 1.3.8 2 .8s1.5-.3 2-.8z" id="Layer_2-2"/></g></svg>