<svg version="1.1" id="Calque_1" xmlns="http://www.w3.org/2000/svg" xmlns:xlink="http://www.w3.org/1999/xlink" x="0" y="0" width="400" height="54.4" viewBox="0 172.8 400 54.4" xml:space="preserve"><title>Logo</title><g id="Layer_2"><defs><path id="SVGID_1_" d="M-21 149.6h439.4v102H-21z"/></defs><clipPath id="SVGID_2_"><use xlink:href="#SVGID_1_" overflow="visible"/></clipPath><g id="Layer_2-2" clip-path="url(#SVGID_2_)"><path fill="#FFF" d="M274.2 174.2H397v48.4H274.2z"/><path d="M49.1 186.4H28.8v35h-8.3v-35H.2V179h48.9z"/><g id="Logo"><defs><path id="SVGID_3_" d="M-21 149.6h439.4v102H-21z"/></defs><clipPath id="SVGID_4_"><use xlink:href="#SVGID_3_" overflow="visible"/></clipPath><g clip-path="url(#SVGID_4_)"><path d="M101.2 221.4h-9.5l-11.1-15.6H59.5v15.6h-8.3V179h34.3c3.9-.2 7.8 1.1 10.8 3.7 2.7 2.5 4.2 6.1 4 9.8 0 7-3.5 11.3-10.5 12.9l11.4 16zm-17-23c5 0 7.5-2 7.5-5.8 0-4.1-2.7-6.1-8-6.1H59.4v12h24.8zM159 221.4h-9.1l-4.9-9.1h-28.6l-4.9 9.1h-9.1l23.1-42.5H136l23 42.5zm-18.1-16.5l-10.1-18.8-10.2 18.8h20.3zM205.4 189.9l-7.2 2.5c-4.3-4.3-10.3-6.6-16.4-6.4-5.7 0-10.2 1.3-13.6 4-3.2 2.3-5.1 6.1-5.1 10.2-.1 4.1 1.8 7.9 5.1 10.3 3.4 2.6 8 3.9 13.8 3.9 6.1.2 12.1-2.1 16.4-6.5l6.7 3.6c-5.9 6.7-13.7 10-23.3 10-8 0-14.5-2-19.4-5.9-4.8-3.6-7.5-9.3-7.4-15.3 0-6.4 3.1-12.3 8.4-15.9 13.4-8.9 31.3-6.5 42 5.5M264.2 221.4h-10.6l-20.3-21.5-12.1 8.7v12.8h-8.3V179h8.3v20.7l29-20.7h12.3l-22.8 16.3z"/><path fill="#FFF" d="M277.8 176.4H396v46.4H277.8z"/><path fill="#DA1F33" d="M271.2 227.2H400v-54.4H271.2v54.4zm55.4-40.8h-20.3v35H298v-35h-20.3V179h48.9v7.4zm10.3 35h-8.3v-42.5h8.3v42.5zm48.2 0L365 199.8l-12.1 8.7v12.8h-8.3v-42.4h8.3v20.8l28.9-20.7h12.3l-22.7 16.3 24.6 26.2h-10.9z"/></g></g></g></g></svg>