<svg version="1.1" id="Calque_1" xmlns="http://www.w3.org/2000/svg" xmlns:xlink="http://www.w3.org/1999/xlink" x="0" y="0" viewBox="0 0 839.1 114.1" xml:space="preserve"><style type="text/css">.st0{clip-path:url(#SVGID_2_)}.st1{fill:#fff}.st2{clip-path:url(#SVGID_4_)}.st3{fill:#da1f33}</style><title>Logo</title><g id="Layer_2"><g id="Layer_2-2"><defs><path id="SVGID_1_" d="M-44-48.6h921.7v213.9H-44z"/></defs><clipPath id="SVGID_2_"><use xlink:href="#SVGID_1_" overflow="visible"/></clipPath><g id="Logo" class="st0"><path class="st1" d="M575.3 3h257.6v101.6H575.3zM103 28.6H60.4V102H43V28.6H.5V12.9H103z"/><defs><path id="SVGID_3_" d="M-44-48.6h921.7v213.9H-44z"/></defs><clipPath id="SVGID_4_"><use xlink:href="#SVGID_3_" overflow="visible"/></clipPath><g class="st2"><path class="st1" d="M212.2 102h-19.9L169 69.3h-44.2V102h-17.4V12.9h72c8.2-.4 16.3 2.3 22.6 7.7 5.7 5.3 8.8 12.8 8.4 20.6 0 14.7-7.4 23.8-22.1 27.1l23.9 33.7zm-35.5-48.4c10.5 0 15.8-4.1 15.8-12.2 0-8.6-5.6-12.9-16.8-12.9h-51v25.1h52zM333.6 102h-19.1l-10.3-19.1h-59.9L234.1 102H215l48.5-89.1h21.7l48.4 89.1zm-38.1-34.7l-21.1-39.4L253 67.3h42.5zM430.8 35.9l-15 5.2c-9.1-9-21.6-13.9-34.4-13.4-11.9 0-21.5 2.8-28.6 8.3-6.8 4.9-10.8 12.9-10.7 21.4-.2 8.5 3.8 16.6 10.7 21.7 7.1 5.4 16.8 8.2 28.9 8.2 12.9.5 25.4-4.5 34.4-13.7l14.1 7.6c-12.4 14-28.7 21-48.9 21-16.8 0-30.4-4.2-40.7-12.4-10-7.6-15.7-19.6-15.5-32.1-.1-13.4 6.5-25.9 17.7-33.3 28.1-18.8 65.7-13.8 88 11.5M554.3 102h-22.4l-42.4-45.1-25.4 18.2V102h-17.4V12.9h17.4v43.6l60.7-43.6h25.8l-47.8 34.2zM582.7 7.6h247.9v97.3H582.7z"/><path class="st3" d="M569 114.1h270V0H569v114.1zm116.2-85.6h-42.5v73.4h-17.4V28.5h-42.6V13h102.5v15.5zm21.6 73.4h-17.4V12.8h17.4v89.1zm101.1 0l-42.3-45.3-25.3 18.2v26.9h-17.4v-89h17.4v43.6L801 12.8h25.8l-47.7 34.1 51.5 55h-22.7z"/></g></g></g></g></svg>