<svg version="1.1" id="Calque_1" xmlns="http://www.w3.org/2000/svg" x="0" y="0" width="40" height="40" viewBox="0 0 40 40" xml:space="preserve"><g fill="#C22126"><path d="M29.6 37.8H9.9l-3.1-.3c-.3 0-.6-.3-.7-.6-.2-.9-.3-1.8-.3-2.8 0-.9.1-1.9.3-2.8.1-.3.4-.6.7-.6l2.8-.3c.1-.4.3-.7.4-1.1l-1.8-2.1c-.2-.2-.2-.6 0-.9.5-.8 1.1-1.5 1.7-2.2.7-.7 1.4-1.2 2.2-1.7.3-.2.7-.2.9.1l2.1 1.8c.3-.2.7-.3 1.1-.4l.3-2.8c0-.3.3-.6.6-.7 1.8-.4 3.7-.4 5.6 0 .3.1.6.4.6.7l.3 2.8c.4.1.7.3 1.1.4l2.1-1.8c.3-.2.6-.2.9-.1.8.5 1.5 1.1 2.2 1.7.7.7 1.2 1.4 1.7 2.2.2.3.2.7-.1.9l-1.8 2.1c.2.3.3.7.4 1.1l2.8.3c.3 0 .6.3.7.6.2.9.3 1.8.3 2.8 0 .9-.1 1.9-.3 2.8-.1.3-.4.6-.7.6l-3.1.3h-.2zm-19.2-1.6h19.1l2.7-.3c.1-.6.2-1.2.2-1.8 0-.6-.1-1.2-.2-1.8l-2.7-.3c-.3 0-.6-.3-.7-.6-.2-.6-.4-1.2-.7-1.8-.1-.2-.1-.6.1-.9l1.7-2.1c-.4-.5-.8-1-1.2-1.4-.4-.4-.9-.8-1.4-1.2l-2.1 1.7c-.2.3-.6.3-.9.2-.6-.3-1.1-.5-1.8-.7-.2-.2-.5-.4-.5-.8l-.3-2.7c-1.2-.2-2.5-.2-3.7 0l-.3 2.7c0 .3-.3.6-.6.7-.6.2-1.2.4-1.8.7-.3.2-.6.1-.9-.1L12.5 24c-.5.4-1 .8-1.4 1.2-.4.4-.8.9-1.2 1.4l1.7 2.1c.2.3.2.6.1.9-.3.6-.5 1.1-.7 1.8-.1.3-.4.5-.7.6l-2.7.3c-.1.6-.2 1.2-.2 1.8 0 .6.1 1.2.2 1.8l2.7.3h.1z"/><path d="M24.4 37.8h-9c-.3 0-.5-.1-.7-.4-.7-1-1-2.2-1-3.4 0-3.4 2.8-6.2 6.2-6.2 3.4 0 6.2 2.8 6.2 6.2 0 1.2-.3 2.4-1 3.4-.2.3-.5.4-.7.4zm-8.5-1.6h8c.3-.7.5-1.4.5-2.1 0-2.5-2-4.5-4.5-4.5s-4.5 2-4.5 4.5c0 .7.1 1.4.5 2.1z"/><path d="M39.2 37.8H.6c-.4 0-.8-.4-.8-.8V3c0-.4.4-.8.8-.8h38.6c.4 0 .8.4.8.8v34c0 .4-.4.8-.8.8zM1.4 36.2h37V3.8h-37v32.4z"/><path d="M39.2 11.8H.6c-.4 0-.8-.4-.8-.8s.4-.8.8-.8h38.6c.4 0 .8.4.8.8 0 .5-.4.8-.8.8zM34.3 8.8c-.9 0-1.7-.7-1.7-1.7s.7-1.7 1.7-1.7 1.7.9 1.7 1.8-.7 1.6-1.7 1.6zm0-1.7c0 .1.1.1 0 0 .1 0 .1 0 0 0zM28.8 8.8c-.9 0-1.7-.7-1.7-1.7s.7-1.7 1.7-1.7c.9 0 1.7.7 1.7 1.7s-.8 1.7-1.7 1.7zm0-1.7c0 .1.1.1 0 0 .1 0 .1 0 0 0z"/></g></svg>