<svg version="1.1" id="Calque_1" xmlns="http://www.w3.org/2000/svg" x="0" y="0" width="40" height="40" viewBox="0 0 40 40" xml:space="preserve"><g id="Layer_2"><path fill="#C22126" d="M35.6 8.5c.5.5.8 1.1 1.1 1.7.3.6.4 1.3.5 2v25.7c0 1.2-.9 2.1-2.1 2.1H5c-.6 0-1.1-.2-1.5-.6-.4-.4-.6-.9-.6-1.5V2.1c0-.6.2-1.1.6-1.5C3.9.2 4.4 0 5 0h20c.7 0 1.3.2 2 .5.6.2 1.2.6 1.7 1.1l6.9 6.9zm-1.3 28.6V14.3H25c-1.2 0-2.1-.9-2.1-2.1V2.9H5.7v34.3h28.6zM11.4 17.8c0-.4.3-.7.7-.7H27.9c.4 0 .7.3.7.7v1.6c0 .4-.3.7-.7.7H12.1c-.4 0-.7-.3-.7-.7v-1.6zm16.5 5c.4 0 .7.3.7.7V25c0 .4-.3.7-.7.7H12.1c-.4 0-.7-.3-.7-.7v-1.5c0-.4.3-.7.7-.7H27.9zm0 5.7c.4 0 .7.3.7.7v1.5c0 .4-.3.7-.7.7H12.1c-.4 0-.7-.3-.7-.7v-1.5c0-.4.3-.7.7-.7H27.9zM25.7 3v8.4h8.4c-.1-.3-.3-.7-.5-.9l-7-7c-.2-.2-.6-.4-.9-.5z" id="Layer_2-2"/></g></svg>