<svg version="1.1" id="Calque_1" xmlns="http://www.w3.org/2000/svg" x="0" y="0" width="40" height="40" viewBox="0 0 40 40" xml:space="preserve"><g fill="#C22126"><path d="M31.5 28.7v-7.1l-5.1 1.9 2.2 5.2h2.9zm-13.7-2l.8 2h8l-1.9-4.5-6.9 2.5zM4.4 33.1h31.2c.4 0 .7-.3.7-.7V13.5c0-.4-.3-.7-.7-.7H28c-.2.5-.5.9-.7 1.4h7.6v17.5H5.1V14.2h7.6c-.3-.4-.5-.9-.7-1.4H4.4c-.4 0-.7.3-.7.7v18.9c0 .4.3.7.7.7m21.4-10.9l1.6-.6h-1.9l.3.6zM7.1 30H33v-9.8H22.9c-.2.2-.4.5-.6.7h10v8.5H7.8v-8.5h9.9c-.2-.2-.4-.4-.6-.7h-10V30zm10.1-4.6l6.9-2.6-.5-1.3h-1.9l-.6.6-1 1-1-1-.6-.6h-2.8l1.5 3.9zM7.1 18.8h8.8c-.7-.8-1.4-1.8-2.1-2.8H7.1v2.8zM39 34.7H25.6l-2.4.8H17l-2-.8c-.1 0-.2-.1-.3-.1H1c-.4 0-.7.3-.7.7v1.2c0 1.9 1.6 3.4 3.6 3.4h32.3c2 0 3.6-1.5 3.6-3.4v-1.2c0-.3-.4-.6-.8-.6m-.7 2c0 1.1-1 2-2.1 2H3.8c-1.2 0-2.2-.9-2.2-2v-.6h12.9l2 .8c.1 0 .2.1.3.1h6.7l2.4-.8h12.3v.5zM8.5 28.6l5.1-1.9-1.5-3.5-3.6.4v5zM32.9 16h-6.8c-.7 1-1.4 2-2.1 2.8h8.9V16zM8.5 21.6v.6l3-.3-.1-.3H8.5zm5.7 6.4l-1.6.6h1.9l-.3-.6z"/><path d="M20 0c-4.4 0-8 3.4-8 7.5 0 6 8 13.7 8 13.7s8-7.8 8-13.7C28 3.4 24.4 0 20 0m0 13.7c-3.7 0-6.6-2.8-6.6-6.2 0-3.4 3-6.2 6.6-6.2 3.7 0 6.6 2.8 6.6 6.2 0 3.4-2.9 6.2-6.6 6.2"/><path d="M22.8 7h-.3V5.6c0-.6-.3-1.2-.7-1.7-.5-.4-1.1-.7-1.7-.7-.7 0-1.3.2-1.8.7-.5.4-.7 1-.7 1.7V7h-.3c-.5 0-.9.4-.9.8v2.5c0 .5.4.8.9.8h5.6c.5 0 .9-.4.9-.8V7.8c-.1-.4-.5-.8-1-.8m-4.6-1.4c0-.4.2-.9.5-1.2.4-.3.8-.4 1.3-.4s.9.2 1.3.5c.3.3.5.7.5 1.2V7h-3.6V5.6zm2.4 3.2c0 .2-.1.3-.2.4v.6c0 .2-.2.3-.4.3s-.4-.2-.4-.3v-.6c-.1-.1-.2-.3-.2-.4v-.3c0-.3.3-.6.6-.6s.6.3.6.6v.3z"/></g></svg>