<svg version="1.1" id="Calque_1" xmlns="http://www.w3.org/2000/svg" xmlns:xlink="http://www.w3.org/1999/xlink" x="0" y="0" width="40" height="40" viewBox="0 0 40 40" xml:space="preserve"><defs><path id="SVGID_1_" d="M0 3.2h40v33.5H0z"/></defs><clipPath id="SVGID_2_"><use xlink:href="#SVGID_1_" overflow="visible"/></clipPath><path clip-path="url(#SVGID_2_)" fill="#C22126" d="M20 17.9c0 1.9.7 3.7 2.1 5.1 1.3 1.3 3.1 2.1 5.1 2.1 1.9 0 3.7-.7 5.1-2.1 1.4-1.4 2.1-3.2 2.1-5.1 0-1.9-.7-3.6-2-4.9 0-.1-.1-.1-.2-.2-1.3-1.3-3.1-2-5-2s-3.7.7-5.1 2.1c-1.4 1.2-2.1 3-2.1 5m7.2-5.8c1.5 0 2.9.6 4 1.6 1.1 1.1 1.7 2.5 1.7 4.1 0 1.5-.6 3-1.7 4.1-1.1 1.1-2.5 1.7-4.1 1.7-1.5 0-3-.6-4.1-1.7-1.1-1.1-1.7-2.5-1.7-4.1 0-1.5.6-3 1.7-4.1 1.2-1 2.6-1.6 4.2-1.6m-.6 17.1c0 .3.2.5.5.5s.5-.2.5-.5-.2-.5-.5-.5c-.3-.1-.5.2-.5.5m-9.1-16.9c0-.3-.2-.5-.5-.5s-.5.2-.5.5.2.5.5.5c.3.1.5-.2.5-.5m20.4 0c0-.3-.2-.5-.5-.5s-.5.2-.5.5.2.5.5.5c.2.1.5-.2.5-.5m-10.2-5c0-.3-.2-.5-.5-.5s-.5.2-.5.5.2.5.5.5c.2.1.5-.2.5-.5m-2.4 8.9c0 .2.2.3.3.3.1.4.3.7.3.8.2.3.8.6 1.2.6.4 0 1-.4 1.2-.6 0-.1.2-.4.3-.8.1 0 .3-.1.3-.3 0-.2 0-.4-.1-.4v-.3c.1-.5 0-1-.3-1.3-.4-.6-1.2-.6-1.5-.6.1 0 .2-.1.4-.1-.7-.1-.9.1-1.3.3-.2 0-.5.2-.6.3.1-.1.2-.1.2-.1-.4.2-.5.6-.5.6-.1.3 0 .7.1 1.1v.5m1.9 5.2l.5-.7-.3-1.2.2-.4-.4-.4-.4.4.2.4-.3 1.2.5.7zm-.1 1.4c1.7 0 3.2-.8 4.2-2-.1-.7-.3-1.1-.5-1.3-.2-.2-.8-.6-2.5-1.4l-.3 2.6-.8 1.2-.8-1.2-.4-2.6c-1.7.9-2.2 1.2-2.5 1.4-.2.2-.4.6-.5 1.3 1 1.2 2.5 2 4.1 2M40 11v-.6l-.6-.1c-6.7-1.4-11.7-6.5-11.8-6.5l-.5-.5-.5.5c-.1 0-5.1 5.1-11.8 6.5l-.6.1v.8c0 .6 0 1.4.1 2.3h1.4c-.1-.7-.1-1.4-.1-2 5.7-1.4 10-5 11.4-6.3 1.4 1.3 5.8 4.9 11.5 6.3 0 4.5-1.3 14.6-11.5 19.3-6.4-3-9.3-8.1-10.5-12.5h-1.4c1.3 4.9 4.4 10.7 11.7 13.9l.3.1.3-.1C38.8 27 40 15.8 40 11.2V11"/><g><defs><path id="SVGID_3_" d="M0 3.2h40v33.5H0z"/></defs><clipPath id="SVGID_4_"><use xlink:href="#SVGID_3_" overflow="visible"/></clipPath><path clip-path="url(#SVGID_4_)" fill="#C22126" d="M17.8 14.3l-4-.1-3.2-1.4c-.1 0-.2-.1-.3-.1l-1.9-.3-.6 3.6-1.3 1.9L5.1 16l-.6-3.5-1.9.3c-.6.1-1 .5-1.2 1.1L.1 18.6c0 .1-.1.3-.1.4v4.3c0 .8.7 1.5 1.5 1.6.8 0 1.5-.7 1.5-1.5l.1-4.1.4-1.6c.3.3.5.8.5 1.3l-.1 4.3c0 .9-.6 1.7-1.4 2.1v9.8c0 .8.7 1.5 1.5 1.5s1.5-.7 1.5-1.5V26c0-.5.4-.8.8-.8.5 0 .8.4.8.8v9.2c0 .8.7 1.5 1.5 1.5s1.5-.7 1.5-1.5V21.4l.4-5.1 2.1.9c.2.1.4.1.6.1l4.3.1c.9 0 1.5-.7 1.6-1.5.2-.9-.4-1.6-1.3-1.6M6.5 17.1l.7-1.1-.3-2.9.3-.6-.2-.2h-.8l-.2.2.3.6-.6 2.9.8 1.1zm-.1-5.4c1.5 0 2.7-1.2 2.7-2.7 0-1.5-1.2-2.7-2.7-2.7S3.7 7.5 3.7 9c0 1.5 1.2 2.7 2.7 2.7"/></g></svg>