<svg version="1.1" id="Calque_1" xmlns="http://www.w3.org/2000/svg" xmlns:xlink="http://www.w3.org/1999/xlink" x="0" y="0" width="40" height="40" viewBox="0 0 40 40" xml:space="preserve"><defs><path id="SVGID_1_" d="M0 3.246h40v33.508H0z"/></defs><clipPath id="SVGID_2_"><use xlink:href="#SVGID_1_" overflow="visible"/></clipPath><path clip-path="url(#SVGID_2_)" fill="#4E4E4F" d="M19.982 17.86a7.087 7.087 0 0 0 2.093 5.066 7.103 7.103 0 0 0 5.054 2.093 7.136 7.136 0 0 0 5.08-2.106 7.111 7.111 0 0 0 2.104-5.069 7.104 7.104 0 0 0-1.97-4.933.676.676 0 0 0-.188-.196 7.124 7.124 0 0 0-4.993-2.021 7.124 7.124 0 0 0-5.073 2.101 7.14 7.14 0 0 0-2.107 5.065m7.18-5.759c1.51 0 2.93.575 4.01 1.621a.397.397 0 0 0 .044.048 5.712 5.712 0 0 1 1.689 4.074c0 1.539-.6 2.985-1.69 4.073a5.74 5.74 0 0 1-4.086 1.694 5.709 5.709 0 0 1-4.059-1.68 5.69 5.69 0 0 1-1.68-4.068 5.737 5.737 0 0 1 1.694-4.074 5.73 5.73 0 0 1 4.078-1.688m-.557 17.084a.541.541 0 1 0 .541-.542.544.544 0 0 0-.541.542m-9.083-16.837a.54.54 0 1 0-1.081 0 .54.54 0 0 0 1.081 0m20.333 0a.54.54 0 1 0-1.081 0 .54.54 0 0 0 1.081 0M27.689 7.326a.542.542 0 1 0-1.084.002.542.542 0 0 0 1.084-.002m-2.377 8.87c.05.206.189.348.316.322.127.414.285.734.332.803.172.254.788.645 1.175.645.386 0 1.034-.391 1.207-.645.046-.068.21-.389.344-.802.125.021.263-.12.312-.323.048-.2-.01-.386-.128-.427.012-.088.021-.174.023-.26.052-.484-.014-.997-.254-1.347-.389-.566-1.161-.637-1.526-.617a.939.939 0 0 1 .358-.06c-.67-.116-.931.107-1.255.332-.23-.02-.535.171-.623.323a.756.756 0 0 1 .236-.149 1.023 1.023 0 0 0-.469.649c-.053.322-.014.727.073 1.131-.113.046-.167.229-.121.425m1.843 5.188l.506-.731-.331-1.23.232-.359-.407-.39-.415.39.231.359-.33 1.23.514.731zm-.005 1.454a5.302 5.302 0 0 0 4.161-2.01c-.129-.67-.283-1.098-.475-1.267-.221-.195-.787-.581-2.469-1.444l-.381 2.585-.832 1.19-.844-1.19-.387-2.581c-1.661.854-2.24 1.246-2.46 1.44-.197.175-.352.565-.482 1.257a5.312 5.312 0 0 0 4.169 2.02M39.957 10.98l.043-.59-.579-.124c-6.693-1.43-11.738-6.479-11.788-6.528l-.486-.491-.482.491c-.051.05-5.083 5.095-11.789 6.528l-.56.134.023.573v.18c-.003.635.018 1.399.083 2.254l1.365.025a26.124 26.124 0 0 1-.087-1.958c5.684-1.38 10.034-5.019 11.449-6.319 1.416 1.301 5.766 4.939 11.45 6.319-.031 4.479-1.293 14.575-11.45 19.277-6.393-2.96-9.26-8.055-10.516-12.542l-1.418-.026c1.292 4.942 4.396 10.696 11.658 13.937l.276.123.277-.123c11.388-5.082 12.558-16.354 12.533-20.965l-.002-.175"/><path clip-path="url(#SVGID_2_)" fill="#4E4E4F" d="M17.817 14.32l-4.041-.076-3.208-1.368a1.578 1.578 0 0 0-.331-.099l-1.892-.338-.574 3.53-1.326 1.887L5.12 15.97l-.575-3.53-1.891.337a1.53 1.53 0 0 0-1.205 1.094L.137 18.553a1.56 1.56 0 0 0-.058.385L0 23.276a1.53 1.53 0 1 0 3.06.057l.076-4.144.436-1.555c.267.392.426.863.417 1.375l-.08 4.339a2.375 2.375 0 0 1-1.365 2.102l.001 9.773a1.53 1.53 0 0 0 3.061-.001l-.001-9.198a.842.842 0 0 1 .839-.815c.461 0 .833.37.842.829l-.004 9.185a1.531 1.531 0 0 0 3.061.001l.002-13.831.393-5.116 2.11.9c.181.077.375.118.572.122l4.339.081a1.516 1.516 0 0 0 1.559-1.501 1.53 1.53 0 0 0-1.501-1.559m-11.363 2.8l.709-1.085-.347-2.889.267-.608-.21-.201c-.141.018-.281.042-.427.042-.145 0-.283-.024-.423-.042l-.215.201.266.608-.344 2.889.724 1.085zm-.009-5.377a2.717 2.717 0 1 0-.001-5.433 2.717 2.717 0 0 0 .001 5.433"/></svg>