<svg version="1.1" id="Calque_1" xmlns="http://www.w3.org/2000/svg" x="0" y="0" width="40" height="40" viewBox="0 0 40 40" xml:space="preserve"><g fill="#FFF"><path d="M39.9 31.4v-.1-.1l-5.4-6.5V7.1c0-.5-.4-.7-.7-.7H6.2c-.3 0-.7.2-.7.7v17.6L.2 31.2v2.1c0 .2.2.3.3.3h39.1c.2 0 .3-.2.3-.3v-1.9zM6.2 7.1h27.5v17.4H6.1l.1-17.4c-.1 0 0 0 0 0zM6 25.2h27.9l4.9 5.9H1.2L6 25.2zm33.2 7.7H.8v-1.2h38.4v1.2z"/><path d="M32.3 8H7.4c-.2 0-.3.1-.3.3v14.5c0 .2.2.3.3.3h24.9c.2 0 .3-.2.3-.3V8.3c.1-.2-.1-.3-.3-.3zM32 22.5H7.8V8.7H32v13.8zM33.6 28.7H6.5c-.2 0-.3-.2-.3-.3 0-.2.2-.3.3-.3h27.1c.2 0 .3.2.3.3 0 .1-.1.3-.3.3"/><path d="M18.6 17.2l-.8.4h-.1s-.1 0-.1-.1l-.4-.8c-.4.1-.8.1-1.2.1l-.3.8c0 .1-.1.1-.2.1l-.8-.3s-.1 0-.1-.1v-.1l.3-.8c-.3-.2-.6-.4-.8-.7l-.9.3c-.1 0-.2 0-.2-.1l-.4-.8V15s0-.1.1-.1l.8-.4c-.1-.3-.1-.7-.1-1.1l-.8-.3s-.1 0-.1-.1v-.1l.3-.9c0-.1.1-.1.2-.1l.8.3c.2-.3.5-.7.8-.9l-.4-.8c0-.1 0-.2.1-.2l.8-.4h.1s.1 0 .1.1l.4.8c.4-.1.8-.1 1.2-.1l.3-.8c0-.1.1-.1.2-.1l.8.3s.1 0 .1.1v.1l-.3 1c.3.2.6.4.8.7l.8-.4h.1s.1 0 .1.1l.4.8c0 .1 0 .2-.1.2l-.8.4c.1.3.1.7.1 1.1l.8.3s.1 0 .1.1v.1l-.3.9c0 .1-.1.1-.2.1l-.8-.4c-.2.3-.5.7-.8.9l.4.8c.1 0 0 .1 0 .2m-.8 0l.5-.3-.4-.8v-.2c.4-.3.7-.6.9-1 0-.1.1-.1.2-.1l.8.3.2-.6-.8-.3c-.1 0-.1-.1-.1-.2.1-.4 0-.8-.1-1.2 0-.1 0-.2.1-.2l.8-.4-.3-.5-.8.4h-.2c-.2-.3-.5-.6-.9-.8-.1 0-.1-.1-.1-.2l.3-.8-.6-.2-.3.8c0 .1-.1.1-.2.1-.4-.1-.9-.1-1.3.1-.1 0-.2 0-.2-.1l-.4-.8-.5.3.4.8v.2c-.4.3-.7.6-.8 1 0 .1-.1.1-.2.1l-.8-.2-.2.6.8.3c.1 0 .1.1.1.2-.1.4 0 .8.1 1.2 0 .1 0 .2-.1.2l-.7.3.3.5.8-.4h.2c.2.3.5.6.9.8.1 0 .1.1.1.2l-.3.8.6.2.3-.8c0-.1.1-.1.2-.1.4.1.9.1 1.3-.1.1 0 .2 0 .2.1l.2.8zm-.4-2.1c-.7.6-1.8.4-2.3-.3-.6-.7-.4-1.8.3-2.3.7-.6 1.8-.4 2.3.3.6.7.4 1.8-.3 2.3m-1.8-2.4c-.6.5-.7 1.3-.3 1.9.5.6 1.3.7 1.9.3.6-.5.7-1.3.3-1.9-.5-.6-1.3-.7-1.9-.3"/><path d="M15.5 17.8s0-.1 0 0l-.9-.3c-.1 0-.1-.1-.1-.1v-.2l.3-.8c-.3-.2-.5-.4-.7-.7l-.7.4c-.1 0-.2 0-.3-.1l-.4-.8V15c0-.1.1-.1.1-.1l.7-.4c-.1-.3-.1-.7-.1-1l-.8-.3c-.1 0-.1-.1-.1-.1v-.2l.3-.9c0-.1.2-.2.3-.1l.8.3c.2-.3.4-.6.7-.9l-.4-.7v-.2c0-.1.1-.1.1-.1l.7-.3h.2c.1 0 .1.1.1.1l.4.7c.4-.1.7-.1 1.1-.1l.3-.8c0-.1.2-.2.3-.1l.8.3c.1 0 .1.1.1.1v.2l-.3.8c.3.2.5.4.7.7l.7-.4h.2c.1 0 .1.1.1.1l.4.8v.2c0 .1-.1.1-.1.1l-.7.4c.1.3.1.7.1 1l.8.3c.1 0 .1.1.1.1v.2l-.3.9c0 .1-.2.2-.3.1l-.7-.4c-.2.3-.4.6-.7.9l.4.7c0 .1 0 .2-.1.3l-.8.4h-.2c-.1 0-.1-.1-.1-.1l-.4-.7c-.4.1-.7.1-1.1.1l-.3.8s-.1.1-.2.1zm-1.4-2.2c.2.3.5.6.8.7l-.3.9v.1l.1.1.8.3s.1 0 .1-.1l.3-.9c.4.1.8 0 1.2-.1l.4.8h.2l.8-.4v-.1l-.4-.8c.3-.2.6-.5.8-.9l.9.3s.1 0 .1-.1l.3-.9v-.1h-.1l-.9-.3c0-.3 0-.7-.1-1l.8-.4v-.1-.1l-.4-.8h-.1-.1l-.5.3c-.2-.3-.5-.5-.8-.7l.3-.9v-.1l-.1-.1-.9-.2c-.1 0-.1 0-.1.1l-.3.9c-.4-.1-.8 0-1.2.1l-.4-.8h-.1-.1l-.8.4v.2l.4.8c-.3.2-.6.5-.8.9l-.9-.3c-.1 0-.1 0-.1.1l-.4.6v.1h.1l.9.3c0 .4 0 .7.1 1l-.9.6v.2l.4.8s.1.1.1 0l.9-.4zm1.4 1.8l-.7-.2.3-.9v-.1c-.4-.2-.7-.5-.9-.8 0 0-.1-.1-.1 0l-.8.4-.3-.6.8-.4.1-.1c-.1-.4-.2-.8-.1-1.2 0 0 0-.1-.1-.1l-.9-.4.2-.7.9.3h.1c.2-.4.5-.7.9-1 0 0 .1-.1 0-.1l-.4-.8.6-.3.4.8.1.1c.4-.1.9-.2 1.3-.1 0 0 .1 0 .1-.1l.3-.9.7.2-.3.9v.1c.4.2.7.5.9.8 0 0 .1.1.1 0l.8-.4.3.6-.8.4-.1.1c.1.4.2.8.1 1.2 0 0 0 .1.1.1l.9.3-.2.7-.8-.2h-.1c-.2.4-.5.7-.9 1 0 0-.1.1 0 .1l.4.8-.6.3-.4-.8-.1-.1c-.4.1-.9.2-1.3.1 0 0-.1 0-.1.1l-.4.9zm-.6-.3l.4.2.3-.7c0-.1.1-.2.2-.1.4.1.9.1 1.3-.1.1 0 .2 0 .3.1l.4.7.4-.2-.4-.7c0-.1 0-.2.1-.3.4-.3.6-.6.8-1 0-.1.2-.1.3-.1l.8.2.1-.5-.8-.2c-.1 0-.2-.1-.1-.2.1-.4 0-.8-.1-1.2 0-.1 0-.2.1-.3l.7-.4-.2-.3-.7.4c-.1 0-.2 0-.3-.1-.2-.3-.5-.6-.9-.8-.1-.1-.1-.2-.1-.3l.3-.8-.4-.2-.3.7c0 .1-.1.2-.2.1-.4-.1-.9-.1-1.3.1-.1 0-.2 0-.3-.1l-.3-.5-.4.2.4.7c0 .1 0 .2-.1.3-.4.3-.6.6-.8 1 0 .1-.2.1-.3.1l-.8-.3-.1.5.8.2c.1 0 .2.1.1.2-.1.4 0 .8.1 1.2 0 .1 0 .2-.1.3l-.7.4.2.4.7-.4c.1 0 .2 0 .3.1.2.3.5.6.9.8.1.1.1.2.1.3l-.4.6zm1.5-1.6c-.5 0-1.1-.3-1.4-.7-.6-.8-.4-1.8.3-2.4.3-.2.7-.3 1-.3.5 0 1.1.2 1.4.7.6.8.4 1.8-.3 2.4-.3.2-.6.3-1 .3zm0-3.3c-.4 0-.7.1-1 .3-.7.5-.9 1.5-.3 2.3.3.4.8.6 1.3.6.4 0 .7-.1 1-.3.7-.5.9-1.5.3-2.3-.3-.4-.8-.6-1.3-.6zm0 3c-.5 0-.9-.2-1.1-.6-.2-.3-.3-.7-.3-1 .1-.4.2-.7.5-.9.2-.2.5-.3.9-.3s.9.2 1.1.6c.2.3.3.7.3 1-.1.4-.2.7-.5.9-.3.2-.6.3-.9.3zm0-2.7c-.3 0-.6.1-.8.3-.3.2-.5.5-.5.9 0 .3 0 .7.2 1 .2.3.6.5 1 .5.3 0 .6-.1.8-.3.3-.2.5-.5.5-.9 0-.3 0-.7-.2-1-.2-.3-.6-.5-1-.5z"/><path d="M24.8 20.7l-.8.4h-.1s-.1 0-.1-.1l-.4-.8c-.4.1-.8.1-1.2.1l-.3.8c0 .1-.1.1-.2.1l-.8-.3s-.1 0-.1-.1v-.1l.3-.8c-.3-.2-.6-.4-.8-.7l-.8.4c-.1 0-.2 0-.2-.1l-.4-.8v-.1s0-.1.1-.1l.8-.4c-.1-.3-.1-.7-.1-1.1l-.8-.3s-.1 0-.1-.1v-.1l.3-.9c0-.1.1-.1.2-.1l.8.3c.2-.3.5-.7.8-.9l-.4-.8c0-.1 0-.2.1-.2l.8-.4h.1s.1 0 .1.1l.4.8c.4-.1.8-.1 1.2-.1l.3-.8c0-.1.1-.1.2-.1l.8.3s.1 0 .1.1v.1l-.3.8c.3.2.6.4.8.7l.8-.4h.1s.1 0 .1.1l.4.8c0 .1 0 .2-.1.2l-.8.4c.1.3.1.7.1 1.1l.8.3s.1 0 .1.1v.1l-.3.9c0 .1-.1.1-.2.1l-.8-.3c-.2.3-.5.7-.8.9l.4.8c0 .1-.1.2-.1.2m-.8.1l.5-.3-.4-.8v-.2c.4-.3.7-.6.9-1 0-.1.1-.1.2-.1l.8.3.2-.6-.8-.3c-.1 0-.1-.1-.1-.2.1-.4 0-.8-.1-1.2 0-.1 0-.2.1-.2l.7-.2-.3-.5-.7.4h-.2c-.2-.3-.5-.6-.9-.8-.1 0-.1-.1-.1-.2l.3-.8-.6-.2-.3.8c0 .1-.1.1-.2.1-.4-.1-.9-.1-1.3.1-.1 0-.2 0-.2-.1l-.4-.8-.5.3.4.8v.2c-.4.3-.7.6-.8 1 0 .1-.1.1-.2.1l-.8-.4-.2.5.8.3c.1 0 .1.1.1.2-.1.4 0 .8.1 1.2 0 .1 0 .2-.1.2l-.8.4.3.5.8-.4h.2c.2.3.5.6.9.8.1 0 .1.1.1.2l-.3.8.6.2.3-.8c0-.1 0-.1.1-.1.4.1.9.1 1.3-.1.1 0 .2 0 .2.1l.4.8zm-.4-2.1c-.7.6-1.8.4-2.3-.3-.6-.7-.4-1.8.3-2.3.7-.6 1.8-.4 2.3.3.6.7.4 1.7-.3 2.3m-1.8-2.4c-.6.5-.7 1.3-.3 1.9.5.6 1.3.7 1.9.3.6-.5.7-1.3.3-1.9-.5-.7-1.3-.8-1.9-.3"/><path d="M21.7 21.3l-.9-.3c-.1 0-.1-.1-.1-.1v-.2l.3-.8c-.3-.2-.5-.4-.7-.7l-.7.4c-.1 0-.2 0-.3-.1l-.4-.8v-.2c0-.1.1-.1.1-.1l.7-.4c-.1-.3-.1-.7-.1-1l-.8-.3c-.1 0-.1-.1-.1-.1v-.2l.3-.9c0-.1.2-.2.3-.1l.8.3c.2-.3.4-.6.7-.9l-.4-.7v-.2c0-.1.1-.1.1-.1l.8-.4h.2c.1 0 .1.1.1.1l.4.7c.4-.1.7-.1 1.1-.1l.3-.8c0-.1.2-.2.3-.1l.8.3c.1 0 .1.1.1.1v.2l-.3.8c.3.2.5.4.7.7l.7-.4h.2c.1 0 .1.1.1.1l.4.8v.2c0 .1-.1.1-.1.1l-.7.4c.1.3.1.7.1 1l.8.3c.1 0 .1.1.1.1v.2l-.3.9c0 .1-.2.2-.3.1l-.8-.3c-.2.3-.4.6-.7.9l.4.7c0 .1 0 .2-.1.3l-.8.5h-.2c-.1 0-.1-.1-.1-.1l-.4-.7c-.4.1-.7.1-1.1.1l-.3.8h-.2zm-1.4-2.2c.2.3.5.6.8.7l-.3.9v.1l.1.1.8.3s.1 0 .1-.1l.3-.9c.4.1.8 0 1.2-.1l.4.8h.2l.8-.4v-.1l-.4-.8c.3-.2.6-.5.8-.9l.9.3s.1 0 .1-.1l.3-.9v-.1h-.1l-.9-.3c0-.3 0-.7-.1-1l.8-.4v-.1-.1l-.4-.8h-.1-.1l-.5.4c-.2-.3-.5-.5-.8-.7l.3-.9v-.1l-.1-.1-.8-.3s-.1 0-.1.1l-.3.9c-.4-.1-.8 0-1.2.1l-.4-.8h-.1-.1l-.9.2v.2l.4.8c-.3.2-.6.5-.8.9l-.9-.3c-.1 0-.1 0-.1.1l-.3.9v.1h.1l.9.3c0 .4 0 .7.1 1l-.8.4v.2l.4.8s.1.1.1 0l.7-.3zm1.4 1.9l-.7-.3.3-.9v-.1c-.4-.2-.7-.5-.9-.8 0 0-.1-.1-.1 0l-.8.4-.3-.6.8-.4.1-.1c-.1-.4-.2-.8-.1-1.2 0 0 0-.1-.1-.1l-.9-.3.2-.7.9.3h.1c.2-.4.5-.7.9-1 0 0 .1-.1 0-.1l-.4-.8.6-.3.4.8.1.1c.4-.1.9-.2 1.3-.1 0 0 .1 0 .1-.1l.3-.9.7.2-.3.9v.1c.4.2.7.5.9.8 0 0 .1.1.1 0l.8-.4.3.6-.8.4s-.1.1 0 .1c.1.4.2.8.1 1.2 0 0 0 .1.1.1l.9.3-.3.7-.9-.3H25c-.2.4-.5.7-.9 1 0 0-.1.1 0 .1l.4.8-.6.3-.4-.7-.1-.1c-.4.1-.9.2-1.3.1-.1 0-.1 0-.1.1l-.3.9zm-.6-.3l.4.2.3-.7c0-.1.1-.2.2-.1.4.1.9.1 1.3-.1.1 0 .2 0 .3.1l.4.7.4-.2-.4-.7c0-.1 0-.2.1-.3.4-.3.6-.6.8-1 0-.1.2-.1.3-.1l.8.2.1-.5-.7-.2c-.1 0-.2-.1-.1-.2.1-.4 0-.8-.1-1.2 0-.1 0-.2.1-.3l.7-.3-.2-.4-.8.3c-.1 0-.2 0-.3-.1-.2-.3-.5-.6-.9-.8-.1-.1-.1-.2-.1-.3l.3-.8-.4-.2-.3.7c0 .1-.1.2-.2.1-.4-.1-.9-.1-1.3.1-.1 0-.2 0-.3-.1l-.3-.5-.4.2.4.7c0 .1 0 .2-.1.3-.4.3-.6.6-.8 1 0 .1-.2.1-.3.1l-.8-.3-.1.5.8.2c.1 0 .2.1.1.2-.1.4 0 .8.1 1.2 0 .1 0 .2-.1.3l-.7.4.2.4.7-.4c.1 0 .2 0 .3.1.2.3.5.6.9.8.1 0 .1.2.1.3l-.4.7zm1.5-1.6c-.5 0-1.1-.3-1.4-.7-.6-.8-.4-1.8.3-2.4.3-.2.7-.3 1-.3.5 0 1.1.2 1.4.7.6.8.4 1.8-.3 2.4-.3.2-.6.3-1 .3zm0-3.4c-.4 0-.7.1-1 .3-.7.5-.9 1.5-.3 2.3.3.4.8.6 1.3.6.4 0 .7-.1 1-.3.7-.5.9-1.5.3-2.3-.3-.3-.8-.6-1.3-.6zm0 3.1c-.4 0-.9-.2-1.1-.6-.2-.3-.3-.7-.3-1 .1-.4.2-.7.5-.9.2-.2.5-.3.9-.3s.9.2 1.1.6c.5.6.3 1.5-.3 2-.2.1-.5.2-.8.2zm0-2.7c-.3 0-.6.1-.8.3-.3.2-.5.5-.5.9 0 .3 0 .7.2 1 .2.3.6.5 1 .5.3 0 .6-.1.8-.3.6-.4.7-1.3.3-1.8-.2-.5-.6-.6-1-.6z"/></g></svg>