<svg version="1.1" id="Isolation_Mode" xmlns="http://www.w3.org/2000/svg" x="0" y="0" viewBox="0 0 47.8 42.7" xml:space="preserve"><style type="text/css">.st0{fill:#fff}</style><path class="st0" d="M46 34.6H1.6c-.8 0-1.5-.7-1.5-1.5V1.5C.1.7.8 0 1.6 0H46c.8 0 1.5.7 1.5 1.5v31.6c0 .9-.6 1.5-1.5 1.5zm-42.9-3h41.4V3H3.1v28.6z"/><path class="st0" d="M9.4 26C7 26 5 24.1 5 21.6c0-2.4 2-4.4 4.4-4.4 2.4 0 4.4 2 4.4 4.4.1 2.5-1.9 4.4-4.4 4.4zm0-5.8c-.8 0-1.4.6-1.4 1.4 0 .8.7 1.4 1.4 1.4.8 0 1.4-.6 1.4-1.4.1-.8-.6-1.4-1.4-1.4zM28.6 25c-2.4 0-4.4-2-4.4-4.4s2-4.4 4.4-4.4c2.4 0 4.4 2 4.4 4.4S31.1 25 28.6 25zm0-5.8c-.8 0-1.4.6-1.4 1.4 0 .8.6 1.4 1.4 1.4.8 0 1.4-.6 1.4-1.4 0-.8-.6-1.4-1.4-1.4zm9.6 1.4c-2.4 0-4.4-2-4.4-4.4 0-2.4 2-4.4 4.4-4.4 2.4 0 4.4 2 4.4 4.4 0 2.4-2 4.4-4.4 4.4zm0-5.9c-.8 0-1.4.6-1.4 1.4 0 .8.6 1.4 1.4 1.4.8 0 1.4-.6 1.4-1.4 0-.7-.6-1.4-1.4-1.4zM19 16.3c-2.4 0-4.4-2-4.4-4.4 0-2.4 2-4.4 4.4-4.4 2.4 0 4.4 2 4.4 4.4.1 2.4-1.9 4.4-4.4 4.4zm0-5.8c-.8 0-1.4.6-1.4 1.4 0 .8.6 1.4 1.4 1.4.8 0 1.4-.6 1.4-1.4.1-.8-.6-1.4-1.4-1.4z"/><path class="st0" d="M12.1 20.5c-.4 0-.8-.1-1.1-.4-.6-.6-.6-1.5 0-2.1l4.5-4.5c.6-.6 1.5-.6 2.1 0 .6.6.6 1.5 0 2.1L13.1 20c-.3.3-.7.5-1 .5zM26.2 20c-.4 0-.7-.1-1-.4l-4.6-4.2c-.6-.6-.7-1.5-.1-2.1.6-.6 1.5-.7 2.1-.1l4.6 4.2c.6.6.7 1.5.1 2.1-.3.3-.7.5-1.1.5zM31.5 20.8c-.6 0-1.1-.3-1.3-.8-.4-.7-.1-1.6.7-2l3.4-1.7c.7-.4 1.6-.1 2 .7.4.7.1 1.6-.7 2l-3.4 1.7c-.3.1-.5.1-.7.1zM34.5 42.4H13.2c-.8 0-1.5-.7-1.5-1.5s.7-1.5 1.5-1.5h21.3c.8 0 1.5.7 1.5 1.5s-.7 1.5-1.5 1.5z"/><path class="st0" d="M18.5 41.4c-.8 0-1.5-.7-1.5-1.5v-6.3c0-.8.7-1.5 1.5-1.5s1.5.7 1.5 1.5v6.3c0 .8-.7 1.5-1.5 1.5zM29.2 41.4c-.8 0-1.5-.7-1.5-1.5v-6.3c0-.8.7-1.5 1.5-1.5s1.5.7 1.5 1.5v6.3c0 .8-.7 1.5-1.5 1.5z"/></svg>